<svg width="271" height="114" viewBox="0 0 271 114" fill="none" xmlns="http://www.w3.org/2000/svg">
<rect width="120.789" height="55.78" rx="10" fill="#E1EB82"/>
<path d="M32.95 36.44C38.86 36.44 43.39 32.54 44.11 26.78H38.11C37.63 29.51 35.62 31.37 33.01 31.37C29.83 31.37 27.82 28.88 27.82 25.19C27.82 21.53 29.83 19.07 33.01 19.07C35.65 19.07 37.66 20.93 38.11 23.63H44.11C43.42 17.93 38.86 14 32.95 14C26.83 14 22 18.89 22 25.19C22 31.52 26.83 36.44 32.95 36.44Z" fill="black"/>
<path d="M54.0391 36.29C58.8091 36.29 62.4691 32.54 62.4691 27.92C62.4691 23.3 58.8091 19.55 54.0391 19.55C49.2691 19.55 45.6091 23.3 45.6091 27.92C45.6091 32.54 49.2691 36.29 54.0391 36.29ZM54.0391 31.7C52.4491 31.7 50.9491 30.44 50.9491 27.92C50.9491 25.4 52.4491 24.17 54.0391 24.17C55.6291 24.17 57.1291 25.4 57.1291 27.92C57.1291 30.44 55.6291 31.7 54.0391 31.7Z" fill="black"/>
<path d="M81.5324 27.92C81.5324 23.3 78.6824 19.55 74.3324 19.55C72.4424 19.55 70.8524 20.3 69.5324 21.68V19.85H64.8224V41.78H69.9524V34.49C71.2124 35.69 72.6524 36.29 74.3324 36.29C78.6824 36.29 81.5324 32.6 81.5324 27.92ZM76.1924 27.92C76.1924 30.5 74.6624 31.67 73.1024 31.67C71.5424 31.67 70.0124 30.53 70.0124 27.95C70.0124 25.4 71.5124 24.17 73.1024 24.17C74.6624 24.17 76.1924 25.4 76.1924 27.92Z" fill="black"/>
<path d="M98.7895 19.85H93.6295L90.5095 29.84L87.0295 19.85H81.4495L87.7495 35.81L85.4995 41.78H91.1095L98.7895 19.85Z" fill="black"/>
<rect x="145.307" y="60" width="125.061" height="53.84" rx="10" fill="#CFBFFD"/>
<path d="M175.707 90.97C181.347 90.97 184.737 88.21 184.737 83.35C184.737 78.52 181.347 76 175.707 76H167.307V97.54H172.977V90.97H175.707ZM175.677 80.77C177.927 80.77 179.097 81.73 179.097 83.41C179.097 85.06 177.927 86.2 175.677 86.2H172.977V80.77H175.677Z" fill="black"/>
<path d="M196.346 97.54H200.486V87.58C200.486 83.5 197.876 81.1 193.436 81.1C189.446 81.1 186.656 83.56 186.356 87.31H190.976C191.156 85.9 191.996 85.12 193.406 85.12C194.846 85.12 195.656 85.9 195.656 87.31V88.09C194.966 87.97 194.156 87.91 193.286 87.91C188.666 87.91 186.116 89.62 186.116 92.77C186.116 95.83 188.366 97.84 191.726 97.84C193.796 97.84 195.206 97.27 196.346 95.98V97.54ZM190.946 92.62C190.946 91.51 191.876 90.94 193.616 90.94C194.276 90.94 194.876 91 195.656 91.15V92.17C195.656 93.49 194.636 94.3 192.926 94.3C191.666 94.3 190.946 93.67 190.946 92.62Z" fill="black"/>
<path d="M217.994 92.05C217.994 89.74 216.344 88.21 213.224 87.64L209.804 87.01C208.784 86.83 208.274 86.62 208.274 85.93C208.274 85.21 209.054 84.88 210.254 84.88C211.664 84.88 212.654 85.66 212.774 86.95H217.694C217.394 83.35 214.454 81.1 210.224 81.1C205.994 81.1 203.354 83.29 203.354 86.41C203.354 89.02 205.154 90.64 207.974 91.15L211.154 91.72C212.264 91.93 212.804 92.23 212.804 92.95C212.804 93.79 211.754 94.06 210.584 94.06C208.814 94.06 207.584 93.19 207.584 91.84H202.664C202.994 95.56 205.634 97.84 210.494 97.84C215.354 97.84 217.994 95.62 217.994 92.05Z" fill="black"/>
<path d="M230.861 92.5C230.291 92.86 229.481 93.07 228.641 93.07C227.231 93.07 226.571 92.35 226.571 90.79V85.87H230.981V81.4H226.571V76.66H221.441V81.4H218.441V85.87H221.441V91.99C221.441 95.68 223.571 97.84 227.201 97.84C228.641 97.84 229.721 97.6 230.861 96.97V92.5Z" fill="black"/>
<path d="M240.27 97.81C244.29 97.81 247.14 95.74 248.13 92.05H243C242.55 93.22 241.59 93.82 240.15 93.82C238.5 93.82 237.54 92.8 237.27 90.76H248.22C249.15 85.45 245.58 81.1 240.24 81.1C235.44 81.1 231.96 84.61 231.96 89.44C231.96 94.45 235.29 97.81 240.27 97.81ZM240.12 84.88C241.65 84.88 242.67 85.93 242.73 87.55H237.33C237.69 85.75 238.59 84.88 240.12 84.88Z" fill="black"/>
</svg>
