<svg width="312" height="181" viewBox="0 0 312 181" fill="none" xmlns="http://www.w3.org/2000/svg">
<path d="M0 60C0 35.0018 0 22.5027 6.3661 13.7405C8.42209 10.9107 10.9107 8.42209 13.7405 6.3661C22.5027 0 35.0018 0 60 0C84.9982 0 97.4973 0 106.26 6.3661C109.089 8.42209 111.578 10.9107 113.634 13.7405C120 22.5027 120 35.0018 120 60C120 84.9982 120 97.4973 113.634 106.26C111.578 109.089 109.089 111.578 106.26 113.634C97.4973 120 84.9982 120 60 120C35.0018 120 22.5027 120 13.7405 113.634C10.9107 111.578 8.42209 109.089 6.3661 106.26C0 97.4973 0 84.9982 0 60Z" fill="#0600F4"/>
<path d="M63.6341 51.2391C62.2467 49.8572 60.881 48.3198 59.6856 46.6866C58.4888 45.0513 57.4627 43.32 56.7564 41.5522C55.9088 39.4309 55.5218 37.2571 55.8528 35.1342C56.2015 32.8984 57.3467 30.7188 59.5893 28.7162" stroke="#F6684B" stroke-width="9.50177" stroke-miterlimit="10" stroke-linecap="round"/>
<path d="M59.2087 45.9344C57.9856 44.2316 57.126 42.4941 56.4043 40.6532C55.8954 39.3555 55.6985 37.5795 55.6985 36.4332" stroke="#F4B946" stroke-width="9.50177" stroke-miterlimit="10" stroke-linecap="round"/>
<path d="M42.2443 82.1442C46.6151 89.0172 55.0558 92.0736 62.9422 91.0601C72.1589 89.8882 78.5884 82.065 77.6699 72.0881C76.9305 64.0564 72.0653 59.2473 66.8914 54.3229C65.6384 53.1303 64.3673 51.931 63.1323 50.6774C61.7145 49.2384 60.3189 47.6375 59.0974 45.9368" stroke="white" stroke-width="9.50177" stroke-miterlimit="10" stroke-linecap="round"/>
<path d="M24.8791 140.638H30.3392V172.354H24.8791V149.991L17.235 167.273H12.9618L5.46011 150.276V172.354H0V140.638L5.46011 140.685L15.0984 162.526L24.8791 140.638Z" fill="#060530"/>
<path d="M48.2036 148.567C51.2107 148.567 53.7745 149.643 55.8953 151.795C58.0477 153.916 59.1239 156.48 59.1239 159.487V161.671C59.1239 164.678 58.0477 167.258 55.8953 169.41C53.7745 171.531 51.2107 172.591 48.2036 172.591H47.3015C44.2945 172.591 41.7148 171.531 39.5624 169.41C37.4417 167.258 36.3813 164.678 36.3813 161.671V159.487C36.3813 156.48 37.4417 153.916 39.5624 151.795C41.7148 149.643 44.2945 148.567 47.3015 148.567H48.2036ZM53.6638 161.528V159.582C53.6638 158.031 53.1257 156.717 52.0495 155.641C50.9733 154.565 49.6597 154.027 48.1087 154.027H47.444C45.893 154.027 44.5636 154.565 43.4557 155.641C42.3795 156.717 41.8414 158.031 41.8414 159.582V161.528C41.8414 163.079 42.3795 164.409 43.4557 165.517C44.5636 166.593 45.893 167.131 47.444 167.131H48.1087C49.6597 167.131 50.9733 166.593 52.0495 165.517C53.1257 164.409 53.6638 163.079 53.6638 161.528Z" fill="#060530"/>
<path d="M76.5098 148.519C79.2636 148.519 81.2577 149.295 82.4922 150.846C83.7266 152.397 84.3439 154.264 84.3439 156.448V172.069H78.8837V158.537C78.8837 157.303 78.4723 156.353 77.6493 155.688C76.858 155.024 75.9084 154.691 74.8005 154.691C73.6294 154.691 72.6007 155.04 71.7144 155.736C70.8598 156.401 70.4324 157.334 70.4324 158.537V172.069H64.9723V149.089H70.4324V149.801C69.7361 150.687 69.2771 151.273 69.0556 151.558C68.5175 152.317 68.2484 153.109 68.2484 153.932V154.739C68.3117 154.581 68.3908 154.359 68.4858 154.074C68.6124 153.789 68.8973 153.299 69.3404 152.602C69.8152 151.874 70.3375 151.241 70.9072 150.703C71.5086 150.133 72.3 149.627 73.2812 149.184C74.2941 148.741 75.3703 148.519 76.5098 148.519Z" fill="#060530"/>
<path d="M102.771 158.3L112.22 172.069H105.62L98.8306 162.241L96.3142 164.805V172.069H90.8541V140.4H96.3142V154.264C96.3142 155.15 95.9818 155.926 95.3171 156.591C94.6841 157.224 94.1934 157.683 93.8453 157.968C93.2439 158.506 92.9432 159.154 92.9432 159.914V160.436L104.243 149.089H111.982L102.771 158.3Z" fill="#060530"/>
<path d="M137.325 159.202V162.478H120.138C120.36 163.807 120.977 164.931 121.99 165.849C123.034 166.735 124.253 167.178 125.646 167.178H126.31C128.02 167.178 129.412 166.53 130.488 165.232L136.138 166.656C135.221 168.46 133.891 169.916 132.15 171.024C130.409 172.1 128.494 172.639 126.405 172.639H125.503C122.496 172.639 119.916 171.578 117.764 169.457C115.643 167.305 114.583 164.725 114.583 161.718V159.534C114.583 156.527 115.643 153.963 117.764 151.843C119.916 149.69 122.496 148.614 125.503 148.614H126.405C129.381 148.614 131.913 149.643 134.002 151.7C136.123 153.758 137.231 156.258 137.325 159.202ZM120.091 159.202H131.865C131.707 157.778 131.09 156.575 130.014 155.594C128.969 154.581 127.735 154.074 126.31 154.074H125.646C124.19 154.074 122.923 154.581 121.847 155.594C120.803 156.575 120.217 157.778 120.091 159.202Z" fill="#060530"/>
<path d="M158.288 149.089H164.033L155.677 173.873C155.107 175.582 154.11 176.975 152.685 178.051C151.261 179.159 149.663 179.76 147.89 179.855L144.329 180.045L144.139 174.728L146.75 174.538C148.428 174.443 149.647 173.62 150.406 172.069H148.365L140.673 149.089H146.418L151.214 163.38C151.625 164.583 151.831 165.865 151.831 167.226V170.027H152.923V167.036C152.923 165.738 153.144 164.456 153.587 163.19L158.288 149.089Z" fill="#060530"/>
<path d="M179.221 144.673C177.986 144.673 177.021 145.053 176.324 145.813C175.628 146.541 175.28 147.506 175.28 148.709V149.089H179.601V152.412H175.28V172.116H169.82V152.412H167.636V149.089H169.82V148.614C169.82 145.734 170.564 143.55 172.051 142.062C173.571 140.574 175.755 139.83 178.603 139.83L182.307 139.783V144.673H179.221Z" fill="#060530"/>
<path d="M195.95 148.519C196.013 148.519 196.124 148.519 196.282 148.519C196.44 148.519 196.583 148.519 196.709 148.519L196.947 148.567C195.522 152.428 194.779 154.454 194.715 154.644C193.481 154.327 192.357 154.596 191.344 155.451C190.363 156.274 189.872 157.303 189.872 158.537V172.069H184.412V149.089H189.872V149.801C189.176 150.687 188.717 151.273 188.495 151.558C187.957 152.317 187.688 153.109 187.688 153.932V154.739C187.752 154.581 187.831 154.359 187.926 154.074C188.052 153.789 188.337 153.299 188.78 152.602C189.255 151.874 189.777 151.241 190.347 150.703C190.949 150.133 191.74 149.627 192.721 149.184C193.734 148.741 194.81 148.519 195.95 148.519Z" fill="#060530"/>
<path d="M216.846 149.089H222.306V172.069H216.893V171.309C218.539 169.916 219.362 168.666 219.362 167.558V166.609C219.299 166.767 219.188 166.989 219.03 167.273C218.872 167.527 218.523 168.001 217.985 168.698C217.447 169.394 216.862 170.011 216.228 170.549C215.627 171.088 214.804 171.578 213.76 172.021C212.715 172.433 211.623 172.639 210.484 172.639C207.476 172.639 204.897 171.578 202.744 169.457C200.624 167.305 199.563 164.725 199.563 161.718V159.534C199.563 156.527 200.624 153.963 202.744 151.843C204.897 149.69 207.476 148.614 210.484 148.614C213.111 148.614 215.231 149.39 216.846 150.941V149.089ZM216.846 161.576V159.677C216.846 158.126 216.308 156.812 215.231 155.736C214.155 154.628 212.842 154.074 211.291 154.074H210.626C209.075 154.074 207.746 154.628 206.638 155.736C205.562 156.812 205.023 158.126 205.023 159.677V161.576C205.023 163.127 205.562 164.456 206.638 165.564C207.746 166.64 209.075 167.178 210.626 167.178H211.291C212.842 167.178 214.155 166.64 215.231 165.564C216.308 164.456 216.846 163.127 216.846 161.576Z" fill="#060530"/>
<path d="M252.917 148.519C255.26 148.519 257.064 149.247 258.33 150.703C259.628 152.128 260.277 153.837 260.277 155.831V172.069H254.864V157.92C254.864 156.717 254.516 155.799 253.819 155.166C253.123 154.502 252.284 154.169 251.303 154.169C250.29 154.169 249.388 154.533 248.597 155.261C247.837 155.958 247.457 156.923 247.457 158.157V172.069H241.902V157.92C241.902 156.844 241.538 156.005 240.81 155.404C240.114 154.771 239.275 154.454 238.294 154.454C237.249 154.454 236.347 154.786 235.587 155.451C234.859 156.084 234.495 157.002 234.495 158.205V172.069H229.035V149.089H234.495V149.801C233.799 150.687 233.34 151.273 233.118 151.558C232.58 152.317 232.311 153.109 232.311 153.932V154.739C232.375 154.581 232.47 154.359 232.596 154.074C232.723 153.789 233.008 153.299 233.451 152.602C233.894 151.874 234.385 151.241 234.923 150.703C235.461 150.133 236.189 149.627 237.107 149.184C238.025 148.741 238.99 148.519 240.003 148.519C240.858 148.519 241.601 148.582 242.235 148.709C242.899 148.836 243.437 149.057 243.849 149.374C244.292 149.659 244.624 149.896 244.846 150.086C245.067 150.244 245.321 150.529 245.606 150.941C245.89 151.32 246.049 151.526 246.08 151.558C245.542 152.317 245.273 153.109 245.273 153.932V154.739C245.336 154.581 245.416 154.359 245.511 154.074C245.637 153.789 245.922 153.299 246.365 152.602C246.808 151.874 247.299 151.241 247.837 150.703C248.375 150.133 249.103 149.627 250.021 149.184C250.939 148.741 251.904 148.519 252.917 148.519Z" fill="#060530"/>
<path d="M288.675 159.202V162.478H271.487C271.709 163.807 272.326 164.931 273.339 165.849C274.383 166.735 275.602 167.178 276.995 167.178H277.66C279.369 167.178 280.762 166.53 281.838 165.232L287.488 166.656C286.57 168.46 285.24 169.916 283.5 171.024C281.759 172.1 279.844 172.639 277.755 172.639H276.852C273.845 172.639 271.266 171.578 269.113 169.457C266.993 167.305 265.932 164.725 265.932 161.718V159.534C265.932 156.527 266.993 153.963 269.113 151.843C271.266 149.69 273.845 148.614 276.852 148.614H277.755C280.73 148.614 283.262 149.643 285.351 151.7C287.472 153.758 288.58 156.258 288.675 159.202ZM271.44 159.202H283.215C283.056 157.778 282.439 156.575 281.363 155.594C280.318 154.581 279.084 154.074 277.66 154.074H276.995C275.539 154.074 274.273 154.581 273.197 155.594C272.152 156.575 271.566 157.778 271.44 159.202Z" fill="#060530"/>
<path d="M302.789 158.537C305.859 159.487 307.948 160.326 309.056 161.054C311.019 162.351 312 164.045 312 166.134C312 167.938 311.082 169.457 309.246 170.692C307.41 171.895 305.226 172.496 302.694 172.496C299.117 172.496 296.079 171.42 293.578 169.268L295.572 164.187C296.585 165.169 297.93 165.976 299.608 166.609C301.286 167.242 302.837 167.558 304.261 167.558C305.875 167.558 306.936 167.131 307.442 166.276C307.727 165.77 307.759 165.279 307.537 164.805C307.315 164.33 306.698 163.823 305.685 163.285C304.672 162.747 303.264 162.209 301.46 161.671C295.477 159.898 292.866 157.176 293.626 153.504C293.879 152.112 294.749 150.941 296.237 149.991C297.756 149.01 299.56 148.519 301.65 148.519C303.359 148.519 304.973 148.709 306.492 149.089C308.043 149.469 309.167 149.849 309.863 150.228L310.861 150.798L308.961 155.878L308.439 155.641C308.059 155.451 307.6 155.245 307.062 155.024C306.556 154.802 305.986 154.581 305.353 154.359C304.752 154.138 304.103 153.948 303.406 153.789C302.71 153.631 302.093 153.552 301.555 153.552C300.447 153.552 299.687 153.884 299.276 154.549C298.769 155.34 298.864 156.084 299.56 156.781C300.288 157.477 301.365 158.062 302.789 158.537Z" fill="#060530"/>
</svg>
