<svg width="120" height="120" viewBox="0 0 120 120" fill="none" xmlns="http://www.w3.org/2000/svg">
<path d="M45.165 105C53.535 105 60.3262 98.28 60.3262 90V75H45.165C36.795 75 30 81.7162 30 90C30 98.2838 36.795 105 45.165 105Z" fill="#0ACF83"/>
<path d="M30 60C30 51.72 36.795 45 45.165 45H60.3262V75H45.165C36.795 75 30 68.2763 30 60Z" fill="#A259FF"/>
<path d="M30 30C30 21.72 36.795 15 45.165 15H60.3262V45H45.165C36.795 45 30 38.28 30 30Z" fill="#F24E1E"/>
<path d="M60.3235 15H75.4885C83.8585 15 90.6535 21.72 90.6535 30C90.6535 38.28 83.8585 45 75.4885 45H60.3235V15Z" fill="#FF7262"/>
<path d="M90.6535 60C90.6535 68.28 83.8585 75 75.4885 75C67.1185 75 60.3235 68.28 60.3235 60C60.3235 51.72 67.1185 45 75.4885 45C83.8585 45 90.6535 51.72 90.6535 60Z" fill="#1ABCFE"/>
</svg>
