<svg width="398" height="103" viewBox="0 0 398 103" fill="none" xmlns="http://www.w3.org/2000/svg">
<rect x="4.16434" y="4.16446" width="389.671" height="78.6576" stroke="#B4B4B4" stroke-width="0.90411"/>
<rect x="391.075" y="80.0618" width="6.42466" height="6.42466" rx="3.21233" fill="#110716" stroke="#110716"/>
<rect x="0.5" y="80.0618" width="6.42466" height="6.42466" rx="3.21233" fill="#110716" stroke="#110716"/>
<rect x="390.5" y="0.5" width="6.42466" height="6.42466" rx="3.21233" fill="#110716" stroke="#110716"/>
<rect x="0.5" y="0.5" width="6.42466" height="6.42466" rx="3.21233" fill="#110716" stroke="#110716"/>
<path d="M49.8219 57.0549C51.3288 57.0549 64.8904 49.521 64.8904 38.9734C64.8904 33.6996 60.3699 29.998 55.8493 29.9326C53.589 29.8999 51.3288 30.6861 49.8219 32.9462C48.3151 30.6861 46.0157 29.9326 43.7945 29.9326C39.274 29.9326 34.7534 33.6996 34.7534 38.9734C34.7534 49.521 48.3151 57.0549 49.8219 57.0549Z" stroke="#0600F4" stroke-width="2.26027" stroke-linecap="round" stroke-linejoin="round"/>
<path d="M120.025 49.521C122.568 46.6179 124.562 43.0171 124.562 38.9734C124.562 33.6996 120.041 29.998 115.521 29.9326C113.26 29.8999 111 30.6861 109.493 32.9462C107.986 30.6861 105.687 29.9326 103.466 29.9326C98.9452 29.9326 94.4247 33.6996 94.4247 38.9734C94.4247 49.521 107.986 57.0549 109.493 57.0549C109.914 57.0549 111.274 56.4679 113.016 55.3922C113.644 55.004 114.323 54.5522 115.025 54.0414" stroke="#0600F4" stroke-width="2.26027" stroke-linecap="round" stroke-linejoin="round"/>
<path opacity="0.4" d="M169.164 32.9462C170.671 30.6861 172.931 29.8999 175.192 29.9326C179.712 29.998 184.233 33.6996 184.233 38.9734C184.233 43.7491 181.453 47.907 178.27 51.0275" stroke="#0600F4" stroke-width="2.26027" stroke-linecap="round" stroke-linejoin="round"/>
<path d="M169.164 32.946C167.657 30.6858 165.358 29.9324 163.137 29.9324C158.616 29.9324 154.096 33.6994 154.096 38.9731C154.096 49.5208 167.657 57.0547 169.164 57.0547C170.19 57.0547 176.797 53.5662 180.915 48.0135" stroke="#0600F4" stroke-width="2.26027" stroke-linecap="round" stroke-linejoin="round"/>
<path opacity="0.12" d="M228.834 57.0549C230.341 57.0549 243.902 49.521 243.902 38.9734C243.902 33.6996 239.382 29.998 234.861 29.9326C232.601 29.8999 230.341 30.6861 228.834 32.9462C227.327 30.6861 225.028 29.9326 222.806 29.9326C218.286 29.9326 213.765 33.6996 213.765 38.9734C213.765 49.521 227.327 57.0549 228.834 57.0549Z" fill="#0600F4"/>
<path d="M228.834 57.0549C230.341 57.0549 243.902 49.521 243.902 38.9734C243.902 33.6996 239.382 29.998 234.861 29.9326C232.601 29.8999 230.341 30.6861 228.834 32.9462C227.327 30.6861 225.028 29.9326 222.806 29.9326C218.286 29.9326 213.765 33.6996 213.765 38.9734C213.765 49.521 227.327 57.0549 228.834 57.0549Z" stroke="#0600F4" stroke-width="2.26027" stroke-linecap="round" stroke-linejoin="round"/>
<path opacity="0.32" d="M272.308 38.9734C272.308 33.0154 277.397 28.8025 282.479 28.8025C284.552 28.8025 286.789 29.3994 288.504 31.1523C290.207 29.3963 292.422 28.7718 294.551 28.8026C299.606 28.8757 304.705 33.0022 304.705 38.9734C304.705 48.0431 296.012 54.5662 288.507 58.3184C281.002 54.5662 272.308 48.0431 272.308 38.9734Z" fill="#0600F4"/>
<path d="M288.507 58.3184C284.906 56.5179 281.031 54.0793 277.974 51.0275C277.974 51.0275 279.466 41.9865 288.504 41.9865C297.543 41.9865 299.04 51.0275 299.04 51.0275C295.983 54.0793 292.108 56.5179 288.507 58.3184Z" fill="#0600F4"/>
<path d="M331.979 38.9734C331.979 33.0154 337.068 28.8025 342.151 28.8025C344.223 28.8025 346.46 29.3994 348.176 31.1523C349.878 29.3963 352.093 28.7718 354.222 28.8026C359.277 28.8757 364.377 33.0022 364.377 38.9734C364.377 48.0431 355.683 54.5662 348.178 58.3184C340.673 54.5662 331.979 48.0431 331.979 38.9734Z" fill="#0600F4"/>
<path d="M165.699 102.806C163.851 102.806 162.567 101.57 162.567 100.118C162.567 99.0983 162.867 98.4503 163.623 97.5503L166.071 94.5983H167.955L165.627 97.4423C165.759 97.3943 165.891 97.3823 166.023 97.3823C167.679 97.3823 168.843 98.4743 168.843 100.01C168.843 101.57 167.547 102.806 165.699 102.806ZM165.711 101.414C166.467 101.414 167.115 100.934 167.115 100.07C167.115 99.1463 166.467 98.6903 165.711 98.6903C164.955 98.6903 164.307 99.1103 164.307 100.058C164.307 100.934 164.955 101.414 165.711 101.414Z" fill="black" fill-opacity="0.6"/>
<path d="M180.701 94.0943L177.581 102.71H175.589L172.493 94.0943H174.461L176.645 100.586L178.877 94.0943H180.701Z" fill="black" fill-opacity="0.6"/>
<path d="M186.425 102.71L185.777 100.862H182.429L181.769 102.71H179.933L183.173 94.0943H185.165L188.381 102.71H186.425ZM184.121 96.0863L182.945 99.4103H185.273L184.121 96.0863Z" fill="black" fill-opacity="0.6"/>
<path d="M191.614 102.71H189.79V94.0943H193.162C195.334 94.0943 196.594 95.1023 196.594 96.8903C196.594 98.0543 195.874 98.9783 194.65 99.3863L196.87 102.71H194.698L192.754 99.6623H191.614V102.71ZM191.614 95.6063V98.1623H193.078C194.182 98.1623 194.77 97.7303 194.77 96.8903C194.77 96.0383 194.182 95.6063 193.078 95.6063H191.614Z" fill="black" fill-opacity="0.6"/>
<path d="M200.189 102.71H198.365V94.0943H200.189V102.71Z" fill="black" fill-opacity="0.6"/>
<path d="M208.071 102.71L207.423 100.862H204.075L203.415 102.71H201.579L204.819 94.0943H206.811L210.027 102.71H208.071ZM205.767 96.0863L204.591 99.4103H206.919L205.767 96.0863Z" fill="black" fill-opacity="0.6"/>
<path d="M217.053 102.71L213.105 96.6983V102.71H211.437V94.0943H213.405L217.161 99.8063V94.0943H218.841V102.71H217.053Z" fill="black" fill-opacity="0.6"/>
<path d="M224.824 102.71H223V95.7383H220.288V94.0943H227.548V95.7383H224.824V102.71Z" fill="black" fill-opacity="0.6"/>
<path d="M235.433 100.034C235.433 101.678 234.113 102.83 231.953 102.83C229.781 102.83 228.425 101.666 228.293 99.8423H230.141C230.189 100.79 230.801 101.402 231.917 101.402C232.841 101.402 233.501 100.994 233.501 100.298C233.501 99.7583 233.081 99.4343 232.349 99.2903L230.933 99.0143C229.625 98.7623 228.617 98.0543 228.617 96.6263C228.617 95.0903 229.973 93.9863 231.833 93.9863C233.765 93.9863 235.181 95.1143 235.301 96.9143H233.453C233.393 96.0143 232.769 95.4023 231.857 95.4023C230.969 95.4023 230.465 95.9063 230.465 96.5063C230.465 97.0943 231.005 97.3463 231.629 97.4663L233.105 97.7663C234.617 98.0663 235.433 98.7623 235.433 100.034Z" fill="black" fill-opacity="0.6"/>
</svg>
