<svg width="236" height="134" viewBox="0 0 236 134" fill="none" xmlns="http://www.w3.org/2000/svg">
<g clip-path="url(#clip0_895_592)">
<rect y="27.9525" width="108" height="48" rx="8" transform="rotate(-15 0 27.9525)" fill="white"/>
<path d="M30.4518 57.0629L25.203 37.474L16.5676 39.7878L17.7245 44.1055L21.3468 43.1349L25.4387 58.4062L30.4518 57.0629ZM30.9876 46.4527C32.7191 52.9148 36.4928 55.7549 41.5639 54.3961C46.635 53.0373 48.4831 48.6909 46.7516 42.2288C45.0123 35.7378 41.1729 32.8843 36.1598 34.2275C31.1466 35.5708 29.2484 39.9617 30.9876 46.4527ZM36.1167 45.0784C35.1461 41.4562 35.5879 39.1637 37.3555 38.6901C39.1232 38.2165 40.6442 39.9519 41.6225 43.6031C42.5931 47.2254 42.1358 49.4598 40.3682 49.9335C38.5426 50.4226 37.0873 48.7006 36.1167 45.0784ZM49.2402 41.562C50.9717 48.024 54.7454 50.8641 59.8165 49.5053C64.8876 48.1465 66.7357 43.8001 65.0042 37.338C63.2649 30.847 59.4255 27.9935 54.4124 29.3368C49.3992 30.68 47.501 35.0709 49.2402 41.562ZM54.3693 40.1876C53.3987 36.5654 53.8405 34.273 55.6081 33.7993C57.3758 33.3257 58.8968 35.0612 59.8751 38.7124C60.8457 42.3346 60.3884 44.5691 58.6208 45.0427C56.7952 45.5319 55.3399 43.8099 54.3693 40.1876ZM73.9287 37.2761C77.6379 36.2822 79.769 32.7606 78.8761 29.4282C77.9754 26.0668 74.3767 24.1116 70.6676 25.1054C66.9584 26.0993 64.8195 29.5919 65.7202 32.9533C66.6131 36.2858 70.2195 38.2699 73.9287 37.2761ZM81.3529 43.424L87.2895 20.8379L83.3775 21.8862L77.4409 44.4723L81.3529 43.424ZM72.9892 33.7698C71.6562 34.1269 70.1928 33.6494 69.7191 31.8818C69.2455 30.1142 70.2741 28.9689 71.6071 28.6117C72.9691 28.2468 74.3745 28.7398 74.8482 30.5075C75.3218 32.2751 74.3511 33.4048 72.9892 33.7698ZM94.6946 40.1287C98.4037 39.1348 100.535 35.6132 99.642 32.2808C98.7413 28.9194 95.1426 26.9641 91.4335 27.958C87.7243 28.9519 85.5854 32.4445 86.4861 35.8059C87.379 39.1383 90.9854 41.1225 94.6946 40.1287ZM93.7551 36.6224C92.4221 36.9795 90.9586 36.502 90.485 34.7344C90.0114 32.9667 91.04 31.8215 92.373 31.4643C93.7349 31.0994 95.1404 31.5924 95.6141 33.3601C96.0877 35.1277 95.117 36.2574 93.7551 36.6224Z" fill="black"/>
</g>
<g clip-path="url(#clip1_895_592)">
<rect x="116.392" y="55.2532" width="123" height="48" rx="8" transform="rotate(15 116.392 55.2532)" fill="white"/>
<path d="M145.176 77.936L139.671 76.4607L131.088 89.597L130.369 73.9683L124.428 72.3765L126.214 95.1548L132.183 96.7543L145.176 77.936ZM146.181 100.784C150.064 101.825 153.353 100.563 155.264 97.2551L150.309 95.9273C149.571 96.941 148.489 97.2721 147.098 96.8994C145.504 96.4723 144.841 95.2386 145.108 93.1983L155.685 96.0323C157.957 91.144 155.635 86.0182 150.477 84.6361C145.84 83.3938 141.57 85.8835 140.32 90.5489C139.024 95.3882 141.371 99.4956 146.181 100.784ZM149.383 88.2562C150.86 88.6522 151.574 89.9305 151.213 91.5108L145.997 90.1132C146.81 88.4677 147.905 87.8603 149.383 88.2562ZM162.837 105.279C167.271 106.467 171.059 104.5 172.689 100.154L167.415 98.7407C166.825 100.477 165.59 101.264 164.054 100.853C162.286 100.379 161.65 98.8111 162.279 96.4639C162.893 94.1746 164.264 93.1134 166.003 93.5793C167.51 93.983 168.237 95.327 167.865 97.0599L173.139 98.4731C173.869 94.01 171.458 90.2581 167.17 89.1089C162.678 87.9054 158.393 90.4531 157.15 95.0895C155.877 99.8419 158.2 104.036 162.837 105.279ZM184.848 105.648C184.204 105.848 183.367 105.841 182.556 105.624C181.194 105.259 180.743 104.393 181.147 102.886L182.42 98.1336L186.68 99.275L187.837 94.9573L183.577 93.8159L184.804 89.2374L179.849 87.9097L178.622 92.4882L175.724 91.7117L174.567 96.0294L177.465 96.8058L175.881 102.717C174.926 106.282 176.424 108.919 179.931 109.859C181.322 110.231 182.427 110.279 183.691 109.966L184.848 105.648ZM192.67 113.272C197.278 114.507 201.784 111.832 202.979 107.369C204.175 102.907 201.611 98.3374 197.003 97.1028C192.396 95.8682 187.89 98.5432 186.694 103.006C185.498 107.468 188.063 112.038 192.67 113.272ZM193.858 108.839C192.323 108.427 191.2 106.822 191.852 104.388C192.504 101.954 194.271 101.154 195.807 101.565C197.343 101.977 198.474 103.553 197.821 105.987C197.169 108.421 195.394 109.25 193.858 108.839ZM210.045 109.915C210.969 106.466 213.27 106.804 216.683 108.091L218.065 102.933C215.573 102.265 212.83 102.648 211.153 104.155L211.891 101.403L207.341 100.184L203.164 115.774L208.119 117.101L210.045 109.915Z" fill="black"/>
</g>
<g clip-path="url(#clip2_895_592)">
<rect width="24.8897" height="24.8898" rx="4.97795" transform="matrix(0.866025 -0.500001 0.499999 0.866026 42 67.4448)" fill="#EB632D"/>
<g clip-path="url(#clip3_895_592)">
<path d="M58.6249 65.75C60.262 64.8048 62.3665 65.386 63.4555 67.2721C65.6333 71.0442 62.8362 75.5332 61.9557 77.1193C60.1418 77.0888 54.8557 77.2667 52.6779 73.4945C51.589 71.6084 52.1584 69.4834 53.775 68.5501C54.7773 67.9714 55.9722 68 56.8222 68.2278C57.0499 67.3778 57.6226 66.3286 58.6249 65.75Z" fill="black"/>
</g>
</g>
<rect x="92.3398" y="89" width="24.4949" height="24.4949" rx="4.89898" transform="rotate(15 92.3398 89)" fill="#EB632D"/>
<g clip-path="url(#clip4_895_592)">
<path d="M105.088 99.3897C106.885 99.8712 107.945 101.74 107.391 103.81C106.281 107.951 101.211 109.128 99.4944 109.619C98.2534 108.336 94.4511 104.781 95.5605 100.641C96.1152 98.5703 97.9902 97.4878 99.7648 97.9633C100.865 98.2581 101.677 99.1095 102.11 99.8595C102.86 99.4265 103.988 99.0949 105.088 99.3897Z" fill="black"/>
</g>
<rect x="131.453" y="17" width="32.6599" height="32.6599" rx="6.53197" transform="rotate(15 131.453 17)" fill="#EB632D"/>
<g clip-path="url(#clip5_895_592)">
<path d="M148.451 30.8529C150.847 31.4949 152.261 33.9869 151.521 36.7472C150.042 42.268 143.281 43.8377 140.993 44.4924C139.338 42.7811 134.268 38.0415 135.747 32.5207C136.487 29.7604 138.987 28.317 141.353 28.951C142.82 29.344 143.902 30.4793 144.479 31.4793C145.479 30.9019 146.984 30.4598 148.451 30.8529Z" fill="black"/>
</g>
<defs>
<clipPath id="clip0_895_592">
<rect y="27.9525" width="108" height="48" rx="8" transform="rotate(-15 0 27.9525)" fill="white"/>
</clipPath>
<clipPath id="clip1_895_592">
<rect x="116.392" y="55.2532" width="123" height="48" rx="8" transform="rotate(15 116.392 55.2532)" fill="white"/>
</clipPath>
<clipPath id="clip2_895_592">
<rect width="24.8897" height="24.8898" rx="4.97795" transform="matrix(0.866025 -0.500001 0.499999 0.866026 42 67.4448)" fill="white"/>
</clipPath>
<clipPath id="clip3_895_592">
<rect width="14.9338" height="14.9339" fill="white" transform="matrix(0.866025 -0.500001 0.499999 0.866026 48.8 69.2668)"/>
</clipPath>
<clipPath id="clip4_895_592">
<rect width="14.6969" height="14.6969" fill="white" transform="translate(95.804 95) rotate(15)"/>
</clipPath>
<clipPath id="clip5_895_592">
<rect width="19.5959" height="19.5959" fill="white" transform="translate(136.072 25) rotate(15)"/>
</clipPath>
</defs>
</svg>
