<svg width="39" height="39" viewBox="0 0 39 39" fill="none" xmlns="http://www.w3.org/2000/svg">
<path d="M37.5 10.9688C37.5 12.6184 36.0423 14.5597 32.6439 16.1772C29.3577 17.7413 24.7123 18.75 19.5 18.75C14.2877 18.75 9.64232 17.7413 6.35607 16.1772C2.95772 14.5597 1.5 12.6184 1.5 10.9688C1.5 9.31908 2.95772 7.37781 6.35607 5.76033C9.64232 4.1962 14.2877 3.1875 19.5 3.1875C24.7123 3.1875 29.3577 4.1962 32.6439 5.76033C36.0423 7.37781 37.5 9.31908 37.5 10.9688Z" fill="black" stroke="black" stroke-width="3"/>
<path d="M37.5 12.6562C37.5 14.3059 36.0423 16.2472 32.6439 17.8647C29.3577 19.4288 24.7123 20.4375 19.5 20.4375C14.2877 20.4375 9.64232 19.4288 6.35607 17.8647C2.95772 16.2472 1.5 14.3059 1.5 12.6562C1.5 11.0066 2.95772 9.06531 6.35607 7.44783C9.64232 5.8837 14.2877 4.875 19.5 4.875C24.7123 4.875 29.3577 5.8837 32.6439 7.44783C36.0423 9.06531 37.5 11.0066 37.5 12.6562Z" fill="black" stroke="black" stroke-width="3"/>
<path d="M37.5 14.3438C37.5 15.9934 36.0423 17.9347 32.6439 19.5522C29.3577 21.1163 24.7123 22.125 19.5 22.125C14.2877 22.125 9.64232 21.1163 6.35607 19.5522C2.95772 17.9347 1.5 15.9934 1.5 14.3438C1.5 12.6941 2.95772 10.7528 6.35607 9.13533C9.64232 7.5712 14.2877 6.5625 19.5 6.5625C24.7123 6.5625 29.3577 7.5712 32.6439 9.13533C36.0423 10.7528 37.5 12.6941 37.5 14.3438Z" fill="black" stroke="black" stroke-width="3"/>
<path d="M37.5 16.0312C37.5 17.6809 36.0423 19.6222 32.6439 21.2397C29.3577 22.8038 24.7123 23.8125 19.5 23.8125C14.2877 23.8125 9.64232 22.8038 6.35607 21.2397C2.95772 19.6222 1.5 17.6809 1.5 16.0312C1.5 14.3816 2.95772 12.4403 6.35607 10.8228C9.64232 9.2587 14.2877 8.25 19.5 8.25C24.7123 8.25 29.3577 9.2587 32.6439 10.8228C36.0423 12.4403 37.5 14.3816 37.5 16.0312Z" fill="black" stroke="black" stroke-width="3"/>
<path d="M37.5 17.7188C37.5 19.3684 36.0423 21.3097 32.6439 22.9272C29.3577 24.4913 24.7123 25.5 19.5 25.5C14.2877 25.5 9.64232 24.4913 6.35607 22.9272C2.95772 21.3097 1.5 19.3684 1.5 17.7188C1.5 16.0691 2.95772 14.1278 6.35607 12.5103C9.64232 10.9462 14.2877 9.9375 19.5 9.9375C24.7123 9.9375 29.3577 10.9462 32.6439 12.5103C36.0423 14.1278 37.5 16.0691 37.5 17.7188Z" fill="black" stroke="black" stroke-width="3"/>
<path d="M37.5 19.7188C37.5 21.3684 36.0423 23.3097 32.6439 24.9272C29.3577 26.4913 24.7123 27.5 19.5 27.5C14.2877 27.5 9.64232 26.4913 6.35607 24.9272C2.95772 23.3097 1.5 21.3684 1.5 19.7188C1.5 18.0691 2.95772 16.1278 6.35607 14.5103C9.64232 12.9462 14.2877 11.9375 19.5 11.9375C24.7123 11.9375 29.3577 12.9462 32.6439 14.5103C36.0423 16.1278 37.5 18.0691 37.5 19.7188Z" fill="black" stroke="black" stroke-width="3"/>
<path d="M37.5 21.7188C37.5 23.3684 36.0423 25.3097 32.6439 26.9272C29.3577 28.4913 24.7123 29.5 19.5 29.5C14.2877 29.5 9.64232 28.4913 6.35607 26.9272C2.95772 25.3097 1.5 23.3684 1.5 21.7188C1.5 20.0691 2.95772 18.1278 6.35607 16.5103C9.64232 14.9462 14.2877 13.9375 19.5 13.9375C24.7123 13.9375 29.3577 14.9462 32.6439 16.5103C36.0423 18.1278 37.5 20.0691 37.5 21.7188Z" fill="black" stroke="black" stroke-width="3"/>
<path d="M37.5 23.7188C37.5 25.3684 36.0423 27.3097 32.6439 28.9272C29.3577 30.4913 24.7123 31.5 19.5 31.5C14.2877 31.5 9.64232 30.4913 6.35607 28.9272C2.95772 27.3097 1.5 25.3684 1.5 23.7188C1.5 22.0691 2.95772 20.1278 6.35607 18.5103C9.64232 16.9462 14.2877 15.9375 19.5 15.9375C24.7123 15.9375 29.3577 16.9462 32.6439 18.5103C36.0423 20.1278 37.5 22.0691 37.5 23.7188Z" fill="black" stroke="black" stroke-width="3"/>
<path d="M37.5 25.7188C37.5 27.3684 36.0423 29.3097 32.6439 30.9272C29.3577 32.4913 24.7123 33.5 19.5 33.5C14.2877 33.5 9.64232 32.4913 6.35607 30.9272C2.95772 29.3097 1.5 27.3684 1.5 25.7188C1.5 24.0691 2.95772 22.1278 6.35607 20.5103C9.64232 18.9462 14.2877 17.9375 19.5 17.9375C24.7123 17.9375 29.3577 18.9462 32.6439 20.5103C36.0423 22.1278 37.5 24.0691 37.5 25.7188Z" fill="black" stroke="black" stroke-width="3"/>
<path d="M37.5 27.7188C37.5 29.3684 36.0423 31.3097 32.6439 32.9272C29.3577 34.4913 24.7123 35.5 19.5 35.5C14.2877 35.5 9.64232 34.4913 6.35607 32.9272C2.95772 31.3097 1.5 29.3684 1.5 27.7188C1.5 26.0691 2.95772 24.1278 6.35607 22.5103C9.64232 20.9462 14.2877 19.9375 19.5 19.9375C24.7123 19.9375 29.3577 20.9462 32.6439 22.5103C36.0423 24.1278 37.5 26.0691 37.5 27.7188Z" fill="black" stroke="black" stroke-width="3"/>
<path d="M37.5 29.7188C37.5 31.3684 36.0423 33.3097 32.6439 34.9272C29.3577 36.4913 24.7123 37.5 19.5 37.5C14.2877 37.5 9.64232 36.4913 6.35607 34.9272C2.95772 33.3097 1.5 31.3684 1.5 29.7188C1.5 28.0691 2.95772 26.1278 6.35607 24.5103C9.64232 22.9462 14.2877 21.9375 19.5 21.9375C24.7123 21.9375 29.3577 22.9462 32.6439 24.5103C36.0423 26.1278 37.5 28.0691 37.5 29.7188Z" fill="black" stroke="black" stroke-width="3"/>
<path d="M37 9.28125C37 10.6265 35.7839 12.4414 32.4291 14.0382C29.2237 15.5639 24.6548 16.5625 19.5 16.5625C14.3452 16.5625 9.77635 15.5639 6.57095 14.0382C3.21609 12.4414 2 10.6265 2 9.28125C2 7.936 3.21609 6.12108 6.57095 4.5243C9.77635 2.99865 14.3452 2 19.5 2C24.6548 2 29.2237 2.99865 32.4291 4.5243C35.7839 6.12108 37 7.936 37 9.28125Z" fill="white" stroke="black" stroke-width="4"/>
</svg>
