<svg width="37" height="36" viewBox="0 0 37 36" fill="none" xmlns="http://www.w3.org/2000/svg">
<g clip-path="url(#clip0_895_632)">
<path d="M15.614 16.5C16.514 16.5 17.243 17.175 17.2265 18C17.2265 18.825 16.5155 19.5 15.614 19.5C14.729 19.5 14 18.825 14 18C14 17.175 14.7125 16.5 15.614 16.5ZM21.386 16.5C22.2875 16.5 23 17.175 23 18C23 18.825 22.2875 19.5 21.386 19.5C20.501 19.5 19.7735 18.825 19.7735 18C19.7735 17.175 20.4845 16.5 21.386 16.5ZM28.8365 3C30.581 3 32 4.449 32 6.2445V34.5L28.6835 31.5075L26.816 29.7435L24.8405 27.8685L25.6595 30.783H8.1635C6.419 30.783 5 29.334 5 27.5385V6.2445C5 4.449 6.419 3 8.1635 3H28.835H28.8365ZM22.8815 23.5695C26.291 23.46 27.6035 21.1755 27.6035 21.1755C27.6035 16.104 25.3805 11.9925 25.3805 11.9925C23.1605 10.293 21.0455 10.3395 21.0455 10.3395L20.8295 10.5915C23.453 11.4105 24.671 12.5925 24.671 12.5925C23.2386 11.7855 21.66 11.2715 20.027 11.0805C18.9912 10.9635 17.9449 10.9736 16.9115 11.1105C16.8185 11.1105 16.7405 11.127 16.649 11.142C16.109 11.19 14.7965 11.394 13.1465 12.135C12.5765 12.402 12.236 12.5925 12.236 12.5925C12.236 12.5925 13.517 11.3475 16.2935 10.5285L16.139 10.3395C16.139 10.3395 14.0255 10.293 11.804 11.994C11.804 11.994 9.5825 16.104 9.5825 21.1755C9.5825 21.1755 10.8785 23.4585 14.288 23.5695C14.288 23.5695 14.858 22.8615 15.323 22.263C13.3625 21.663 12.623 20.403 12.623 20.403C12.623 20.403 12.776 20.514 13.0535 20.6715C13.0685 20.6865 13.0835 20.703 13.115 20.718C13.1615 20.751 13.208 20.766 13.2545 20.7975C13.64 21.018 14.0255 21.1905 14.3795 21.333C15.0125 21.585 15.7685 21.837 16.649 22.011C17.968 22.2695 19.3241 22.2746 20.645 22.026C21.4144 21.8887 22.165 21.6616 22.8815 21.3495C23.4215 21.144 24.023 20.844 24.656 20.4195C24.656 20.4195 23.885 21.711 21.863 22.2945C22.3265 22.893 22.883 23.5695 22.883 23.5695H22.8815Z" fill="#3C3A98"/>
</g>
<defs>
<clipPath id="clip0_895_632">
<rect width="36" height="36" fill="white" transform="translate(0.5)"/>
</clipPath>
</defs>
</svg>
