<svg width="37" height="36" viewBox="0 0 37 36" fill="none" xmlns="http://www.w3.org/2000/svg">
<g clip-path="url(#clip0_895_629)">
<path d="M18.5 3C10.2155 3 3.5 9.7155 3.5 18C3.5 25.4865 8.9855 31.692 16.157 32.8185V22.335H12.347V18H16.157V14.6955C16.157 10.9365 18.395 8.8605 21.8225 8.8605C23.4635 8.8605 25.1795 9.153 25.1795 9.153V12.843H23.2895C21.425 12.843 20.8445 13.9995 20.8445 15.186V18H25.004L24.3395 22.335H20.8445V32.8185C28.0145 31.6935 33.5 25.485 33.5 18C33.5 9.7155 26.7845 3 18.5 3Z" fill="#3C3A98"/>
</g>
<defs>
<clipPath id="clip0_895_629">
<rect width="36" height="36" fill="white" transform="translate(0.5)"/>
</clipPath>
</defs>
</svg>
