<svg width="43" height="43" viewBox="0 0 43 43" fill="none" xmlns="http://www.w3.org/2000/svg">
<path d="M0 21.3262C0 12.4409 0 7.99827 2.26274 4.88387C2.99351 3.87805 3.87805 2.99351 4.88387 2.26274C7.99827 0 12.4409 0 21.3262 0V0C30.2115 0 34.6541 0 37.7685 2.26274C38.7743 2.99351 39.6588 3.87805 40.3896 4.88387C42.6524 7.99827 42.6524 12.4409 42.6524 21.3262V21.3262C42.6524 30.2115 42.6524 34.6541 40.3896 37.7685C39.6588 38.7743 38.7743 39.6588 37.7685 40.3896C34.6541 42.6524 30.2115 42.6524 21.3262 42.6524V42.6524C12.4409 42.6524 7.99827 42.6524 4.88387 40.3896C3.87805 39.6588 2.99351 38.7743 2.26274 37.7685C0 34.6541 0 30.2115 0 21.3262V21.3262Z" fill="#0600F4"/>
<path d="M22.6179 18.2122C22.1248 17.7211 21.6394 17.1746 21.2145 16.5941C20.7891 16.0129 20.4244 15.3975 20.1733 14.7692C19.8721 14.0152 19.7345 13.2426 19.8522 12.488C19.9761 11.6933 20.3832 10.9186 21.1803 10.2068" stroke="#F6684B" stroke-width="3.37727" stroke-miterlimit="10" stroke-linecap="round"/>
<path d="M21.0449 16.3268C20.6102 15.7215 20.3047 15.104 20.0482 14.4497C19.8673 13.9884 19.7973 13.3572 19.7973 12.9497" stroke="#F4B946" stroke-width="3.37727" stroke-miterlimit="10" stroke-linecap="round"/>
<path d="M15.0151 29.197C16.5687 31.6399 19.5688 32.7263 22.3719 32.366C25.6479 31.9495 27.9332 29.1689 27.6067 25.6227C27.3439 22.768 25.6146 21.0586 23.7756 19.3083C23.3303 18.8844 22.8785 18.4581 22.4395 18.0126C21.9356 17.5011 21.4395 16.9321 21.0054 16.3276" stroke="white" stroke-width="3.37727" stroke-miterlimit="10" stroke-linecap="round"/>
</svg>
