<svg width="167" height="247" viewBox="0 0 167 247" fill="none" xmlns="http://www.w3.org/2000/svg">
<path d="M165 11C161.035 27.848 133.227 91.5956 129.299 108.123C128.813 110.193 127.037 114.643 127.605 116.749C131.744 131.848 137.549 144.594 139.508 159.391C140.369 165.965 141.34 172.475 137.045 178.097C135.102 180.619 132.593 182.649 129.72 184.022C119.007 188.929 108.211 186.018 98.2856 182.035C87.1696 177.557 75.1471 169.252 71.6035 157.046C71.14 155.549 70.987 153.973 71.1538 152.414C71.3207 150.855 71.804 149.347 72.5741 147.982C75.669 142.616 80.9981 140.995 86.6935 141.645C92.7643 142.35 97.9285 145.445 102.26 149.776C103.935 151.452 105.611 153.137 107.296 154.812" stroke="black" stroke-width="3" stroke-linecap="round" stroke-linejoin="round"/>
<path d="M74.5 1.5C66 6.5 41.632 64.6379 40.966 66.5983C40.1053 68.7654 39.2812 70.9477 38.4938 73.1452C36.9829 77.3664 35.6278 81.6333 34.4924 85.9644C33.1463 91.2111 32.2948 96.6134 31.3791 101.933C30.0258 109.412 29.3273 116.995 29.2914 124.596C29.2914 125.511 26.5445 126.931 25.9127 127.343C21.2429 130.584 18.7889 135.071 17.3697 140.473C15.7193 147.394 15.1479 154.529 15.6757 161.625C16.1702 170.726 17.855 180.213 23.0833 187.867C26.81 193.361 32.4871 198.635 39.2995 194.616C41.0415 193.416 42.6664 192.055 44.1525 190.55" stroke="black" stroke-width="3" stroke-linecap="round" stroke-linejoin="round"/>
<path d="M84.917 198.773C86.7483 202.289 88.5796 205.787 90.4109 209.312C96.3901 220.904 102.699 232.377 113.824 239.895C121.79 245.27 130.535 246.872 139.884 242.788C147.044 239.657 150.963 231.306 143.812 222.726C140.213 218.404 135.012 215.282 130.205 212.123C123.329 207.6 117.926 202.179 116.562 193.728C116.392 191.594 116.392 189.451 116.562 187.318" stroke="black" stroke-width="3" stroke-linecap="round" stroke-linejoin="round"/>
<path d="M28.5679 110.412C20.6201 106.301 16.7835 107.198 12.0862 114.542C2.63667 129.43 -0.732932 145.39 4.38556 162.595C5.98795 167.998 9.15611 172.246 15.3734 173.134" stroke="black" stroke-width="3" stroke-linecap="round" stroke-linejoin="round"/>
<path d="M126.543 112.701C123.64 110.266 120.811 107.729 117.816 105.376C116.057 103.863 114.054 102.658 111.892 101.814C107.534 100.441 103.743 101.494 101.39 105.834C101.39 114.835 107.662 122.81 115.124 122.636C117.743 122.581 120.435 121.171 122.871 119.953C124.464 119.157 125.618 117.591 127.037 116.364" stroke="black" stroke-width="3" stroke-linecap="round" stroke-linejoin="round"/>
<path d="M29.978 124.605C34.3182 125.914 39.4001 125.914 41.5336 130.749C39.7663 135.245 37.6146 139.42 36.47 143.861C32.8074 157.944 35.7009 171.166 41.735 184.195C45.1504 191.521 50.3696 197.161 56.129 202.38C63.9579 209.467 74.3414 210.74 82.1702 201.062C83.0858 199.972 83.9008 199.533 84.9172 198.315C83.2598 191.374 82.042 184.031 80.4488 176.834C80.2051 175.474 80.168 174.084 80.3389 172.713" stroke="black" stroke-width="3" stroke-linecap="round" stroke-linejoin="round"/>
<path d="M66.6041 175.268C63.2437 162.147 60.0664 148.97 56.4587 135.895C54.3436 128.277 49.4265 126.436 42.3027 129.943" stroke="black" stroke-width="3" stroke-linecap="round" stroke-linejoin="round"/>
</svg>
