<svg width="1440" height="715" viewBox="0 0 1440 715" fill="none" xmlns="http://www.w3.org/2000/svg">
<path d="M1440 1.58533L-2.20537e-05 1.58528" stroke="#1F1F1F" stroke-opacity="0.8"/>
<path d="M1440 83.2267L-2.20537e-05 83.2266" stroke="#1F1F1F" stroke-opacity="0.8"/>
<path d="M1440 164.868L-2.20537e-05 164.868" stroke="#1F1F1F" stroke-opacity="0.8"/>
<path d="M1440 246.51L-2.20537e-05 246.51" stroke="#1F1F1F" stroke-opacity="0.8"/>
<path d="M1440 328.151L-2.20537e-05 328.151" stroke="#1F1F1F" stroke-opacity="0.8"/>
<path d="M1440 409.793L-2.20537e-05 409.793" stroke="#1F1F1F" stroke-opacity="0.8"/>
<path d="M1440 491.434L-2.20537e-05 491.434" stroke="#1F1F1F" stroke-opacity="0.8"/>
<path d="M1440 573.075L-2.20537e-05 573.075" stroke="#1F1F1F" stroke-opacity="0.8"/>
<path d="M1440 654.717L-2.20537e-05 654.717" stroke="#1F1F1F" stroke-opacity="0.8"/>
<path d="M100 0V715" stroke="#1F1F1F" stroke-opacity="0.8"/>
<path d="M203 0V715" stroke="#1F1F1F" stroke-opacity="0.8"/>
<path d="M306 0V715" stroke="#1F1F1F" stroke-opacity="0.8"/>
<path d="M409 0V715" stroke="#1F1F1F" stroke-opacity="0.8"/>
<path d="M512 0V715" stroke="#1F1F1F" stroke-opacity="0.8"/>
<path d="M615 0V715" stroke="#1F1F1F" stroke-opacity="0.8"/>
<path d="M718 0V715" stroke="#1F1F1F" stroke-opacity="0.8"/>
<path d="M821 0V715" stroke="#1F1F1F" stroke-opacity="0.8"/>
<path d="M924 0V715" stroke="#1F1F1F" stroke-opacity="0.8"/>
<path d="M1027 0V715" stroke="#1F1F1F" stroke-opacity="0.8"/>
<path d="M1130 0V715" stroke="#1F1F1F" stroke-opacity="0.8"/>
<path d="M1233 0V715" stroke="#1F1F1F" stroke-opacity="0.8"/>
<path d="M1336 0V715" stroke="#1F1F1F" stroke-opacity="0.8"/>
<g clip-path="url(#clip0_924_601)">
<g opacity="0.4">
<g opacity="0.6" filter="url(#filter0_f_924_601)">
<path d="M1019.8 -40.9453C969.738 -34.3628 930.592 -16.9402 915.048 4.31496C899.949 24.9609 914.623 46.7445 942.43 64.8526C969.963 82.783 1010.75 97.631 1060.99 99.3544C1110.15 101.041 1152.95 88.2094 1187.49 73.2607C1222.08 58.2952 1252.64 39.8219 1246.68 19.0059C1240.7 -1.82987 1200.51 -16.6108 1158.55 -27.6994C1116.2 -38.8894 1067.44 -47.2091 1019.8 -40.9453Z" fill="url(#paint0_linear_924_601)"/>
</g>
<g opacity="0.9" filter="url(#filter1_f_924_601)">
<path d="M723.072 -166.419C652.378 -157.848 613.095 -126.57 573.408 -98.5625C536.26 -72.3466 499.957 -44.83 506.777 -13.7772C514.024 19.2114 553.082 48.9874 610.313 69.4529C670.407 90.9423 745.395 102.875 821.219 98.6655C900.469 94.266 980.252 77.8343 1021.34 46.6365C1060.46 16.9272 1035.59 -19.3134 1021.42 -53.3564C1007.7 -86.3425 998.946 -121.819 942.302 -143.284C882.344 -166.006 798.43 -175.554 723.072 -166.419Z" fill="url(#paint1_linear_924_601)"/>
</g>
<g filter="url(#filter2_f_924_601)">
<path opacity="0.6" d="M542.877 -52.3161C503.932 -51.0152 464.085 -37.2279 447.886 -15.7322C433.064 3.93385 455.396 25.3852 469.32 45.2912C478.816 58.8647 492.852 70.6371 513.655 78.2875C532.435 85.1942 554.302 83.4909 576.196 84.5961C610.274 86.3154 647.98 99.2476 674.833 86.4211C703.605 72.6782 709.602 46.2236 701.974 24.5142C694.698 3.81446 664.034 -8.84712 636.716 -22.0397C607.907 -35.951 579.664 -53.5453 542.877 -52.3161Z" fill="#0500FF"/>
</g>
<g opacity="0.9" filter="url(#filter3_f_924_601)">
<path opacity="0.6" d="M339.407 -73.2487C283.144 -61.9773 230.686 -33.3299 215.869 0.148616C202.316 30.7784 243.67 54.8119 272.136 78.7692C291.546 95.1073 316.839 107.863 350.313 113.308C380.53 118.224 411.72 110.559 444.101 106.744C494.502 100.808 554.79 109.394 588.692 85.2317C625.016 59.3424 622.923 21.5356 602.9 -6.43361C583.808 -33.1014 533.9 -43.0298 488.657 -54.5023C440.945 -66.5999 392.548 -83.895 339.407 -73.2487Z" fill="url(#paint2_linear_924_601)"/>
</g>
</g>
</g>
<g clip-path="url(#clip1_924_601)">
<path d="M100 545L100.594 572.406L128 573L100.594 573.594L100 601L99.4061 573.594L72 573L99.4061 572.406L100 545Z" fill="url(#paint3_radial_924_601)"/>
</g>
<g clip-path="url(#clip2_924_601)">
<path d="M1336 482L1336.19 490.809L1345 491L1336.19 491.191L1336 500L1335.81 491.191L1327 491L1335.81 490.809L1336 482Z" fill="url(#paint4_radial_924_601)"/>
</g>
<path d="M1233 147L1233.38 164.618L1251 165L1233.38 165.382L1233 183L1232.62 165.382L1215 165L1232.62 164.618L1233 147Z" fill="url(#paint5_radial_924_601)"/>
<defs>
<filter id="filter0_f_924_601" x="769" y="-183.097" width="618.425" height="422.601" filterUnits="userSpaceOnUse" color-interpolation-filters="sRGB">
<feFlood flood-opacity="0" result="BackgroundImageFix"/>
<feBlend mode="normal" in="SourceGraphic" in2="BackgroundImageFix" result="shape"/>
<feGaussianBlur stdDeviation="70" result="effect1_foregroundBlur_924_601"/>
</filter>
<filter id="filter1_f_924_601" x="305.946" y="-369.854" width="936.404" height="669.358" filterUnits="userSpaceOnUse" color-interpolation-filters="sRGB">
<feFlood flood-opacity="0" result="BackgroundImageFix"/>
<feBlend mode="normal" in="SourceGraphic" in2="BackgroundImageFix" result="shape"/>
<feGaussianBlur stdDeviation="100" result="effect1_foregroundBlur_924_601"/>
</filter>
<filter id="filter2_f_924_601" x="283" y="-212.377" width="582" height="464.411" filterUnits="userSpaceOnUse" color-interpolation-filters="sRGB">
<feFlood flood-opacity="0" result="BackgroundImageFix"/>
<feBlend mode="normal" in="SourceGraphic" in2="BackgroundImageFix" result="shape"/>
<feGaussianBlur stdDeviation="80" result="effect1_foregroundBlur_924_601"/>
</filter>
<filter id="filter3_f_924_601" x="13.2155" y="-276.571" width="803.958" height="591.474" filterUnits="userSpaceOnUse" color-interpolation-filters="sRGB">
<feFlood flood-opacity="0" result="BackgroundImageFix"/>
<feBlend mode="normal" in="SourceGraphic" in2="BackgroundImageFix" result="shape"/>
<feGaussianBlur stdDeviation="100" result="effect1_foregroundBlur_924_601"/>
</filter>
<linearGradient id="paint0_linear_924_601" x1="1012.46" y1="7.23253" x2="1317.08" y2="190.675" gradientUnits="userSpaceOnUse">
<stop stop-color="#FFE8C7"/>
<stop offset="1" stop-color="#FFCD1B"/>
</linearGradient>
<linearGradient id="paint1_linear_924_601" x1="731.257" y1="-13.1648" x2="1126.41" y2="226.835" gradientUnits="userSpaceOnUse">
<stop stop-color="#FF0099"/>
<stop offset="1" stop-color="#FFD600"/>
</linearGradient>
<linearGradient id="paint2_linear_924_601" x1="257.683" y1="30.35" x2="531.89" y2="-0.483256" gradientUnits="userSpaceOnUse">
<stop stop-color="#99FFF3"/>
<stop offset="1" stop-color="#0038FF"/>
</linearGradient>
<radialGradient id="paint3_radial_924_601" cx="0" cy="0" r="1" gradientUnits="userSpaceOnUse" gradientTransform="translate(100 573) rotate(90) scale(28)">
<stop stop-color="white"/>
<stop offset="1" stop-color="white" stop-opacity="0"/>
</radialGradient>
<radialGradient id="paint4_radial_924_601" cx="0" cy="0" r="1" gradientUnits="userSpaceOnUse" gradientTransform="translate(1336 491) rotate(90) scale(9)">
<stop stop-color="white"/>
<stop offset="1" stop-color="white" stop-opacity="0"/>
</radialGradient>
<radialGradient id="paint5_radial_924_601" cx="0" cy="0" r="1" gradientUnits="userSpaceOnUse" gradientTransform="translate(1233 165) rotate(90) scale(18)">
<stop stop-color="white"/>
<stop offset="1" stop-color="white" stop-opacity="0"/>
</radialGradient>
<clipPath id="clip0_924_601">
<rect width="1440" height="501.323" fill="white" transform="matrix(-1 0 0 1 1440 -6.10352e-05)"/>
</clipPath>
<clipPath id="clip1_924_601">
<rect width="56" height="56" fill="white" transform="translate(72 545)"/>
</clipPath>
<clipPath id="clip2_924_601">
<rect width="18" height="18" fill="white" transform="translate(1327 482)"/>
</clipPath>
</defs>
</svg>
