<svg width="37" height="36" viewBox="0 0 37 36" fill="none" xmlns="http://www.w3.org/2000/svg">
<g clip-path="url(#clip0_895_635)">
<path d="M18.5 3C22.5755 3 23.084 3.015 24.683 3.09C26.2805 3.165 27.368 3.4155 28.325 3.7875C29.315 4.1685 30.149 4.6845 30.983 5.517C31.7457 6.26684 32.3359 7.17388 32.7125 8.175C33.083 9.1305 33.335 10.2195 33.41 11.817C33.4805 13.416 33.5 13.9245 33.5 18C33.5 22.0755 33.485 22.584 33.41 24.183C33.335 25.7805 33.083 26.868 32.7125 27.825C32.337 28.8267 31.7467 29.7339 30.983 30.483C30.2329 31.2455 29.326 31.8356 28.325 32.2125C27.3695 32.583 26.2805 32.835 24.683 32.91C23.084 32.9805 22.5755 33 18.5 33C14.4245 33 13.916 32.985 12.317 32.91C10.7195 32.835 9.632 32.583 8.675 32.2125C7.67349 31.8367 6.76629 31.2464 6.017 30.483C5.25411 29.7333 4.6639 28.8262 4.2875 27.825C3.9155 26.8695 3.665 25.7805 3.59 24.183C3.5195 22.584 3.5 22.0755 3.5 18C3.5 13.9245 3.515 13.416 3.59 11.817C3.665 10.218 3.9155 9.132 4.2875 8.175C4.66285 7.17327 5.25321 6.26598 6.017 5.517C6.76651 4.75385 7.67364 4.16359 8.675 3.7875C9.632 3.4155 10.718 3.165 12.317 3.09C13.916 3.0195 14.4245 3 18.5 3ZM18.5 10.5C16.5109 10.5 14.6032 11.2902 13.1967 12.6967C11.7902 14.1032 11 16.0109 11 18C11 19.9891 11.7902 21.8968 13.1967 23.3033C14.6032 24.7098 16.5109 25.5 18.5 25.5C20.4891 25.5 22.3968 24.7098 23.8033 23.3033C25.2098 21.8968 26 19.9891 26 18C26 16.0109 25.2098 14.1032 23.8033 12.6967C22.3968 11.2902 20.4891 10.5 18.5 10.5ZM28.25 10.125C28.25 9.62772 28.0525 9.15081 27.7008 8.79918C27.3492 8.44755 26.8723 8.25 26.375 8.25C25.8777 8.25 25.4008 8.44755 25.0492 8.79918C24.6975 9.15081 24.5 9.62772 24.5 10.125C24.5 10.6223 24.6975 11.0992 25.0492 11.4508C25.4008 11.8025 25.8777 12 26.375 12C26.8723 12 27.3492 11.8025 27.7008 11.4508C28.0525 11.0992 28.25 10.6223 28.25 10.125ZM18.5 13.5C19.6935 13.5 20.8381 13.9741 21.682 14.818C22.5259 15.6619 23 16.8065 23 18C23 19.1935 22.5259 20.3381 21.682 21.182C20.8381 22.0259 19.6935 22.5 18.5 22.5C17.3065 22.5 16.1619 22.0259 15.318 21.182C14.4741 20.3381 14 19.1935 14 18C14 16.8065 14.4741 15.6619 15.318 14.818C16.1619 13.9741 17.3065 13.5 18.5 13.5Z" fill="#3C3A98"/>
</g>
<defs>
<clipPath id="clip0_895_635">
<rect width="36" height="36" fill="white" transform="translate(0.5)"/>
</clipPath>
</defs>
</svg>
