<svg width="211" height="43" viewBox="0 0 211 43" fill="none" xmlns="http://www.w3.org/2000/svg">
<path d="M0 21.3262C0 12.4409 0 7.99827 2.26274 4.88387C2.99351 3.87805 3.87805 2.99351 4.88387 2.26274C7.99827 0 12.4409 0 21.3262 0V0C30.2115 0 34.6541 0 37.7685 2.26274C38.7743 2.99351 39.6588 3.87805 40.3896 4.88387C42.6524 7.99827 42.6524 12.4409 42.6524 21.3262V21.3262C42.6524 30.2115 42.6524 34.6541 40.3896 37.7685C39.6588 38.7743 38.7743 39.6588 37.7685 40.3896C34.6541 42.6524 30.2115 42.6524 21.3262 42.6524V42.6524C12.4409 42.6524 7.99827 42.6524 4.88387 40.3896C3.87805 39.6588 2.99351 38.7743 2.26274 37.7685C0 34.6541 0 30.2115 0 21.3262V21.3262Z" fill="#0600F4"/>
<path d="M22.6179 18.2122C22.1248 17.7211 21.6394 17.1746 21.2145 16.5941C20.7891 16.0129 20.4244 15.3975 20.1733 14.7692C19.8721 14.0152 19.7345 13.2426 19.8522 12.488C19.9761 11.6933 20.3832 10.9186 21.1803 10.2068" stroke="#F6684B" stroke-width="3.37727" stroke-miterlimit="10" stroke-linecap="round"/>
<path d="M21.0449 16.3268C20.6102 15.7215 20.3047 15.104 20.0482 14.4497C19.8673 13.9884 19.7973 13.3572 19.7973 12.9497" stroke="#F4B946" stroke-width="3.37727" stroke-miterlimit="10" stroke-linecap="round"/>
<path d="M15.0151 29.197C16.5687 31.6399 19.5688 32.7263 22.3719 32.366C25.6479 31.9495 27.9332 29.1689 27.6067 25.6227C27.3439 22.768 25.6146 21.0586 23.7756 19.3083C23.3303 18.8844 22.8785 18.4581 22.4395 18.0126C21.9356 17.5011 21.4395 16.9321 21.0054 16.3276" stroke="white" stroke-width="3.37727" stroke-miterlimit="10" stroke-linecap="round"/>
<path d="M65.2283 13.5821H67.9883V29.6141H65.2283V18.3101L61.3643 27.0461H59.2043L55.4123 18.4541V29.6141H52.6523V13.5821L55.4123 13.6061L60.2843 24.6461L65.2283 13.5821Z" fill="#060530"/>
<path d="M77.0185 17.5901C78.5385 17.5901 79.8345 18.1341 80.9065 19.2221C81.9945 20.2941 82.5385 21.5901 82.5385 23.1101V24.2141C82.5385 25.7341 81.9945 27.0381 80.9065 28.1261C79.8345 29.1981 78.5385 29.7341 77.0185 29.7341H76.5625C75.0425 29.7341 73.7385 29.1981 72.6505 28.1261C71.5785 27.0381 71.0425 25.7341 71.0425 24.2141V23.1101C71.0425 21.5901 71.5785 20.2941 72.6505 19.2221C73.7385 18.1341 75.0425 17.5901 76.5625 17.5901H77.0185ZM79.7785 24.1421V23.1581C79.7785 22.3741 79.5065 21.7101 78.9625 21.1661C78.4185 20.6221 77.7545 20.3501 76.9705 20.3501H76.6345C75.8505 20.3501 75.1785 20.6221 74.6185 21.1661C74.0745 21.7101 73.8025 22.3741 73.8025 23.1581V24.1421C73.8025 24.9261 74.0745 25.5981 74.6185 26.1581C75.1785 26.7021 75.8505 26.9741 76.6345 26.9741H76.9705C77.7545 26.9741 78.4185 26.7021 78.9625 26.1581C79.5065 25.5981 79.7785 24.9261 79.7785 24.1421Z" fill="#060530"/>
<path d="M91.3268 17.5661C92.7188 17.5661 93.7268 17.9581 94.3508 18.7421C94.9748 19.5261 95.2868 20.4701 95.2868 21.5741V29.4701H92.5268V22.6301C92.5268 22.0061 92.3188 21.5261 91.9028 21.1901C91.5028 20.8541 91.0228 20.6861 90.4628 20.6861C89.8708 20.6861 89.3508 20.8621 88.9028 21.2141C88.4708 21.5501 88.2548 22.0221 88.2548 22.6301V29.4701H85.4948V17.8541H88.2548V18.2141C87.9028 18.6621 87.6708 18.9581 87.5588 19.1021C87.2868 19.4861 87.1508 19.8861 87.1508 20.3021V20.7101C87.1828 20.6301 87.2228 20.5181 87.2708 20.3741C87.3348 20.2301 87.4788 19.9821 87.7028 19.6301C87.9428 19.2621 88.2068 18.9421 88.4948 18.6701C88.7988 18.3821 89.1988 18.1261 89.6948 17.9021C90.2068 17.6781 90.7508 17.5661 91.3268 17.5661Z" fill="#060530"/>
<path d="M104.602 22.5101L109.378 29.4701H106.042L102.61 24.5021L101.338 25.7981V29.4701H98.5777V13.4621H101.338V20.4701C101.338 20.9181 101.17 21.3101 100.834 21.6461C100.514 21.9661 100.266 22.1981 100.09 22.3421C99.7857 22.6141 99.6337 22.9421 99.6337 23.3261V23.5901L105.346 17.8541H109.258L104.602 22.5101Z" fill="#060530"/>
<path d="M122.068 22.9661V24.6221H113.38C113.492 25.2941 113.804 25.8621 114.316 26.3261C114.844 26.7741 115.46 26.9981 116.164 26.9981H116.5C117.364 26.9981 118.068 26.6701 118.612 26.0141L121.468 26.7341C121.004 27.6461 120.332 28.3821 119.452 28.9421C118.572 29.4861 117.604 29.7581 116.548 29.7581H116.092C114.572 29.7581 113.268 29.2221 112.18 28.1501C111.108 27.0621 110.572 25.7581 110.572 24.2381V23.1341C110.572 21.6141 111.108 20.3181 112.18 19.2461C113.268 18.1581 114.572 17.6141 116.092 17.6141H116.548C118.052 17.6141 119.332 18.1341 120.388 19.1741C121.46 20.2141 122.02 21.4781 122.068 22.9661ZM113.356 22.9661H119.308C119.228 22.2461 118.916 21.6381 118.372 21.1421C117.844 20.6301 117.22 20.3741 116.5 20.3741H116.164C115.428 20.3741 114.788 20.6301 114.244 21.1421C113.716 21.6381 113.42 22.2461 113.356 22.9661Z" fill="#060530"/>
<path d="M132.664 17.8541H135.568L131.344 30.3821C131.056 31.2461 130.552 31.9501 129.832 32.4941C129.112 33.0541 128.304 33.3581 127.408 33.4061L125.608 33.5021L125.512 30.8141L126.832 30.7181C127.68 30.6701 128.296 30.2541 128.68 29.4701H127.648L123.76 17.8541H126.664L129.088 25.0781C129.296 25.6861 129.4 26.3341 129.4 27.0221V28.4381H129.952V26.9261C129.952 26.2701 130.064 25.6221 130.288 24.9821L132.664 17.8541Z" fill="#060530"/>
<path d="M143.246 15.6221C142.622 15.6221 142.134 15.8141 141.782 16.1981C141.43 16.5661 141.254 17.0541 141.254 17.6621V17.8541H143.438V19.5341H141.254V29.4941H138.494V19.5341H137.39V17.8541H138.494V17.6141C138.494 16.1581 138.87 15.0541 139.622 14.3021C140.39 13.5501 141.494 13.1741 142.934 13.1741L144.806 13.1501V15.6221H143.246Z" fill="#060530"/>
<path d="M151.702 17.5661C151.734 17.5661 151.79 17.5661 151.87 17.5661C151.95 17.5661 152.022 17.5661 152.086 17.5661L152.206 17.5901C151.486 19.5421 151.11 20.5661 151.078 20.6621C150.454 20.5021 149.886 20.6381 149.374 21.0701C148.878 21.4861 148.63 22.0061 148.63 22.6301V29.4701H145.87V17.8541H148.63V18.2141C148.278 18.6621 148.046 18.9581 147.934 19.1021C147.662 19.4861 147.526 19.8861 147.526 20.3021V20.7101C147.558 20.6301 147.598 20.5181 147.646 20.3741C147.71 20.2301 147.854 19.9821 148.078 19.6301C148.318 19.2621 148.582 18.9421 148.87 18.6701C149.174 18.3821 149.574 18.1261 150.07 17.9021C150.582 17.6781 151.126 17.5661 151.702 17.5661Z" fill="#060530"/>
<path d="M162.264 17.8541H165.024V29.4701H162.288V29.0861C163.12 28.3821 163.536 27.7501 163.536 27.1901V26.7101C163.504 26.7901 163.448 26.9021 163.368 27.0461C163.288 27.1741 163.112 27.4141 162.84 27.7661C162.568 28.1181 162.272 28.4301 161.952 28.7021C161.648 28.9741 161.232 29.2221 160.704 29.4461C160.176 29.6541 159.624 29.7581 159.048 29.7581C157.528 29.7581 156.224 29.2221 155.136 28.1501C154.064 27.0621 153.528 25.7581 153.528 24.2381V23.1341C153.528 21.6141 154.064 20.3181 155.136 19.2461C156.224 18.1581 157.528 17.6141 159.048 17.6141C160.376 17.6141 161.448 18.0061 162.264 18.7901V17.8541ZM162.264 24.1661V23.2061C162.264 22.4221 161.992 21.7581 161.448 21.2141C160.904 20.6541 160.24 20.3741 159.456 20.3741H159.12C158.336 20.3741 157.664 20.6541 157.104 21.2141C156.56 21.7581 156.288 22.4221 156.288 23.2061V24.1661C156.288 24.9501 156.56 25.6221 157.104 26.1821C157.664 26.7261 158.336 26.9981 159.12 26.9981H159.456C160.24 26.9981 160.904 26.7261 161.448 26.1821C161.992 25.6221 162.264 24.9501 162.264 24.1661Z" fill="#060530"/>
<path d="M180.498 17.5661C181.682 17.5661 182.594 17.9341 183.234 18.6701C183.89 19.3901 184.218 20.2541 184.218 21.2621V29.4701H181.482V22.3181C181.482 21.7101 181.306 21.2461 180.954 20.9261C180.602 20.5901 180.178 20.4221 179.682 20.4221C179.17 20.4221 178.714 20.6061 178.314 20.9741C177.93 21.3261 177.738 21.8141 177.738 22.4381V29.4701H174.93V22.3181C174.93 21.7741 174.746 21.3501 174.378 21.0461C174.026 20.7261 173.602 20.5661 173.106 20.5661C172.578 20.5661 172.122 20.7341 171.738 21.0701C171.37 21.3901 171.186 21.8541 171.186 22.4621V29.4701H168.426V17.8541H171.186V18.2141C170.834 18.6621 170.602 18.9581 170.49 19.1021C170.218 19.4861 170.082 19.8861 170.082 20.3021V20.7101C170.114 20.6301 170.162 20.5181 170.226 20.3741C170.29 20.2301 170.434 19.9821 170.658 19.6301C170.882 19.2621 171.13 18.9421 171.402 18.6701C171.674 18.3821 172.042 18.1261 172.506 17.9021C172.97 17.6781 173.458 17.5661 173.97 17.5661C174.402 17.5661 174.778 17.5981 175.098 17.6621C175.434 17.7261 175.706 17.8381 175.914 17.9981C176.138 18.1421 176.306 18.2621 176.418 18.3581C176.53 18.4381 176.658 18.5821 176.802 18.7901C176.946 18.9821 177.026 19.0861 177.042 19.1021C176.77 19.4861 176.634 19.8861 176.634 20.3021V20.7101C176.666 20.6301 176.706 20.5181 176.754 20.3741C176.818 20.2301 176.962 19.9821 177.186 19.6301C177.41 19.2621 177.658 18.9421 177.93 18.6701C178.202 18.3821 178.57 18.1261 179.034 17.9021C179.498 17.6781 179.986 17.5661 180.498 17.5661Z" fill="#060530"/>
<path d="M198.573 22.9661V24.6221H189.885C189.997 25.2941 190.309 25.8621 190.821 26.3261C191.349 26.7741 191.965 26.9981 192.669 26.9981H193.005C193.869 26.9981 194.573 26.6701 195.117 26.0141L197.973 26.7341C197.509 27.6461 196.837 28.3821 195.957 28.9421C195.077 29.4861 194.109 29.7581 193.053 29.7581H192.597C191.077 29.7581 189.773 29.2221 188.685 28.1501C187.613 27.0621 187.077 25.7581 187.077 24.2381V23.1341C187.077 21.6141 187.613 20.3181 188.685 19.2461C189.773 18.1581 191.077 17.6141 192.597 17.6141H193.053C194.557 17.6141 195.837 18.1341 196.893 19.1741C197.965 20.2141 198.525 21.4781 198.573 22.9661ZM189.861 22.9661H195.813C195.733 22.2461 195.421 21.6381 194.877 21.1421C194.349 20.6301 193.725 20.3741 193.005 20.3741H192.669C191.933 20.3741 191.293 20.6301 190.749 21.1421C190.221 21.6381 189.925 22.2461 189.861 22.9661Z" fill="#060530"/>
<path d="M205.707 22.6301C207.259 23.1101 208.315 23.5341 208.875 23.9021C209.867 24.5581 210.363 25.4141 210.363 26.4701C210.363 27.3821 209.899 28.1501 208.971 28.7741C208.043 29.3821 206.939 29.6861 205.659 29.6861C203.851 29.6861 202.315 29.1421 201.051 28.0541L202.059 25.4861C202.571 25.9821 203.251 26.3901 204.099 26.7101C204.947 27.0301 205.731 27.1901 206.451 27.1901C207.267 27.1901 207.803 26.9741 208.059 26.5421C208.203 26.2861 208.219 26.0381 208.107 25.7981C207.995 25.5581 207.683 25.3021 207.171 25.0301C206.659 24.7581 205.947 24.4861 205.035 24.2141C202.011 23.3181 200.691 21.9421 201.075 20.0861C201.203 19.3821 201.643 18.7901 202.395 18.3101C203.163 17.8141 204.075 17.5661 205.131 17.5661C205.995 17.5661 206.811 17.6621 207.579 17.8541C208.363 18.0461 208.931 18.2381 209.283 18.4301L209.787 18.7181L208.827 21.2861L208.563 21.1661C208.371 21.0701 208.139 20.9661 207.867 20.8541C207.611 20.7421 207.323 20.6301 207.003 20.5181C206.699 20.4061 206.371 20.3101 206.019 20.2301C205.667 20.1501 205.355 20.1101 205.083 20.1101C204.523 20.1101 204.139 20.2781 203.931 20.6141C203.675 21.0141 203.723 21.3901 204.075 21.7421C204.443 22.0941 204.987 22.3901 205.707 22.6301Z" fill="#060530"/>
</svg>
