<svg width="162" height="23" viewBox="0 0 162 23" fill="none" xmlns="http://www.w3.org/2000/svg">
<path d="M14.576 1.432H17.336V17.464H14.576V6.16L10.712 14.896H8.552L4.76 6.304V17.464H2V1.432L4.76 1.456L9.632 12.496L14.576 1.432Z" fill="#060530"/>
<path d="M26.3662 5.44C27.8862 5.44 29.1822 5.984 30.2542 7.072C31.3422 8.144 31.8862 9.44 31.8862 10.96V12.064C31.8862 13.584 31.3422 14.888 30.2542 15.976C29.1822 17.048 27.8862 17.584 26.3662 17.584H25.9102C24.3902 17.584 23.0862 17.048 21.9982 15.976C20.9262 14.888 20.3902 13.584 20.3902 12.064V10.96C20.3902 9.44 20.9262 8.144 21.9982 7.072C23.0862 5.984 24.3902 5.44 25.9102 5.44H26.3662ZM29.1262 11.992V11.008C29.1262 10.224 28.8542 9.56 28.3102 9.016C27.7662 8.472 27.1022 8.2 26.3182 8.2H25.9822C25.1982 8.2 24.5262 8.472 23.9662 9.016C23.4222 9.56 23.1502 10.224 23.1502 11.008V11.992C23.1502 12.776 23.4222 13.448 23.9662 14.008C24.5262 14.552 25.1982 14.824 25.9822 14.824H26.3182C27.1022 14.824 27.7662 14.552 28.3102 14.008C28.8542 13.448 29.1262 12.776 29.1262 11.992Z" fill="#060530"/>
<path d="M40.6745 5.416C42.0665 5.416 43.0745 5.808 43.6985 6.592C44.3225 7.376 44.6345 8.32 44.6345 9.424V17.32H41.8745V10.48C41.8745 9.856 41.6665 9.376 41.2505 9.04C40.8505 8.704 40.3705 8.536 39.8105 8.536C39.2185 8.536 38.6985 8.712 38.2505 9.064C37.8185 9.4 37.6025 9.872 37.6025 10.48V17.32H34.8425V5.704H37.6025V6.064C37.2505 6.512 37.0185 6.808 36.9065 6.952C36.6345 7.336 36.4985 7.736 36.4985 8.152V8.56C36.5305 8.48 36.5705 8.368 36.6185 8.224C36.6825 8.08 36.8265 7.832 37.0505 7.48C37.2905 7.112 37.5545 6.792 37.8425 6.52C38.1465 6.232 38.5465 5.976 39.0425 5.752C39.5545 5.528 40.0985 5.416 40.6745 5.416Z" fill="#060530"/>
<path d="M53.9493 10.36L58.7253 17.32H55.3893L51.9573 12.352L50.6853 13.648V17.32H47.9253V1.312H50.6853V8.32C50.6853 8.768 50.5173 9.16 50.1813 9.496C49.8613 9.816 49.6133 10.048 49.4373 10.192C49.1333 10.464 48.9813 10.792 48.9813 11.176V11.44L54.6933 5.704H58.6053L53.9493 10.36Z" fill="#060530"/>
<path d="M71.4159 10.816V12.472H62.7279C62.8399 13.144 63.1519 13.712 63.6639 14.176C64.1919 14.624 64.8079 14.848 65.5119 14.848H65.8479C66.7119 14.848 67.4159 14.52 67.9599 13.864L70.8159 14.584C70.3519 15.496 69.6799 16.232 68.7999 16.792C67.9199 17.336 66.9519 17.608 65.8959 17.608H65.4399C63.9199 17.608 62.6159 17.072 61.5279 16C60.4559 14.912 59.9199 13.608 59.9199 12.088V10.984C59.9199 9.464 60.4559 8.168 61.5279 7.096C62.6159 6.008 63.9199 5.464 65.4399 5.464H65.8959C67.3999 5.464 68.6799 5.984 69.7359 7.024C70.8079 8.064 71.3679 9.328 71.4159 10.816ZM62.7039 10.816H68.6559C68.5759 10.096 68.2639 9.488 67.7199 8.992C67.1919 8.48 66.5679 8.224 65.8479 8.224H65.5119C64.7759 8.224 64.1359 8.48 63.5919 8.992C63.0639 9.488 62.7679 10.096 62.7039 10.816Z" fill="#060530"/>
<path d="M82.0121 5.704H84.9161L80.6921 18.232C80.4041 19.096 79.9001 19.8 79.1801 20.344C78.4601 20.904 77.6521 21.208 76.7561 21.256L74.9561 21.352L74.8601 18.664L76.1801 18.568C77.0281 18.52 77.6441 18.104 78.0281 17.32H76.9961L73.1081 5.704H76.0121L78.4361 12.928C78.6441 13.536 78.7481 14.184 78.7481 14.872V16.288H79.3001V14.776C79.3001 14.12 79.4121 13.472 79.6361 12.832L82.0121 5.704Z" fill="#060530"/>
<path d="M92.5932 3.472C91.9692 3.472 91.4812 3.664 91.1292 4.048C90.7772 4.416 90.6012 4.904 90.6012 5.512V5.704H92.7852V7.384H90.6012V17.344H87.8412V7.384H86.7373V5.704H87.8412V5.464C87.8412 4.008 88.2173 2.904 88.9693 2.152C89.7373 1.4 90.8413 1.024 92.2812 1.024L94.1533 1V3.472H92.5932Z" fill="#060530"/>
<path d="M101.05 5.416C101.082 5.416 101.138 5.416 101.218 5.416C101.298 5.416 101.37 5.416 101.434 5.416L101.554 5.44C100.834 7.392 100.458 8.416 100.426 8.512C99.8015 8.352 99.2335 8.488 98.7215 8.92C98.2255 9.336 97.9775 9.856 97.9775 10.48V17.32H95.2175V5.704H97.9775V6.064C97.6255 6.512 97.3935 6.808 97.2815 6.952C97.0095 7.336 96.8735 7.736 96.8735 8.152V8.56C96.9055 8.48 96.9455 8.368 96.9935 8.224C97.0575 8.08 97.2015 7.832 97.4255 7.48C97.6655 7.112 97.9295 6.792 98.2175 6.52C98.5215 6.232 98.9215 5.976 99.4175 5.752C99.9295 5.528 100.474 5.416 101.05 5.416Z" fill="#060530"/>
<path d="M111.612 5.704H114.372V17.32H111.636V16.936C112.468 16.232 112.884 15.6 112.884 15.04V14.56C112.852 14.64 112.796 14.752 112.716 14.896C112.636 15.024 112.46 15.264 112.188 15.616C111.916 15.968 111.62 16.28 111.3 16.552C110.996 16.824 110.58 17.072 110.052 17.296C109.524 17.504 108.972 17.608 108.396 17.608C106.876 17.608 105.572 17.072 104.484 16C103.412 14.912 102.876 13.608 102.876 12.088V10.984C102.876 9.464 103.412 8.168 104.484 7.096C105.572 6.008 106.876 5.464 108.396 5.464C109.724 5.464 110.796 5.856 111.612 6.64V5.704ZM111.612 12.016V11.056C111.612 10.272 111.34 9.608 110.796 9.064C110.252 8.504 109.588 8.224 108.804 8.224H108.468C107.684 8.224 107.012 8.504 106.452 9.064C105.908 9.608 105.636 10.272 105.636 11.056V12.016C105.636 12.8 105.908 13.472 106.452 14.032C107.012 14.576 107.684 14.848 108.468 14.848H108.804C109.588 14.848 110.252 14.576 110.796 14.032C111.34 13.472 111.612 12.8 111.612 12.016Z" fill="#060530"/>
<path d="M129.846 5.416C131.03 5.416 131.942 5.784 132.582 6.52C133.238 7.24 133.566 8.104 133.566 9.112V17.32H130.83V10.168C130.83 9.56 130.654 9.096 130.302 8.776C129.95 8.44 129.526 8.272 129.03 8.272C128.518 8.272 128.062 8.456 127.662 8.824C127.278 9.176 127.086 9.664 127.086 10.288V17.32H124.278V10.168C124.278 9.624 124.094 9.2 123.726 8.896C123.374 8.576 122.95 8.416 122.454 8.416C121.926 8.416 121.47 8.584 121.086 8.92C120.718 9.24 120.534 9.704 120.534 10.312V17.32H117.774V5.704H120.534V6.064C120.182 6.512 119.95 6.808 119.838 6.952C119.566 7.336 119.43 7.736 119.43 8.152V8.56C119.462 8.48 119.51 8.368 119.574 8.224C119.638 8.08 119.782 7.832 120.006 7.48C120.23 7.112 120.478 6.792 120.75 6.52C121.022 6.232 121.39 5.976 121.854 5.752C122.318 5.528 122.806 5.416 123.318 5.416C123.75 5.416 124.126 5.448 124.446 5.512C124.782 5.576 125.054 5.688 125.262 5.848C125.486 5.992 125.654 6.112 125.766 6.208C125.878 6.288 126.006 6.432 126.15 6.64C126.294 6.832 126.374 6.936 126.39 6.952C126.118 7.336 125.982 7.736 125.982 8.152V8.56C126.014 8.48 126.054 8.368 126.102 8.224C126.166 8.08 126.31 7.832 126.534 7.48C126.758 7.112 127.006 6.792 127.278 6.52C127.55 6.232 127.918 5.976 128.382 5.752C128.846 5.528 129.334 5.416 129.846 5.416Z" fill="#060530"/>
<path d="M147.921 10.816V12.472H139.233C139.345 13.144 139.657 13.712 140.169 14.176C140.697 14.624 141.313 14.848 142.017 14.848H142.353C143.217 14.848 143.921 14.52 144.465 13.864L147.321 14.584C146.857 15.496 146.185 16.232 145.305 16.792C144.425 17.336 143.457 17.608 142.401 17.608H141.945C140.425 17.608 139.121 17.072 138.033 16C136.961 14.912 136.425 13.608 136.425 12.088V10.984C136.425 9.464 136.961 8.168 138.033 7.096C139.121 6.008 140.425 5.464 141.945 5.464H142.401C143.905 5.464 145.185 5.984 146.241 7.024C147.313 8.064 147.873 9.328 147.921 10.816ZM139.209 10.816H145.161C145.081 10.096 144.769 9.488 144.225 8.992C143.697 8.48 143.073 8.224 142.353 8.224H142.017C141.281 8.224 140.641 8.48 140.097 8.992C139.569 9.488 139.273 10.096 139.209 10.816Z" fill="#060530"/>
<path d="M155.055 10.48C156.607 10.96 157.663 11.384 158.223 11.752C159.215 12.408 159.711 13.264 159.711 14.32C159.711 15.232 159.247 16 158.319 16.624C157.391 17.232 156.287 17.536 155.007 17.536C153.199 17.536 151.663 16.992 150.399 15.904L151.407 13.336C151.919 13.832 152.599 14.24 153.447 14.56C154.295 14.88 155.079 15.04 155.799 15.04C156.615 15.04 157.151 14.824 157.407 14.392C157.551 14.136 157.567 13.888 157.455 13.648C157.343 13.408 157.031 13.152 156.519 12.88C156.007 12.608 155.295 12.336 154.383 12.064C151.359 11.168 150.039 9.792 150.423 7.936C150.551 7.232 150.991 6.64 151.743 6.16C152.511 5.664 153.423 5.416 154.479 5.416C155.343 5.416 156.159 5.512 156.927 5.704C157.711 5.896 158.279 6.088 158.631 6.28L159.135 6.568L158.175 9.136L157.911 9.016C157.719 8.92 157.487 8.816 157.215 8.704C156.959 8.592 156.671 8.48 156.351 8.368C156.047 8.256 155.719 8.16 155.367 8.08C155.015 8 154.703 7.96 154.431 7.96C153.871 7.96 153.487 8.128 153.279 8.464C153.023 8.864 153.071 9.24 153.423 9.592C153.791 9.944 154.335 10.24 155.055 10.48Z" fill="#060530"/>
</svg>
