<svg fill="none" height="528" viewBox="0 0 792 528" width="792" xmlns="http://www.w3.org/2000/svg" xmlns:xlink="http://www.w3.org/1999/xlink"><linearGradient id="a"><stop offset="0" stop-color="#fff" stop-opacity="0"/><stop offset=".1" stop-color="#fff" stop-opacity=".06"/><stop offset=".9" stop-color="#fff" stop-opacity=".06"/><stop offset="1" stop-color="#fff" stop-opacity="0"/></linearGradient><linearGradient id="b" gradientUnits="userSpaceOnUse" x1=".000402" x2="792" xlink:href="#a" y1="263.996" y2="263.994"/><linearGradient id="c" gradientUnits="userSpaceOnUse" x1="396.35" x2="396.364" xlink:href="#a" y1="528" y2="-.001577"/><clipPath id="d"><path d="m615 21h24v24h-24z"/></clipPath><path d="m0 395.625h792m-792 66.75h792m-792-132.75h792m-792-66h792m-792-66h792m-792-66h792m-792-66h792" stroke="url(#b)" stroke-width=".75"/><path d="m66.375 0v528m66-528v528m66-528v528m66-528v528m66-528v528m66-528v528m66-528v528m66-528v528m66-528v528m66-528v528m66-528v528" stroke="url(#c)" stroke-width=".75"/><g stroke="#fff" stroke-linecap="round" stroke-width="1.5"><path d="m752.443 488c1.412-1.581 3.335-2.673 5.502-3-1.089 1.437-1.737 3.243-1.737 5.204 0 4.689 3.706 8.49 8.277 8.49 1.257 0 2.448-.287 3.515-.801-1.347 3.573-4.729 6.107-8.688 6.107-5.143 0-9.312-4.276-9.312-9.551 0-.847.107-1.667.309-2.449" stroke-linejoin="round"/><path d="m693 490c-2.761 0-5 2.239-5 5s2.239 5 5 5 5-2.239 5-5c0-1.126-.372-2.165-1-3m-4 11v2m0-20v2m8 8h2m-20 0h2m14 6 1.5 1.5m-15-15.001 1.5 1.501m12 0 1.5-1.5m-15 15 1.5-1.5" stroke-linejoin="round"/><path d="m620 485h1.8c1.12 0 1.68 0 2.108.218.376.192.682.498.874.874.218.428.218.988.218 2.108v1.6c0 1.12 0 1.68-.218 2.108-.192.376-.498.682-.874.874-.428.218-.988.218-2.108.218h-1.6c-1.12 0-1.68 0-2.108-.218-.376-.192-.682-.498-.874-.874-.218-.428-.218-.988-.218-2.108v-1.8m16 5v-4m0 0v-4m0 4h-4m6.5 0h1.5m-3.2 8h-1.6c-1.12 0-1.68 0-2.108.218-.376.192-.682.498-.874.874-.218.428-.218.988-.218 2.108v1.6c0 1.12 0 1.68.218 2.108.192.376.498.682.874.874.428.218.988.218 2.108.218h1.6c1.12 0 1.68 0 2.108-.218.376-.192.682-.498.874-.874.218-.428.218-.988.218-2.108v-1.6c0-1.12 0-1.68-.218-2.108-.192-.376-.498-.682-.874-.874-.428-.218-.988-.218-2.108-.218zm-13.6 8h1.6c1.12 0 1.68 0 2.108-.218.376-.192.682-.498.874-.874.218-.428.218-.988.218-2.108v-1.6c0-1.12 0-1.68-.218-2.108-.192-.376-.498-.682-.874-.874-.428-.218-.988-.218-2.108-.218h-1.6c-1.12 0-1.68 0-2.108.218-.376.192-.682.498-.874.874-.218.428-.218.988-.218 2.108v1.6c0 1.12 0 1.68.218 2.108.192.376.498.682.874.874.428.218.988.218 2.108.218z" stroke-linejoin="round"/><path d="m571 488v1.8c0 1.12 0 1.68-.218 2.108-.192.376-.498.682-.874.874-.428.218-.988.218-2.108.218h-1.6c-1.12 0-1.68 0-2.108-.218-.376-.192-.682-.498-.874-.874-.218-.428-.218-.988-.218-2.108v-1.6c0-1.12 0-1.68.218-2.108.192-.376.498-.682.874-.874.428-.218.988-.218 2.108-.218h1.8m-1.8 20h1.6c1.12 0 1.68 0 2.108-.218.376-.192.682-.498.874-.874.218-.428.218-.988.218-2.108v-1.6c0-1.12 0-1.68-.218-2.108-.192-.376-.498-.682-.874-.874-.428-.218-.988-.218-2.108-.218h-1.6c-1.12 0-1.68 0-2.108.218-.376.192-.682.498-.874.874-.218.428-.218.988-.218 2.108v1.6c0 1.12 0 1.68.218 2.108.192.376.498.682.874.874.428.218.988.218 2.108.218zm-10.4-8h-1.6c-1.12 0-1.68 0-2.108.218-.376.192-.682.498-.874.874-.218.428-.218.988-.218 2.108v1.6c0 1.12 0 1.68.218 2.108.192.376.498.682.874.874.428.218.988.218 2.108.218h1.6c1.12 0 1.68 0 2.108-.218.376-.192.682-.498.874-.874.218-.428.218-.988.218-2.108v-1.6c0-1.12 0-1.68-.218-2.108-.192-.376-.498-.682-.874-.874-.428-.218-.988-.218-2.108-.218zm-1.6-4h1.6c1.12 0 1.68 0 2.108-.218.376-.192.682-.498.874-.874.218-.428.218-.988.218-2.108v-1.6c0-1.12 0-1.68-.218-2.108-.192-.376-.498-.682-.874-.874-.428-.218-.988-.218-2.108-.218h-1.6c-1.12 0-1.68 0-2.108.218-.376.192-.682.498-.874.874-.218.428-.218.988-.218 2.108v1.6c0 1.12 0 1.68.218 2.108.192.376.498.682.874.874.428.218.988.218 2.108.218z" stroke-linejoin="round"/><path d="m495 492v.5c0 .465 0 .697.038.89.158.794.778 1.414 1.572 1.572.193.038.425.038.89.038h5.9c.548 0 .821 0 1.052-.132.183-.104.366-.318.44-.516.093-.248.056-.481-.018-.946-.68-4.246-4.034-7.6-8.28-8.28-.465-.074-.698-.111-.946-.018-.198.074-.412.257-.516.44-.132.231-.132.504-.132 1.052v1.4m-3-2.542c-4.057 1.274-7 5.065-7 9.542 0 5.523 4.477 10 10 10 4.478 0 8.268-2.943 9.542-7" stroke-linejoin="round"/><path d="m439 492.5v-.5c0-1.861 0-2.792-.245-3.545-.494-1.522-1.688-2.716-3.21-3.21-.753-.245-1.684-.245-3.545-.245h-5c-2.8 0-4.2 0-5.27.545-.941.479-1.706 1.244-2.185 2.185-.545 1.07-.545 2.47-.545 5.27v4c0 2.8 0 4.2.545 5.27.479.941 1.244 1.706 2.185 2.185 1.07.545 2.47.545 5.27.545h5c1.861 0 2.792 0 3.545-.245 1.522-.494 2.716-1.688 3.21-3.21.245-.753.245-1.684.245-3.545v-.5m-14 1.5v-6m4 6v-8m4 8v-4" stroke-linejoin="round"/><path d="m370 493.5-.001-1c0-1.082 0-1.622-.113-2.087-.294-1.214-1.139-2.22-2.283-2.721-.438-.192-.97-.286-2.036-.474l-8.066-1.424c-1.515-.267-2.272-.4-2.817-.169-.478.203-.857.583-1.06 1.06-.231.545-.098 1.302.169 2.817l1.273 7.21c.332 1.88.497 2.82.973 3.525.419.621 1.004 1.112 1.689 1.417.777.346 1.731.346 3.64.346h.98c.978 0 1.468 0 1.928-.111.408-.098.798-.259 1.156-.478.404-.248.75-.594 1.441-1.286l3.626-3.625c.552-.552 1.448-.552 2 0 .552.552.552 1.448 0 2l-5.5 5.5m-12.5-17.5 4.001 4m5.5 3.5c0 1.105-.895 2-2 2s-2-.895-2-2 .895-2 2-2 2 .895 2 2z" stroke-linejoin="round"/><path d="m292 499.246c1.37 1.098 3.108 1.754 5 1.754.339 0 .672-.021 1-.062m-6-1.692c-1.829-1.467-3-3.719-3-6.246 0-1.698.529-3.273 1.432-4.568m1.568 10.814c0 1.777-3.332 3.252-1.514 5.141.591.613 1.832.613 4.315.613h4.398c2.483 0 3.724 0 4.314-.613.963-1 .376-2.166-.287-3.161m0 0 3.774 3.774m-3.774-3.774-12.794-12.794m13.498 8.568c.68-1.176 1.07-2.543 1.07-4s-.39-2.823-1.07-4m-10.93-2.929c1.177-.681 2.543-1.071 4-1.071s2.823.39 4 1.071m-10.568 2.361-3.432-3.432m10 6c1.104 0 2 .896 2 2" stroke-linejoin="round"/><path d="m226.143 499.357c1.347 1.031 3.03 1.643 4.857 1.643.691 0 1.361-.088 2-.252m-6.857-1.391c-1.911-1.462-3.143-3.765-3.143-6.357 0-4.418 3.582-8 8-8s8 3.582 8 8c0 1.935-.687 3.709-1.83 5.092-.485.588-.728.882-.786 1.073-.067.22-.07.298-.017.521.046.195.255.483.673 1.061.614.848 1.137 1.843 1.002 2.603-.07.39-.254.751-.528 1.037-.591.613-1.832.613-4.315.613h-4.398c-2.483 0-3.724 0-4.315-.613-.274-.286-.458-.647-.528-1.037-.225-1.267 1.379-3.187 2.185-3.993zm6.857-6.357c0 1.105-.895 2-2 2s-2-.895-2-2 .895-2 2-2" stroke-linejoin="round"/><path d="m168.5 487-1.938-1.661c-.554-.475-.832-.713-1.142-.804-.274-.079-.566-.079-.84 0-.31.091-.588.329-1.142.804l-1.264 1.083c-.249.214-.374.321-.515.397-.125.068-.259.117-.397.147-.157.034-.321.034-.65.034h-1.246c-.84 0-1.26 0-1.581.163-.282.144-.512.374-.656.656-.163.321-.163.741-.163 1.581v1.22c0 .326 0 .489-.033.644-.03.138-.079.271-.145.395-.075.14-.181.264-.391.512l-1.082 1.277c-.467.552-.701.827-.79 1.136-.079.272-.079.56 0 .832.089.309.323.584.79 1.136l1.082 1.277c.21.248.316.372.391.512.066.124.115.257.145.395.033.155.033.318.033.644v2.62m16.034-14v2.612c0 .329 0 .493.034.65.03.138.079.272.147.397.076.141.183.266.397.515l1.083 1.264c.475.554.713.832.804 1.142.079.274.079.566 0 .84-.091.31-.329.588-.804 1.142l-1.083 1.264c-.214.249-.321.374-.397.515-.068.125-.117.259-.147.397-.034.157-.034.321-.034.65v1.212c0 .84 0 1.26-.163 1.581-.144.282-.374.512-.656.656-.321.163-.741.163-1.581.163h-1.212c-.329 0-.493 0-.65.034-.138.03-.272.079-.397.147-.141.076-.266.183-.515.397l-1.264 1.083c-.554.475-.832.713-1.142.804-.274.079-.566.079-.84 0-.31-.091-.588-.329-1.142-.804l-1.938-1.661m3.5-7v-5m.5 8c0 .276-.224.5-.5.5s-.5-.224-.5-.5m1 0c0-.276-.224-.5-.5-.5s-.5.224-.5.5m1 0h-1" stroke-linejoin="round"/><path d="m88 484 2.621 2.621m17.879 17.879-3.121-3.121m-14.758-14.758c-.1987.096-.3843.206-.5599.334-.4245.308-.7978.682-1.1062 1.106-.7676 1.057-.9182 2.475-.9477 4.939m2.6138-6.379 14.758 14.758m0 0c-.096.199-.206.384-.334.56-.308.425-.682.798-1.106 1.106-1.314.955-3.189.955-6.939.955-3.7497 0-5.6246 0-6.9389-.955-.4245-.308-.7978-.681-1.1062-1.106-.7676-1.056-.9182-2.475-.9477-4.939m5.9928-10.971c.8443-.029 1.8311-.029 3-.029 3.75 0 5.625 0 6.939.955.424.308.798.682 1.106 1.106.657.905.862 2.075.926 3.939m0 0c.029.844.029 1.831.029 3v1.172c0 .203 0 .305.013.403.034.261.137.508.297.717.06.078.132.15.276.294.709.71 1.064 1.064 1.34 1.179.765.317 1.643-.047 1.96-.812.114-.276.114-.778.114-1.781v-2.393c0-1.539 0-2.308-.318-2.715-.277-.355-.698-.566-1.147-.576-.517-.012-1.134.447-2.368 1.366z" stroke-linejoin="round"/><path d="m40 498c0 .929 0 1.394-.0616 1.782-.3388 2.14-2.0168 3.818-4.1562 4.156-.3887.062-.8532.062-1.7822.062h-4c-2.8003 0-4.2004 0-5.27-.545-.9408-.479-1.7057-1.244-2.185-2.185-.545-1.07-.545-2.47-.545-5.27v-3.5c0-1.395 0-2.092.1382-2.667.4389-1.828 1.8663-3.256 3.6946-3.695.5754-.138 1.2727-.138 2.6672-.138h.5m11 12 .16.12c1.2359.927 1.8539 1.39 2.3712 1.38.4501-.01.8723-.221 1.1498-.575.319-.408.319-1.18.319-2.725v-2.4c0-1.545 0-2.317-.319-2.725-.2775-.354-.6997-.565-1.1498-.575-.5173-.01-1.1353.453-2.3712 1.38l-.16.12m0 6v-6m-7-6h.5.4999c.9291 0 1.3936 0 1.7823.062 2.1394.338 3.8174 2.016 4.1562 4.156.0616.388.0616.853.0616 1.782m-5-.5c0 .276-.2239.5-.5.5s-.5-.224-.5-.5m1 0c0-.276-.2239-.5-.5-.5s-.5.224-.5.5m1 0h-1" stroke-linejoin="round"/><path d="m764 427c.597.399 1 1.145 1 2 0 .358-.071.697-.197 1m.197-7c1.793 1.197 3 3.436 3 6 0 1.074-.213 2.092-.591 3-.146.35-.317.685-.51 1m-5.899-2v1.691c0 2.158 0 3.238-.267 3.701-.527.915-1.676 1.263-2.622.794-.479-.238-1.078-1.136-2.275-2.931-.236-.355-.355-.533-.498-.675-.277-.275-.627-.462-1.009-.54-.198-.04-.411-.04-.838-.04h-1.291c-1.121 0-1.681 0-2.108-.218-.377-.192-.683-.498-.874-.875-.122-.237-.175-.515-.199-.907m11.981 0-6.2-6.2m6.2 6.2 7 7m-18-18 4.8 4.8m0 0c-.149.072-.307.126-.471.159-.198.041-.411.041-.838.041h-.491c-.282 0-.549 0-.801 0-1.12 0-1.68 0-2.107.217-.377.192-.683.498-.874.875-.122.237-.175.515-.199.908m7.653-4.5c.671-.982 1.087-1.512 1.439-1.687.946-.469 2.095-.121 2.622.794.267.463.267 1.543.267 3.701v1.692" stroke-linejoin="round"/><path d="m695 426.5v-1.192c0-2.158 0-3.237-.267-3.7-.527-.916-1.675-1.264-2.622-.794-.479.237-1.077 1.135-2.274 2.931-.237.355-.355.532-.498.674-.277.275-.628.463-1.01.541-.198.04-.411.04-.837.04h-1.292c-1.12 0-1.68 0-2.108.218-.376.192-.682.498-.874.874-.218.428-.218.988-.218 2.108v1.6c0 1.12 0 1.68.218 2.108.192.376.498.682.874.874.428.218.988.218 2.108.218h1.292c.426 0 .639 0 .837.04.382.078.733.266 1.01.541.143.142.261.319.498.674 1.197 1.796 1.795 2.694 2.274 2.931.947.47 2.095.122 2.622-.794.267-.463.267-1.542.267-3.7v-1.192m3-4.5c.598.399 1 1.145 1 2s-.402 1.601-1 2m1-8c1.793 1.198 3 3.436 3 6s-1.207 4.802-3 6" stroke-linejoin="round"/><path d="m619 428c0 3.611 2.384 6.178 5 7.327m11-7.327c0 1.53-.428 2.873-1.121 4m-6.879 7v-.5-.9c0-.554 0-.831.079-1.018.083-.194.158-.289.328-.415.163-.12.501-.201 1.177-.362 1.196-.285 2.423-.878 3.479-1.742m-10.063-10.063v4c0 2.761 2.239 5 5 5 1.126 0 2.165-.372 3-1m-12-12 12 12m6 6-3.937-3.937m-2.063-2.063 2.063 2.063m-9.063-13.063c.912-1.215 2.364-2 4-2 .711 0 1.388.148 2 .416m2.9 9.584c.066-.323.1-.658.1-1v-4c0-.711-.148-1.388-.416-2" stroke-linejoin="round"/><path d="m563 419.416c-.612-.268-1.289-.416-2-.416-2.761 0-5 2.239-5 5v4c0 2.761 2.239 5 5 5s5-2.239 5-5v-4c0-.711-.148-1.388-.416-2m3.416 6c0 5-4.571 8-8 8v2.5.5m-3-3.673c-2.616-1.149-5-3.716-5-7.327" stroke-linejoin="round"/><path d="m504 433v-10m0 10c0 1.657-1.343 3-3 3s-3-1.343-3-3 1.343-3 3-3 3 1.343 3 3zm-12-7v10c0 1.657-1.343 3-3 3s-3-1.343-3-3 1.343-3 3-3m3-7v-1.642c0-.905 0-1.358.159-1.733.141-.331.368-.617.658-.83.328-.241.769-.345 1.65-.552l5.639-1.327c1.307-.307 1.96-.461 2.476-.304.483.147.894.472 1.147.909.271.466.271 1.137.271 2.479m-12 3 5-1.25m7-1.75-3 .75" stroke-linejoin="round"/><path d="m419 427v-.5c0-1.394 0-2.091.115-2.671.474-2.38 2.334-4.24 4.714-4.714.58-.115 1.277-.115 2.671-.115h2.9c3.36 0 5.04 0 6.324.654 1.129.575 2.047 1.493 2.622 2.622.654 1.284.654 2.964.654 6.324v3.572c0 .337 0 .505-.009.668-.074 1.365-.612 2.664-1.525 3.681-.108.121-.228.241-.466.479-.238.238-.358.358-.479.466-1.017.913-2.316 1.451-3.681 1.525-.163.009-.331.009-.668.009h-5.672c-1.394 0-2.091 0-2.671-.115-2.38-.474-4.24-2.334-4.714-4.714-.115-.58-.115-1.277-.115-2.671v-.5m14 7.5v-2.5c0-.932 0-1.398.152-1.765.203-.49.593-.88 1.083-1.083.367-.152.833-.152 1.765-.152h.5m-12.5-9h8m-8 4h6m-6 4h2" stroke-linejoin="round"/><path d="m356.5 439h-1.3c-1.767 0-3.2-1.433-3.2-3.2 0-2.651 2.149-4.8 4.8-4.8h4.4c2.651 0 4.8 2.149 4.8 4.8 0 1.767-1.433 3.2-3.2 3.2h-1.3m6.5 0h2.8c1.767 0 3.2-1.433 3.2-3.2 0-2.651-2.149-4.8-4.8-4.8h-1.2m-2-4c2.209 0 4-1.791 4-4s-1.791-4-4-4m-3 4c0 2.209-1.791 4-4 4s-4-1.791-4-4 1.791-4 4-4 4 1.791 4 4z" stroke-linejoin="round"/><path d="m291.5 439h-1.3c-1.767 0-3.2-1.433-3.2-3.2 0-2.651 2.149-4.8 4.8-4.8h4.4c2.651 0 4.8 2.149 4.8 4.8 0 1.767-1.433 3.2-3.2 3.2h-1.3m8.5-15v3m0 0v3m0-3h-3m3 0h3m-10-4c0 2.209-1.791 4-4 4s-4-1.791-4-4 1.791-4 4-4 4 1.791 4 4z" stroke-linejoin="round"/><path d="m233.5 439h2.3c1.767 0 3.2-1.433 3.2-3.2 0-2.651-2.149-4.8-4.8-4.8h-6.4c-2.651 0-4.8 2.149-4.8 4.8 0 1.767 1.433 3.2 3.2 3.2h2.3m6.5-16c0 2.209-1.791 4-4 4s-4-1.791-4-4 1.791-4 4-4 4 1.791 4 4z" stroke-linejoin="round"/><path d="m157 427v-.5c0-2.33 0-3.495.381-4.413.507-1.226 1.48-2.199 2.706-2.706.918-.381 2.083-.381 4.413-.381h.278c1.132 0 1.699 0 2.233.119.57.126 1.112.351 1.604.664.462.294.863.695 1.663 1.495l.379.379c.865.865 1.297 1.297 1.606 1.802.274.447.476.935.599 1.445.138.575.138 1.187.138 2.41v3.686c0 2.8 0 4.2-.545 5.27-.479.941-1.244 1.706-2.185 2.185-1.07.545-2.47.545-5.27.545h-.5c-2.33 0-3.495 0-4.413-.381-1.226-.507-2.199-1.48-2.706-2.706-.381-.918-.381-2.083-.381-4.413v-.5m8-3v6m0 0 2.5-2.5m-2.5 2.5-2.5-2.5m4.5-12v3.5c0 1.105.895 2 2 2h1" stroke-linejoin="round"/><path d="m91 427v-.5c0-2.33 0-3.495.3806-4.413.5075-1.226 1.4809-2.199 2.706-2.706.9189-.381 2.0837-.381 4.4134-.381h.2782c1.1323 0 1.6988 0 2.2328.119.57.126 1.112.351 1.604.664.462.294.863.695 1.663 1.495l.379.379c.865.865 1.297 1.297 1.606 1.802.274.447.476.935.599 1.445.138.575.138 1.187.138 2.41v3.686c0 2.8 0 4.2-.545 5.27-.479.941-1.244 1.706-2.185 2.185-1.07.545-2.47.545-5.27.545h-.5c-2.3297 0-3.4945 0-4.4134-.381-1.2251-.507-2.1985-1.48-2.706-2.706-.3806-.918-.3806-2.083-.3806-4.413v-.5m5-2h6m-6 4h4m1-13.5v3.5c0 1.105.895 2 2 2h1" stroke-linejoin="round"/><path d="m42.6664 435-.0833.5c-.1564.939-.2347 1.408-.4151 1.788-.3698.778-1.0565 1.36-1.885 1.596-.4042.116-.88.116-1.8315.116h-11.4517l1.3315-7.989c.2375-1.425.3562-2.138.7118-2.672.3134-.472.7537-.845 1.2701-1.076.5859-.263 1.3082-.263 2.7528-.263h7.3855c1.0873 0 1.6309 0 2.0329.188.5296.247.9246.713 1.0812 1.276.1189.427.0296.963-.1492 2.036l-.0833.5m-7.3333 8h-8.2c-1.6802 0-2.5203 0-3.162-.327-.5645-.288-1.0234-.747-1.3111-1.312-.3269-.641-.3269-1.481-.3269-3.161v-3.7-.5m18-3c0-.93 0-1.396-.1023-1.777-.2774-1.035-1.086-1.844-2.1211-2.121-.3816-.102-.8467-.102-1.7769-.102h-1.7637c-.3688 0-.5532 0-.7233-.02-.8877-.102-1.6839-.594-2.1718-1.342-.0935-.144-.176-.309-.3409-.638-.165-.33-.2474-.495-.341-.639-.4879-.748-1.2841-1.24-2.1718-1.342-.1701-.019-.3545-.019-.7233-.019h-.9639c-1.6802 0-2.5203 0-3.162.326-.5645.288-1.0234.747-1.3111 1.312-.3269.641-.3269 1.481-.3269 3.162v1.7.5" stroke-linejoin="round"/><path d="m749 360v-.5-1.7c0-1.68 0-2.52.327-3.162.288-.564.747-1.023 1.311-1.311.642-.327 1.482-.327 3.162-.327h1.517c.801 0 1.202 0 1.564.092.598.151 1.135.483 1.538.95.243.283.423.641.781 1.358.239.478.358.717.521.906.268.311.626.532 1.025.633.241.061.508.061 1.043.061h1.711c1.396 0 2.093 0 2.661.172 1.279.388 2.279 1.388 2.667 2.667.172.568.172 1.266.172 2.661v.5m-20 1v.5 2.1c0 2.24 0 3.36.436 4.216.383.753.995 1.365 1.748 1.748.856.436 1.976.436 4.216.436h8.1c1.396 0 2.093 0 2.661-.172 1.279-.388 2.279-1.388 2.667-2.667.172-.568.172-1.265.172-2.661v-.5" stroke-linejoin="round"/><path d="m685 356.999c-1.256 1.672-2 3.749-2 6.001 0 1.499.33 2.921.921 4.197.467 1.008.909 1.867.584 3.001-.157.545-.55 1.082-.596 1.649-.054.65.518 1.176 1.161 1.069 1.308-.218 1.938-1.259 3.456-.902.164.039.593.192 1.45.499.908.325 1.885.487 3.024.487 5.523 0 10-4.477 10-10s-4.477-10-10-10c-1.422 0-2.775.297-4 .832m0 7.168h8m-8 4h4" stroke-linejoin="round"/><path d="m623.977 369.868c-.364-.068-.711-.162-1.047-.282-.729-.261-1.093-.391-1.233-.424-1.291-.303-1.826.581-2.938.766-.546.091-1.032-.356-.987-.908.04-.482.374-.939.507-1.402.277-.963-.099-1.694-.496-2.55-.502-1.085-.783-2.294-.783-3.568 0-4.694 3.806-8.5 8.5-8.5 3.042 0 5.711 1.598 7.212 4m-2.712 3.341c.626-.221 1.299-.341 2-.341 3.314 0 6 2.686 6 6 0 .899-.198 1.753-.553 2.518-.28.605-.545 1.121-.35 1.801.094.327.33.649.358.989.032.39-.311.706-.697.641-.785-.13-1.163-.755-2.073-.54-.099.023-.356.115-.871.299-.544.195-1.13.292-1.814.292-3.314 0-6-2.686-6-6 0-1.093.292-2.117.803-3" stroke-linejoin="round"/><path d="m555.476 362 .419-.499c.771-.916 1.157-1.374 1.388-1.896.204-.462.319-.959.338-1.464.022-.57-.123-1.151-.414-2.312l-.122-.49c-.197-.785-.295-1.178-.502-1.478-.232-.333-.559-.589-.939-.732-.341-.129-.746-.129-1.555-.129-.994 0-1.491 0-1.911.208-.433.215-.838.673-.998 1.128-.156.442-.102.876.004 1.745.364 2.966 1.258 5.63 2.609 7.919 1.455 2.465 3.44 4.496 5.865 6 2.364 1.467 5.146 2.434 8.261 2.816.869.106 1.303.16 1.745.004.455-.16.913-.565 1.128-.998.208-.42.208-.927.208-1.941 0-.789 0-1.184-.129-1.525-.143-.38-.399-.707-.732-.939-.3-.207-.693-.305-1.478-.502l-.709-.177c-1.084-.271-1.627-.407-2.162-.395-.475.01-.944.104-1.385.279-.499.197-.946.532-1.841 1.202l-.564.422m8-14.246-6 6m0 0v-5m0 5h5" stroke-linejoin="round"/><path d="m489.476 362 .419-.499c.771-.916 1.157-1.374 1.388-1.896.204-.462.319-.959.338-1.464.022-.57-.123-1.151-.414-2.312l-.122-.49c-.197-.785-.295-1.178-.502-1.478-.232-.333-.559-.589-.939-.732-.341-.129-.746-.129-1.555-.129-.994 0-1.491 0-1.911.208-.433.215-.838.673-.998 1.128-.156.442-.102.876.004 1.745.364 2.966 1.258 5.63 2.609 7.919 1.455 2.465 3.44 4.496 5.865 6 2.364 1.467 5.146 2.434 8.261 2.816.869.106 1.303.16 1.745.004.455-.16.913-.565 1.128-.998.208-.42.208-.927.208-1.941 0-.789 0-1.184-.129-1.525-.143-.38-.399-.707-.732-.939-.3-.207-.693-.305-1.478-.502l-.709-.177c-1.084-.271-1.627-.407-2.162-.395-.475.01-.944.104-1.385.279-.499.197-.946.532-1.841 1.202l-.564.422" stroke-linejoin="round"/><path d="m435 358.726c-1.713-3.004-2.784-4.591-4.143-5.135-1.192-.477-2.522-.477-3.714 0-1.642.657-2.862 2.836-5.303 7.194-2.346 4.189-3.519 6.284-3.248 7.996.196 1.244.855 2.368 1.845 3.147 1.361 1.072 3.762 1.072 8.563 1.072s7.202 0 8.563-1.072c.99-.779 1.649-1.903 1.845-3.147.218-1.38-.501-3.008-2.017-5.781m-8.391 1v-4m.5 7.5c0 .276-.224.5-.5.5s-.5-.224-.5-.5m1 0c0-.276-.224-.5-.5-.5s-.5.224-.5.5m1 0h-1" stroke-linejoin="round"/><path d="m359 370.545c.659 1.482 2.378 2.455 4 2.455s3.341-.973 4-2.455m4-5.045-1.026-1.124c-.62-.558-.974-1.352-.974-2.186v-3.19c0-3.314-2.686-6-6-6-1.227 0-2.367.368-3.318 1m-5.682-1 3.53 3.53 12.803 12.803m2.667 2.667-2.667-2.667m0 0c-.078.029-.156.057-.234.086-4.586 1.667-9.612 1.667-14.198 0l-.211-.077c-1.672-.608-2.094-2.778-.771-3.969l1.107-.997c.62-.558.974-1.352.974-2.186v-2.19" stroke-linejoin="round"/><path d="m293 370.545c.659 1.482 2.378 2.455 4 2.455s3.341-.973 4-2.455m2-8.355c0 .834.354 1.628.974 2.186l1.107.997c1.323 1.191.901 3.361-.771 3.969l-.211.077c-4.586 1.667-9.612 1.667-14.198 0l-.211-.077c-1.672-.608-2.094-2.778-.771-3.969l1.107-.997c.62-.558.974-1.352.974-2.186v-3.19c0-3.314 2.686-6 6-6 2.973 0 5.441 2.162 5.917 5" stroke-linejoin="round"/><path d="m221 360v6.6c0 2.24 0 3.36.436 4.216.383.753.995 1.365 1.748 1.748.856.436 1.976.436 4.216.436h7.2c2.24 0 3.36 0 4.216-.436.753-.383 1.365-.995 1.748-1.748.436-.856.436-1.976.436-4.216v-3.2c0-2.24 0-3.36-.436-4.216-.383-.753-.995-1.365-1.748-1.748-.856-.436-1.976-.436-4.216-.436h-3.6m10 5h-.5c-1.657 0-3 1.343-3 3 0 1.657 1.343 3 3 3h.5m-5-11-1.08-1.44c-.704-.939-1.056-1.408-1.502-1.746-.395-.3-.843-.524-1.32-.66-.538-.154-1.125-.154-2.298-.154h-6.8c-1.105 0-2 .895-2 2 0 1.105.895 2 2 2z" stroke-linejoin="round"/><path d="m167 354h.5 1.1c2.24 0 3.36 0 4.216.436.753.383 1.365.995 1.748 1.748.436.856.436 1.976.436 4.216v5.2c0 2.24 0 3.36-.436 4.216-.383.753-.995 1.365-1.748 1.748-.856.436-1.976.436-4.216.436h-7.2c-2.24 0-3.36 0-4.216-.436-.753-.383-1.365-.995-1.748-1.748-.436-.856-.436-1.976-.436-4.216v-5.2c0-2.24 0-3.36.436-4.216.383-.753.995-1.365 1.748-1.748.856-.436 1.976-.436 4.216-.436h1.1.5m-7.5 5h15.5m-12 4h4" stroke-linejoin="round"/><path d="m101 367v.5c0 1.396 0 2.094-.172 2.662-.388 1.278-1.3883 2.278-2.6664 2.666-.568.172-1.266.172-2.6619.172h-.4996c-1.8637 0-2.7956 0-3.5307-.304-.9801-.406-1.7588-1.185-2.1648-2.165-.3044-.735-.3044-1.667-.3044-3.53v-1.501l-.0002-.5m12-6v-.5c0-1.395 0-2.093-.172-2.66-.388-1.279-1.3884-2.28-2.6671-2.667-.5676-.173-1.2652-.173-2.6603-.173h-.5004c-1.8638 0-2.7957 0-3.5308.305-.9801.406-1.7588 1.185-2.1648 2.165-.3044.735-.3044 1.667-.3044 3.53v1.5l-.0002.5m7 2h13l-4-4m1.5 6.5-1.5 1.5" stroke-linejoin="round"/><path d="m29 359v-.5c0-1.396 0-2.093.1722-2.661.3878-1.279 1.3883-2.279 2.6666-2.667.5678-.172 1.2656-.172 2.6612-.172h2.1c2.2402 0 3.3603 0 4.216.436.7526.383 1.3645.995 1.748 1.748.436.856.436 1.976.436 4.216v1.1.5m-14 6v.5c0 1.396 0 2.093.1722 2.661.3878 1.279 1.3883 2.279 2.6667 2.667.5678.172 1.2655.172 2.6611.172h2.1c2.2402 0 3.3603 0 4.216-.436.7526-.383 1.3645-.995 1.748-1.748.436-.856.436-1.976.436-4.216v-1.1-.5m-20-2h15l-4-4m1.5 6.5-1.5 1.5" stroke-linejoin="round"/><path d="m763 293h.5c1.396 0 2.093 0 2.661.172 1.279.388 2.279 1.388 2.667 2.667.172.568.172 1.265.172 2.661v2.1c0 2.24 0 3.36-.436 4.216-.383.753-.995 1.365-1.748 1.748-.856.436-1.976.436-4.216.436h-1.1-.5m-6-14h-.5c-1.396 0-2.093 0-2.661.172-1.279.388-2.279 1.388-2.667 2.667-.172.568-.172 1.265-.172 2.661v2.1c0 2.24 0 3.36.436 4.216.383.753.995 1.365 1.748 1.748.856.436 1.976.436 4.216.436h1.1.5m2-20v15l-4-4m6.5 1.5 1.5-1.5" stroke-linejoin="round"/><path d="m697 295h.5c1.396 0 2.093 0 2.661.172 1.279.388 2.279 1.388 2.667 2.667.172.568.172 1.265.172 2.661v.5c0 1.864 0 2.796-.304 3.531-.406.98-1.185 1.759-2.165 2.165-.735.304-1.667.304-3.531.304h-1.5-.5m-6-12h-.5c-1.396 0-2.093 0-2.661.172-1.279.388-2.279 1.388-2.667 2.667-.172.568-.172 1.265-.172 2.661v.5c0 1.864 0 2.796.304 3.531.406.98 1.185 1.759 2.165 2.165.735.304 1.667.304 3.531.304h1.5.5m2-7v-13l-4 4m6.5-1.5 1.5 1.5" stroke-linejoin="round"/><path d="m624.5 307h-.5c-1.861 0-2.792 0-3.545-.245-1.522-.494-2.716-1.688-3.21-3.21-.245-.753-.245-1.684-.245-3.545v-5c0-2.8 0-4.2.545-5.27.479-.941 1.244-1.706 2.185-2.185 1.07-.545 2.47-.545 5.27-.545h4c2.8 0 4.2 0 5.27.545.941.479 1.706 1.244 2.185 2.185.545 1.07.545 2.47.545 5.27v5c0 1.861 0 2.792-.245 3.545-.494 1.522-1.688 2.716-3.21 3.21-.753.245-1.684.245-3.545.245h-.5m-6.5-11 4-4m0 0 4 4m-4-4v10" stroke-linejoin="round"/><path d="m558.5 287h-.5c-1.861 0-2.792 0-3.545.245-1.522.494-2.716 1.688-3.21 3.21-.245.753-.245 1.684-.245 3.545v5c0 2.8 0 4.2.545 5.27.479.941 1.244 1.706 2.185 2.185 1.07.545 2.47.545 5.27.545h4c2.8 0 4.2 0 5.27-.545.941-.479 1.706-1.244 2.185-2.185.545-1.07.545-2.47.545-5.27v-5c0-1.861 0-2.792-.245-3.545-.494-1.522-1.688-2.716-3.21-3.21-.753-.245-1.684-.245-3.545-.245h-.5m1.5 11-4 4m0 0-4-4m4 4v-10" stroke-linejoin="round"/><path d="m485 299.5v.5c0 1.861 0 2.792.245 3.545.494 1.522 1.688 2.716 3.21 3.21.753.245 1.684.245 3.545.245h5c2.8 0 4.2 0 5.27-.545.941-.479 1.706-1.244 2.185-2.185.545-1.07.545-2.47.545-5.27v-4c0-2.8 0-4.2-.545-5.27-.479-.941-1.244-1.706-2.185-2.185-1.07-.545-2.47-.545-5.27-.545h-5c-1.861 0-2.792 0-3.545.245-1.522.494-2.716 1.688-3.21 3.21-.245.753-.245 1.684-.245 3.545v.5m11-1.5 4 4m0 0-4 4m4-4h-10" stroke-linejoin="round"/><path d="m439 294.5v-.5c0-1.861 0-2.792-.245-3.545-.494-1.522-1.688-2.716-3.21-3.21-.753-.245-1.684-.245-3.545-.245h-5c-2.8 0-4.2 0-5.27.545-.941.479-1.706 1.244-2.185 2.185-.545 1.07-.545 2.47-.545 5.27v4c0 2.8 0 4.2.545 5.27.479.941 1.244 1.706 2.185 2.185 1.07.545 2.47.545 5.27.545h5c1.861 0 2.792 0 3.545-.245 1.522-.494 2.716-1.688 3.21-3.21.245-.753.245-1.684.245-3.545v-.5m-11-6.5-4 4m0 0 4 4m-4-4h10" stroke-linejoin="round"/><path d="m354 288 2.826 2.826m15.174 15.174-2.826-2.826m0 0c-1.545 1.074-3.586 1.826-6.174 1.826-1.854 0-3.428-.386-4.74-1m10.914-.826-4.053-4.053m-8.295-8.295c-2.634 1.831-3.826 4.598-3.826 6.174 0 1.025.504 2.553 1.58 4m2.246-10.174 4.053 4.053m0 0c-.543.543-.879 1.293-.879 2.121 0 1.657 1.343 3 3 3 .828 0 1.578-.336 2.121-.879m-4.242-4.242 4.242 4.242m6.299 1.879c.123-.166.239-.333.347-.5.838-1.291 1.233-2.593 1.233-3.5 0-2.5-3-8-10-8-1.097 0-2.096.135-3 .373-.17.044-.337.092-.5.144" stroke-linejoin="round"/><path d="m288.58 301c-1.076-1.447-1.58-2.975-1.58-4 0-2.5 3-8 10-8s10 5.5 10 8-3 8-10 8c-1.979 0-3.638-.439-5-1.126m8-6.874c0 1.657-1.343 3-3 3s-3-1.343-3-3 1.343-3 3-3 3 1.343 3 3z" stroke-linejoin="round"/><path d="m240 297c0 1.657-4.029 3-9 3-.338 0-.672-.006-1-.018m-5-.746c-1.841-.549-3-1.348-3-2.236m0-7c0 1.657 4.029 3 9 3 .687 0 1.357-.026 2-.074m-11-2.926c0-1.657 4.029-3 9-3s9 1.343 9 3m-18 0v14c0 1.657 4.029 3 9 3s9-1.343 9-3v-14m0 0c0 .714-.749 1.371-2 1.886" stroke-linejoin="round"/><path d="m167 293h.5.1c2.24 0 3.36 0 4.216.436.753.383 1.365.995 1.748 1.748.436.856.436 1.976.436 4.216v1.2c0 2.24 0 3.36-.436 4.216-.383.753-.995 1.365-1.748 1.748-.856.436-1.976.436-4.216.436h-5.2c-2.24 0-3.36 0-4.216-.436-.753-.383-1.365-.995-1.748-1.748-.436-.856-.436-1.976-.436-4.216v-1.2c0-2.24 0-3.36.436-4.216.383-.753.995-1.365 1.748-1.748.856-.436 1.976-.436 4.216-.436h.1.5m-3 0v-1.2c0-1.68 0-2.52.327-3.162.288-.564.747-1.023 1.311-1.311.642-.327 1.482-.327 3.162-.327h3.2c1.105 0 2 .895 2 2v.5m-5 9.5v2" stroke-linejoin="round"/><path d="m101 293h.5.1c2.24 0 3.36 0 4.216.436.753.383 1.365.995 1.748 1.748.436.856.436 1.976.436 4.216v1.2c0 2.24 0 3.36-.436 4.216-.383.753-.995 1.365-1.748 1.748-.856.436-1.976.436-4.216.436h-5.2c-2.2402 0-3.3603 0-4.2159-.436-.7527-.383-1.3646-.995-1.7481-1.748-.436-.856-.436-1.976-.436-4.216v-1.2c0-2.24 0-3.36.436-4.216.3835-.753.9954-1.365 1.7481-1.748.8556-.436 1.9757-.436 4.2159-.436h.1.5m-3 0v-1.2c0-1.68 0-2.52.327-3.162.2876-.564.7466-1.023 1.3111-1.311.6417-.327 1.4818-.327 3.1619-.327h.4c1.68 0 2.52 0 3.162.327.564.288 1.023.747 1.311 1.311.327.642.327 1.482.327 3.162v1.2m-5 6v2" stroke-linejoin="round"/><path d="m29 286v3m8-3v3m1.5 4h-11-3.6429c-.4733 0-.8571-.384-.8571-.857 0-2.84 2.3025-5.143 5.1429-5.143h5.2571c3.3603 0 5.0405 0 6.3239.654 1.129.575 2.0469 1.493 2.6221 2.622.654 1.284.654 2.964.654 6.324v.8c0 3.36 0 5.04-.654 6.324-.5752 1.129-1.4931 2.047-2.6221 2.622-1.2834.654-2.9636.654-6.3239.654h-.9c-3.266 0-4.899 0-6.1537-.619-1.1846-.584-2.1434-1.543-2.7275-2.727-.6188-1.255-.6188-2.888-.6188-6.154v-.5m6 .5c0 .276-.2239.5-.5.5s-.5-.224-.5-.5m1 0c0-.276-.2239-.5-.5-.5s-.5.224-.5.5m1 0h-1m1 4c0 .276-.2239.5-.5.5s-.5-.224-.5-.5m1 0c0-.276-.2239-.5-.5-.5s-.5.224-.5.5m1 0h-1m5.5-4c0 .276-.2239.5-.5.5s-.5-.224-.5-.5m1 0c0-.276-.2239-.5-.5-.5s-.5.224-.5.5m1 0h-1m1 4c0 .276-.2239.5-.5.5s-.5-.224-.5-.5m1 0c0-.276-.2239-.5-.5-.5s-.5.224-.5.5m1 0h-1m5.5-4c0 .276-.2239.5-.5.5s-.5-.224-.5-.5m1 0c0-.276-.2239-.5-.5-.5s-.5.224-.5.5m1 0h-1m1 4c0 .276-.2239.5-.5.5s-.5-.224-.5-.5m1 0c0-.276-.2239-.5-.5-.5s-.5.224-.5.5m1 0h-1" stroke-linejoin="round"/></g><path d="m748.465 233.149c.082.406.478.668.884.586s.668-.478.586-.884zm3.929 4.326c-.29-.296-.765-.301-1.06-.011-.296.29-.301.765-.011 1.061zm7.356-10.475c0-.414-.336-.75-.75-.75s-.75.336-.75.75zm-.75 4h-.75c0 .251.125.485.334.624zm2.584 2.624c.345.23.81.137 1.04-.208s.137-.81-.208-1.04zm-10.054-13.094c.293-.293.293-.767 0-1.06s-.767-.293-1.06 0zm-4.06 1.94c-.293.293-.293.767 0 1.06s.767.293 1.06 0zm20.06-3c-.293-.293-.767-.293-1.06 0s-.293.767 0 1.06zm1.94 4.06c.293.293.767.293 1.06 0s.293-.767 0-1.06zm-1.22 7.47c0 5.109-4.141 9.25-9.25 9.25v1.5c5.937 0 10.75-4.813 10.75-10.75zm-9.25-9.25c5.109 0 9.25 4.141 9.25 9.25h1.5c0-5.937-4.813-10.75-10.75-10.75zm0-1.5c-5.937 0-10.75 4.813-10.75 10.75h1.5c0-5.109 4.141-9.25 9.25-9.25zm-9.065 12.601c-.121-.598-.185-1.216-.185-1.851h-1.5c0 .735.074 1.454.215 2.149zm9.065 7.399c-2.588 0-4.926-1.062-6.606-2.775l-1.071 1.05c1.95 1.989 4.67 3.225 7.677 3.225zm-.75-13.25v4h1.5v-4zm.334 4.624 3 2 .832-1.248-3-2zm-8.114-12.154-3 3 1.06 1.06 3-3zm16 1.06 3 3 1.06-1.06-3-3z" fill="#fff"/><path d="m689 221.832c1.225-.535 2.578-.832 4-.832 5.523 0 10 4.477 10 10s-4.477 10-10 10-10-4.477-10-10c0-2.252.744-4.329 2-6.001m12 2.001-4.408 2.003c-.404.184-.606.276-.779.405-.154.115-.29.251-.405.405-.129.173-.221.375-.405.779l-2.003 4.408 4.408-2.003c.404-.184.606-.276.779-.405.154-.115.29-.251.405-.405.129-.173.221-.375.405-.779z" stroke="#fff" stroke-linecap="round" stroke-linejoin="round" stroke-width="1.5"/><path d="m627 240c-4.971 0-9-4.029-9-9m9 9c2.485 0 4.735-1.007 6.364-2.636m-6.364 2.636v2m-9-11c0-2.485 1.007-4.735 2.636-6.364m-2.636 6.364h-2m17.364 6.364 3.636 3.636m-3.636-3.636-4.235-4.25-4.25-4.235m-7.879-7.879 3.636 3.636m0 0 4.243 4.243m0 0c-.185.184-.346.393-.478.621-.255.441-.401.954-.401 1.5 0 1.657 1.343 3 3 3 .768 0 1.469-.289 2-.764m-6-10.3c1.205-.599 2.563-.936 4-.936m0 0c3.534 0 6.592 2.037 8.065 5m-8.065-5v-2m8.065 15c.598-1.205.935-2.563.935-4h2" stroke="#fff" stroke-linecap="round" stroke-linejoin="round" stroke-width="1.5"/><path d="m561 240c4.971 0 9-4.029 9-9h2m-11 9c-4.971 0-9-4.029-9-9m9 9v2m-9-11c0-4.971 4.029-9 9-9m-9 9h-2m11-9c3.534 0 6.592 2.037 8.064 5m-8.064-5v-2m0 14c1.657 0 3-1.343 3-3s-1.343-3-3-3-3 1.343-3 3" stroke="#fff" stroke-linecap="round" stroke-linejoin="round" stroke-width="1.5"/><path d="m502.731 225c.807 1.274 1.269 2.801 1.269 4.5 0 7.852-7 11.5-9 11.5s-9-3.648-9-11.5c0-5 4-8.5 9-8.5 1.592 0 3.083.355 4.375 1m-7.375 8c0 1.657 1.343 3 3 3s3-1.343 3-3-1.343-3-3-3" stroke="#fff" stroke-linecap="round" stroke-linejoin="round" stroke-width="1.5"/><path d="m420 222 4.333 4.333m13.667 13.667-4.333-4.333m0 0-2.393 2.99c-1.311 1.639-1.966 2.458-2.541 2.549-.497.078-1.001-.099-1.341-.471-.392-.429-.392-1.479-.392-3.577v-1.758c0-.84 0-1.26-.163-1.581-.144-.282-.374-.512-.656-.656-.321-.163-.741-.163-1.581-.163h-.607c-1.598 0-2.397 0-2.808-.328-.357-.285-.565-.717-.564-1.174.001-.525.5-1.149 1.498-2.397l2.214-2.768m9.334 9.334-2.667-2.667m-6.667-6.667 2.667 2.667m-.8-5 .4-.5.126-.157c1.311-1.639 1.966-2.458 2.541-2.549.497-.078 1.001.099 1.341.471.392.429.392 1.479.392 3.577v1.758c0 .84 0 1.26.163 1.581.144.282.374.512.656.656.321.163.741.163 1.581.163h.798c1.433 0 2.149 0 2.534.266.436.301.68.81.643 1.339-.032.467-.48 1.026-1.375 2.145l-.2.25" stroke="#fff" stroke-linecap="round" stroke-linejoin="round" stroke-width="1.5"/><path d="m359.913 224.359c2-2.5 3-3.751 3.914-3.547.115.026.227.065.333.117.84.411.84 2.012.84 5.214v.26c0 1.027 0 1.54.241 1.912.115.178.266.329.444.444.372.241.885.241 1.912.241 1.957 0 2.935 0 3.38.478.207.222.342.503.386.803.095.646-.516 1.41-1.738 2.938l-3.538 4.422c-2 2.5-3 3.751-3.913 3.547-.116-.026-.228-.065-.334-.117-.84-.411-.84-2.012-.84-5.214v-.26c0-1.027 0-1.54-.241-1.912-.115-.178-.266-.329-.444-.444-.372-.241-.885-.241-1.912-.241-1.957 0-2.935 0-3.38-.478-.207-.222-.342-.503-.386-.803-.095-.646.516-1.41 1.738-2.938" stroke="#fff" stroke-linecap="round" stroke-linejoin="round" stroke-width="1.5"/><path d="m290.333 224.333c.988-.197 1.981-.804 2.54-1.642.704-1.057 1.89-1.691 3.159-1.691h1.936c1.269 0 2.455.634 3.159 1.691.595.892 1.513 1.437 2.551 1.645 1.932.386 3.322 2.082 3.322 4.051v3.821c0 3.551 0 5.327-.861 6.597-.178.263-.38.507-.603.73m-15.203-15.202-3.333-3.333m3.333 3.333 15.203 15.202m1.964 1.965-1.964-1.965m-3.536 1.389c-.988.076-2.215.076-3.792.076h-2.416c-3.551 0-5.327 0-6.597-.861-.525-.356-.978-.809-1.334-1.334-.598-.882-.781-2.009-.836-3.805m.734-9c-.48.679-.759 1.506-.759 2.387v2.613m7.716-2.284c.647-.451 1.435-.716 2.284-.716 2.209 0 4 1.791 4 4 0 .849-.265 1.637-.716 2.284m-7.158-3.284c-.082.32-.126.655-.126 1 0 2.209 1.791 4 4 4 .345 0 .68-.044 1-.126" stroke="#fff" stroke-linecap="round" stroke-linejoin="round" stroke-width="1.5"/><path d="m221 229.5v-1.113c0-1.969 1.39-3.665 3.322-4.051l.135-.027c.988-.198 1.857-.78 2.416-1.618.704-1.056 1.89-1.691 3.159-1.691h1.936c1.269 0 2.455.635 3.159 1.691.559.838 1.428 1.42 2.416 1.618l.135.027c1.932.386 3.322 2.082 3.322 4.051v4.613c0 2.8 0 4.2-.545 5.27-.479.941-1.244 1.706-2.185 2.185-1.07.545-2.47.545-5.27.545h-5.5c-1.395 0-2.092 0-2.667-.138-1.828-.439-3.256-1.867-3.695-3.695-.138-.575-.138-1.272-.138-2.667v-.5m10-6c-2.209 0-4 1.791-4 4s1.791 4 4 4 4-1.791 4-4c0-.729-.195-1.412-.535-2" stroke="#fff" stroke-linecap="round" stroke-linejoin="round" stroke-width="1.5"/><path d="m158 240.196c1.392.804 3.262.804 7 .804 3.369 0 5.22 0 6.572-.588m-4.086-4.086.497-.497c1.334-1.334 2.001-2.001 2.83-2.001.828 0 1.495.667 2.828 2l1.019 1.02m-7.174-.522-2.658-2.581c-1.335-1.295-2.002-1.943-2.822-1.937s-1.478.664-2.793 1.979l-1.106 1.106c-.599.599-.899.899-1.444.946-.398.035-.987-.2-1.252-.499-.362-.41-.371-.758-.39-1.454-.021-.82-.021-1.77-.021-2.886 0-3.738 0-5.608.804-7 .526-.912 1.284-1.67 2.196-2.196 1.392-.804 3.262-.804 7-.804s5.608 0 7 .804c.912.526 1.67 1.284 2.196 2.196.804 1.392.804 3.262.804 7 0 2.806 0 4.559-.34 5.848m-7.174-.522 4.086 4.086m3.088-3.564c-.113.428-.263.805-.464 1.152-.526.912-1.284 1.67-2.196 2.196-.138.08-.28.151-.428.216m-.572-13.412c0 1.105-.895 2-2 2s-2-.895-2-2 .895-2 2-2" stroke="#fff" stroke-linecap="round" stroke-linejoin="round" stroke-width="1.5"/><path d="m95 241h9.5c1.398 0 2.097 0 2.648-.228.735-.305 1.319-.889 1.624-1.624.228-.551.228-1.25.228-2.648v-.5c0-.93 0-1.395-.102-1.776-.278-1.036-1.086-1.844-2.122-2.122-.381-.102-.846-.102-1.776-.102m-6-6 1.119-1.119c.706-.707 1.059-1.06 1.431-1.265.902-.498 1.997-.498 2.899 0 .372.205.725.558 1.431 1.265.649.648.973.972 1.171 1.318.481.837.53 1.855.13 2.734-.165.363-.456.716-1.04 1.423l-4.141 5.012m-7.5.632c0 .276-.2238.5-.5.5-.2761 0-.5-.224-.5-.5m1 0c0-.276-.2238-.5-.5-.5-.2761 0-.5.224-.5.5m1 0h-1m-4.5-7v-3.2c0-1.68 0-2.52.327-3.162.2876-.564.7466-1.023 1.3111-1.311.6417-.327 1.4818-.327 3.1619-.327h.4c1.6802 0 2.5203 0 3.162.327.5645.288 1.0234.747 1.3111 1.311.3269.642.3269 1.482.3269 3.162v15.2h-5.2c-1.6801 0-2.5202 0-3.1619-.327-.5645-.288-1.0235-.747-1.3111-1.311-.327-.642-.327-1.482-.327-3.162v-3.2" stroke="#fff" stroke-linecap="round" stroke-linejoin="round" stroke-width="1.5"/><path d="m30.5 229c0 .276-.2239.5-.5.5s-.5-.224-.5-.5m1 0c0-.276-.2239-.5-.5-.5s-.5.224-.5.5m1 0h-1m7 0c0 .276-.2239.5-.5.5s-.5-.224-.5-.5m1 0c0-.276-.2239-.5-.5-.5s-.5.224-.5.5m1 0h-1m1.5002 5c-.9122 1.214-2.3645 2-4.0003 2s-3.0882-.786-4.0004-2m9.0005-11.662c-1.4709-.851-3.1786-1.338-5-1.338-5.5228 0-10 4.477-10 10s4.4772 10 10 10 10-4.477 10-10c0-2.032-.606-3.922-1.647-5.5" stroke="#fff" stroke-linecap="round" stroke-linejoin="round" stroke-width="1.5"/><path d="m759 175c5.523 0 10-4.477 10-10s-4.477-10-10-10m0 20c-5.523 0-10-4.477-10-10s4.477-10 10-10m0 20c3.314 0 6-2.238 6-5 0-2.177-1.67-4.029-4-4.715m-2-10.285c-3.314 0-6 2.239-6 5 0 2.33 1.912 4.288 4.5 4.843m1-4.843c0 .276-.224.5-.5.5s-.5-.224-.5-.5m1 0c0-.276-.224-.5-.5-.5s-.5.224-.5.5m1 0h-1m3 10c0 .276-.224.5-.5.5s-.5-.224-.5-.5m1 0c0-.276-.224-.5-.5-.5s-.5.224-.5.5m1 0h-1" stroke="#fff" stroke-linecap="round" stroke-linejoin="round" stroke-width="1.5"/><path d="m691 156h-.5-3.9c-.557 0-.836 0-1.069.037-1.284.203-2.291 1.21-2.494 2.494-.037.233-.037.512-.037 1.069v2.224c0 .097.079.176.176.176 1.56 0 2.824 1.264 2.824 2.824v.352c0 1.56-1.264 2.824-2.824 2.824-.097 0-.176.079-.176.176v2.224c0 .557 0 .836.037 1.069.203 1.284 1.21 2.291 2.494 2.494.233.037.512.037 1.069.037h12.8c.557 0 .836 0 1.069-.037 1.284-.203 2.291-1.21 2.494-2.494.037-.233.037-.512.037-1.069v-2.224c0-.097-.079-.176-.176-.176-1.56 0-2.824-1.264-2.824-2.824v-.352c0-1.56 1.264-2.824 2.824-2.824.097 0 .176-.079.176-.176v-2.224c0-.557 0-.836-.037-1.069-.203-1.284-1.21-2.291-2.494-2.494-.233-.037-.512-.037-1.069-.037h-3.9-.5m-5 8v2m0-7v2m0 8v2" stroke="#fff" stroke-linecap="round" stroke-linejoin="round" stroke-width="1.5"/><path d="m633 165v-10l-2.713 1.206c-.611.271-.917.407-1.226.441-.34.038-.683-.013-.997-.146-.287-.121-.541-.338-1.049-.774-.675-.578-1.012-.867-1.385-.991-.409-.136-.851-.136-1.26 0-.373.124-.71.413-1.385.991-.508.436-.762.653-1.049.774-.314.133-.657.184-.997.146-.309-.034-.615-.17-1.226-.441l-2.713-1.206v13.6c0 2.24 0 3.36.436 4.216.384.753.995 1.365 1.748 1.748.856.436 1.976.436 4.216.436h6.6m3-10h.8c1.12 0 1.68 0 2.108.218.376.192.682.498.874.874.218.428.218.988.218 2.108v4.8c0 1.105-.895 2-2 2-1.105 0-2-.895-2-2zm-7.5 5h3m-7-8h4.5m-.5 4h3m-6 0c0 .276-.224.5-.5.5s-.5-.224-.5-.5m1 0c0-.276-.224-.5-.5-.5s-.5.224-.5.5m1 0h-1m1 4c0 .276-.224.5-.5.5s-.5-.224-.5-.5m1 0c0-.276-.224-.5-.5-.5s-.5.224-.5.5m1 0h-1" stroke="#fff" stroke-linecap="round" stroke-linejoin="round" stroke-width="1.5"/><path d="m561 171c2.427-1.56 4.265-1.984 6.8-2.1 1.171-.053 1.756-.08 2.164-.304.37-.204.644-.49.83-.869.206-.418.206-.968.206-2.07v-10.657c-2.736 0-4.63 0-6.46.5-.18.049-.36.104-.54.163m-3 15.337c-2.427-1.56-4.265-1.984-6.8-2.1-1.171-.053-1.756-.08-2.164-.304-.37-.204-.644-.49-.83-.869-.206-.418-.206-.968-.206-2.07v-10.657c4.444 0 6.667 0 10 2.143zm9 1.5c-4 0-6 .5-9 2.5-3-2-5-2.5-9-2.5" stroke="#fff" stroke-linecap="round" stroke-linejoin="round" stroke-width="1.5"/><path d="m486 155h18 1.5m-19.5 0v7.6c0 2.24 0 3.36.436 4.216.383.753.995 1.365 1.748 1.748.856.436 1.976.436 4.216.436h5.2c2.24 0 3.36 0 4.216-.436.753-.383 1.365-.995 1.748-1.748.436-.856.436-1.976.436-4.216v-4.1m-18-3.5h-1.5m6.5 7v2m4-4v4m4-3v3m-4 5v3m0 0-5 3m5-3 5 3m-5-3v3" stroke="#fff" stroke-linecap="round" stroke-linejoin="round" stroke-width="1.5"/><path d="m422 158h-2c-.465 0-.697 0-.888.051-.518.139-.922.543-1.061 1.061-.051.191-.051.423-.051.888 0 .93 0 1.395.102 1.776.278 1.036 1.086 1.844 2.122 2.122.381.102.846.102 1.776.102m14-6h2c.465 0 .697 0 .888.051.518.139.922.543 1.061 1.061.051.191.051.423.051.888 0 .93 0 1.395-.102 1.776-.278 1.036-1.086 1.844-2.122 2.122-.381.102-.846.102-1.776.102m-7 7v-2.4c0-.555 0-.833.106-1.045.095-.189.24-.337.427-.436.209-.11.495-.116 1.067-.129.871-.018 1.447-.073 1.945-.235 1.522-.494 2.716-1.688 3.21-3.21.245-.753.245-1.684.245-3.545v-.5c0-1.398 0-2.097-.228-2.648-.305-.735-.889-1.319-1.624-1.624-.551-.228-1.25-.228-2.648-.228h-5c-1.398 0-2.097 0-2.648.228-.735.305-1.319.889-1.624 1.624-.228.551-.228 1.25-.228 2.648v.5c0 1.861 0 2.792.245 3.545.494 1.522 1.688 2.716 3.21 3.21m.636 8.245h5.818c.603 0 1.091-.488 1.091-1.091 0-1.607-1.302-2.909-2.909-2.909h-2.182c-1.607 0-2.909 1.302-2.909 2.909 0 .603.488 1.091 1.091 1.091z" stroke="#fff" stroke-linecap="round" stroke-linejoin="round" stroke-width="1.5"/><path d="m370.071 157.929.53-.53zm-14.142 0-.53-.53zm9.541 3.541c-.293.293-.293.767 0 1.06s.767.293 1.06 0zm-4.94 7.06c.293-.293.293-.767 0-1.06s-.767-.293-1.06 0zm-1.06-6c.293.293.767.293 1.06 0s.293-.767 0-1.06zm7.06 4.94c-.293-.293-.767-.293-1.06 0s-.293.767 0 1.06zm6.012.53-.715-.225zm0-6-.715.225zm.869 5.687c.104-.401-.138-.81-.539-.913-.401-.104-.81.138-.913.539zm-1.452-5c.103.401.512.643.913.539.401-.103.643-.512.539-.913zm-8.959 11.563c-2.555 0-4.866-1.035-6.541-2.709l-1.06 1.06c1.944 1.945 4.633 3.149 7.601 3.149zm-6.541-2.709c-1.674-1.675-2.709-3.986-2.709-6.541h-1.5c0 2.968 1.204 5.657 3.149 7.601zm13.082 0c-1.675 1.674-3.986 2.709-6.541 2.709v1.5c2.968 0 5.657-1.204 7.601-3.149zm-6.541-15.791c2.555 0 4.866 1.035 6.541 2.709l1.06-1.06c-1.944-1.945-4.633-3.149-7.601-3.149zm-9.25 9.25c0-2.555 1.035-4.866 2.709-6.541l-1.06-1.06c-1.945 1.944-3.149 4.633-3.149 7.601zm2.709-6.541c1.675-1.674 3.986-2.709 6.541-2.709v-1.5c-2.968 0-5.657 1.204-7.601 3.149zm13.082-1.06-4.071 4.071 1.06 1.06 4.071-4.071zm-10.071 10.071-4.071 4.071 1.06 1.06 4.071-4.071zm-4.071-9.011 4.071 4.071 1.06-1.06-4.071-4.071zm10.071 10.071 4.071 4.071 1.06-1.06-4.071-4.071zm6.357-.755c-.452 1.438-1.245 2.725-2.286 3.766l1.06 1.06c1.209-1.208 2.131-2.703 2.657-4.376zm-2.286-9.316c1.041 1.041 1.834 2.328 2.286 3.766l1.431-.45c-.526-1.673-1.448-3.168-2.657-4.376zm2.418 8.854c-.04.156-.084.31-.132.462l1.431.45c.055-.178.107-.357.153-.538zm-.132-5.088c.048.152.092.306.132.462l1.452-.374c-.046-.181-.098-.36-.153-.538zm-5.577 2.775c0 1.795-1.455 3.25-3.25 3.25v1.5c2.623 0 4.75-2.127 4.75-4.75zm-3.25 3.25c-1.795 0-3.25-1.455-3.25-3.25h-1.5c0 2.623 2.127 4.75 4.75 4.75zm-3.25-3.25c0-1.795 1.455-3.25 3.25-3.25v-1.5c-2.623 0-4.75 2.127-4.75 4.75zm3.25-3.25c1.795 0 3.25 1.455 3.25 3.25h1.5c0-2.623-2.127-4.75-4.75-4.75z" fill="#fff"/><path d="m293.667 174 .863.518c.898.539 1.347.808 1.827.914.423.093.863.093 1.286 0 .48-.106.929-.375 1.827-.914l5.2-3.12c.849-.51 1.274-.765 1.583-1.116.273-.31.479-.674.605-1.068.142-.445.142-.941.142-1.932v-4.564c0-.991 0-1.487-.142-1.932-.126-.394-.332-.758-.605-1.068-.309-.351-.734-.606-1.583-1.116l-5.2-3.12c-.898-.539-1.347-.808-1.827-.914-.423-.093-.863-.093-1.286 0-.48.106-.929.375-1.827.914l-5.2 3.12c-.849.51-1.274.765-1.583 1.116-.273.31-.479.674-.605 1.068-.142.445-.142.941-.142 1.932v4.564c0 .991 0 1.487.142 1.932.126.394.332.758.605 1.068.309.351.734.606 1.583 1.116l1.003.602m2.167-9.5 5.727-3.5m-1.227 6.5 9-5.5m-9 5.5-9-5.5m9 5.5v10" stroke="#fff" stroke-linecap="round" stroke-linejoin="round" stroke-width="1.5"/><path d="m241 165v-.5-1.849c0-.978 0-1.468-.111-1.928-.098-.408-.259-.798-.478-1.156-.248-.404-.594-.75-1.286-1.442l-1.25-1.25c-.692-.692-1.038-1.038-1.442-1.286-.358-.219-.748-.38-1.156-.478-.46-.111-.95-.111-1.928-.111h-5.949c-2.24 0-3.36 0-4.216.436-.753.383-1.365.995-1.748 1.748-.436.856-.436 1.976-.436 4.216v7.2c0 2.24 0 3.36.436 4.216.383.753.995 1.365 1.748 1.748.856.436 1.976.436 4.216.436h8.1c1.396 0 2.093 0 2.661-.172 1.279-.388 2.279-1.388 2.667-2.667.172-.568.172-1.265.172-2.661v-.5m-14-8h8m0 13.5v-5.3c0-1.12 0-1.68-.218-2.108-.192-.376-.498-.682-.874-.874-.428-.218-.988-.218-2.108-.218h-1.6c-1.12 0-1.68 0-2.108.218-.376.192-.682.498-.874.874-.218.428-.218.988-.218 2.108v2.3" stroke="#fff" stroke-linecap="round" stroke-width="1.5"/><path d="m168 155.582c-.926-.375-1.939-.582-3-.582-4.418 0-8 3.582-8 8v4c0 4.418 3.582 8 8 8s8-3.582 8-8v-4c0-1.892-.657-3.63-1.755-5m-6.245 3v2" stroke="#fff" stroke-linecap="round" stroke-linejoin="round" stroke-width="1.5"/><path d="m97.0001 168h-4c-2.2092 0-4-1.791-4-4 0-2.209 1.7908-4 4-4h4l2.9999-2.1m-2.9999 10.1v-5m0 5 3.7059 2.594c2.761 1.933 4.141 2.899 5.218 2.339 1.076-.561 1.076-2.246 1.076-5.616v-6.634c0-3.37 0-5.055-1.076-5.616-.769-.4-1.694-.021-3.166.933m-9.7579 12v4.5c0 .829.6715 1.5 1.5 1.5.8284 0 1.5-.671 1.5-1.5v-2m10.9999-9.5c1.657 0 3 1.343 3 3 0 1.657-1.343 3-3 3z" stroke="#fff" stroke-linecap="round" stroke-linejoin="round" stroke-width="1.5"/><path d="m26 157v11 7m0-18v-2m0 2 1.3195-.33c1.7163-.429 3.5327-.159 5.0497.752 1.6698 1.001 3.694 1.224 5.5413.608l3.0895-1.03v11l-3.0895 1.03c-1.8473.616-3.8715.393-5.5413-.608-.7346-.441-1.5395-.732-2.3692-.866" stroke="#fff" stroke-linecap="round" stroke-linejoin="round" stroke-width="1.5"/><path d="m756 98 3 3 8-8.0004m2-1.9996-2 1.9996m0 0c-1.824-2.4286-4.729-3.9996-8-3.9996-5.523 0-10 4.4772-10 10 0 5.523 4.477 10 10 10s10-4.477 10-10c0-.6849-.069-1.3537-.2-2" stroke="#fff" stroke-linecap="round" stroke-linejoin="round" stroke-width="1.5"/><path d="m683 94v-.5c0-.4643 0-.6965.019-.892.187-1.8991 1.69-3.4017 3.589-3.5887.196-.0193.428-.0193.892-.0193h3.1c2.24 0 3.36 0 4.216.436.753.3835 1.365.9954 1.748 1.7481.436.8556.436 1.9757.436 4.2159v1.2c0 2.2402 0 3.3603-.436 4.216-.383.753-.995 1.365-1.748 1.748-.856.436-1.976.436-4.216.436h-3.1c-.464 0-.696 0-.892-.019-1.899-.187-3.402-1.69-3.589-3.5889-.019-.1956-.019-.4277-.019-.8921v-.5m14.167-3c1.707 0 2.561 0 3.242.2564 1.078.4058 1.929 1.2566 2.335 2.3346.256.6812.256 1.5349.256 3.242v1.767c0 2.24 0 3.36-.436 4.216-.383.753-.995 1.365-1.748 1.748-.856.436-1.976.436-4.216.436h-1.767c-1.707 0-2.561 0-3.242-.256-1.078-.406-1.929-1.257-2.335-2.335-.256-.681-.256-1.535-.256-3.242" stroke="#fff" stroke-linecap="round" stroke-linejoin="round" stroke-width="1.5"/><path d="m637 96.5v-.5c0-.9288 0-1.3932-.051-1.7831-.355-2.6924-2.473-4.8111-5.166-5.1655-.39-.0514-.854-.0514-1.783-.0514h-3.4c-3.36 0-5.04 0-6.324.654-1.129.5752-2.047 1.4931-2.622 2.6221-.654 1.2835-.654 2.9636-.654 6.3239v.8c0 3.36 0 5.041.654 6.324.575 1.129 1.493 2.047 2.622 2.622 1.284.654 2.964.654 6.324.654h3.4c.929 0 1.393 0 1.783-.051 2.693-.355 4.811-2.473 5.166-5.166.051-.39.051-.854.051-1.783v-.5m-14-2.5h8" stroke="#fff" stroke-linecap="round" stroke-linejoin="round" stroke-width="1.5"/><path d="m571 96.5v-.5c0-.9288 0-1.3932-.051-1.7831-.355-2.6924-2.473-4.8111-5.166-5.1655-.39-.0514-.854-.0514-1.783-.0514h-3.4c-3.36 0-5.04 0-6.324.654-1.129.5752-2.047 1.4931-2.622 2.6221-.654 1.2835-.654 2.9636-.654 6.3239v.8c0 3.36 0 5.041.654 6.324.575 1.129 1.493 2.047 2.622 2.622 1.284.654 2.964.654 6.324.654h3.4c.929 0 1.393 0 1.783-.051 2.693-.355 4.811-2.473 5.166-5.166.051-.39.051-.854.051-1.783v-.5m-14-2.5h4m0 0h4m-4 0v-4m0 4v4" stroke="#fff" stroke-linecap="round" stroke-linejoin="round" stroke-width="1.5"/><path d="m492.5 89h-.5c-.929 0-1.393 0-1.783.0514-2.693.3544-4.811 2.4731-5.166 5.1655-.051.3899-.051.8543-.051 1.7831v3.4c0 3.36 0 5.041.654 6.324.575 1.129 1.493 2.047 2.622 2.622 1.284.654 2.964.654 6.324.654h.8c3.36 0 5.04 0 6.324-.654 1.129-.575 2.047-1.493 2.622-2.622.654-1.283.654-2.964.654-6.324v-3.4c0-.9288 0-1.3932-.051-1.7831-.355-2.6924-2.473-4.8111-5.166-5.1655-.39-.0514-.854-.0514-1.783-.0514h-.5m-8.5 10h2l2 3 4-6 2 3h2" stroke="#fff" stroke-linecap="round" stroke-linejoin="round" stroke-width="1.5"/><path d="m425 92h4m-4 0c0 1.6569-1.343 3-3 3s-3-1.3431-3-3c0-1.6568 1.343-3 3-3s3 1.3432 3 3zm-3 7v4m0 0c1.657 0 3 1.343 3 3s-1.343 3-3 3c-.351 0-.687-.06-1-.171m1-5.829c-1.657 0-3 1.343-3 3m17-11v4m0-4c-1.657 0-3-1.3431-3-3 0-1.6568 1.343-3 3-3m0 6c1.657 0 3-1.3431 3-3 0-.3506-.06-.6872-.171-1m-9.829 15h4m0 0c0 1.657 1.343 3 3 3s3-1.343 3-3-1.343-3-3-3-3 1.343-3 3z" stroke="#fff" stroke-linecap="round" stroke-linejoin="round" stroke-width="1.5"/><path d="m359 99h-3c-.932 0-1.398 0-1.765-.1522-.49-.203-.88-.5923-1.083-1.0824-.152-.3675-.152-.8335-.152-1.7654 0-.9319 0-1.3978.152-1.7653.203-.4901.593-.8794 1.083-1.0824.367-.1523.833-.1523 1.765-.1523h14c.932 0 1.398 0 1.765.1523.49.203.88.5923 1.083 1.0824.152.3675.152.8334.152 1.7653 0 .9319 0 1.3979-.152 1.7654-.203.4901-.593.8794-1.083 1.0824-.367.1522-.833.1522-1.765.1522h-8m5-6c0-2.2091-1.791-4-4-4s-4 1.7909-4 4m0 4.5v3m8-3v3m-13-1.5v3.6c0 2.24 0 3.36.436 4.216.383.753.995 1.365 1.748 1.748.856.436 1.976.436 4.216.436h5.2c2.24 0 3.36 0 4.216-.436.753-.383 1.365-.995 1.748-1.748.436-.856.436-1.976.436-4.216v-.1-.5" stroke="#fff" stroke-linecap="round" stroke-linejoin="round" stroke-width="1.5"/><path d="m298 93h-2.418c-1.745 0-2.618 0-3.349.1867-1.98.5058-3.566 1.9846-4.21 3.9242-.237.7159-.299 1.5866-.421 3.3281-.139 1.976-.208 2.964-.042 3.772.453 2.198 2.095 3.96 4.256 4.566.795.223 1.785.223 3.766.223h2.836c1.981 0 2.971 0 3.766-.223 2.161-.606 3.803-2.368 4.256-4.566.072-.348.1-.731.097-1.211m-5.537-9.9411c.286.0276.534.0682.767.1278 1.98.5058 3.566 1.9846 4.21 3.9242.161.4847.241 1.0404.314 1.8891m-13.291-4v-2c0-2.2091 1.791-4 4-4s4 1.7909 4 4v2m-7.5 3.5c0 .2762-.224.5-.5.5s-.5-.2238-.5-.5m1 0c0-.2761-.224-.5-.5-.5s-.5.2239-.5.5m1 0h-1m9 0c0 .2762-.224.5-.5.5s-.5-.2238-.5-.5m1 0c0-.2761-.224-.5-.5-.5s-.5.2239-.5.5m1 0h-1" stroke="#fff" stroke-linecap="round" stroke-linejoin="round" stroke-width="1.5"/><path d="m230.5 96.5c-1.375 0-2.5 1.125-2.5 2.5s1.125 2.5 2.5 2.5 2.5-1.125 2.5-2.5m-2.5-5c1.375 0 2.5-1.125 2.5-2.5s-1.125-2.5-2.5-2.5-2.5 1.125-2.5 2.5 1.125 2.5 2.5 2.5zm0 10c-1.375 0-2.5 1.125-2.5 2.5s1.125 2.5 2.5 2.5 2.5-1.125 2.5-2.5-1.125-2.5-2.5-2.5z" stroke="#fff" stroke-linecap="round" stroke-width="1.5"/><path d="m165 96.5c-1.375 0-2.5 1.125-2.5 2.5s1.125 2.5 2.5 2.5 2.5-1.125 2.5-2.5m-10-2.5c-1.375 0-2.5 1.125-2.5 2.5s1.125 2.5 2.5 2.5 2.5-1.125 2.5-2.5-1.125-2.5-2.5-2.5zm15 0c-1.375 0-2.5 1.125-2.5 2.5s1.125 2.5 2.5 2.5 2.5-1.125 2.5-2.5-1.125-2.5-2.5-2.5z" stroke="#fff" stroke-linecap="round" stroke-width="1.5"/><path d="m109 99c0 5.523-4.477 10-10 10-5.5228 0-10-4.477-10-10m20 0c0-4.1006-2.468-7.6248-6-9.1679m6 9.1679h-2m-18 0c0-5.5228 4.4772-10 10-10v2m-10 8h2m15-7-1 1m1 13-1-1m-13 1 1.0004-1m-1.0004-13 1 1m5.9999 3s-1.9999 1.4815-1.9999 3.5556c0 3.2594 4 3.2594 4 0 0-2.0741-2.0001-3.5556-2.0001-3.5556z" stroke="#fff" stroke-linecap="round" stroke-linejoin="round" stroke-width="1.5"/><path d="m43 96.5v-.5c0-.929 0-1.3935-.0616-1.7821-.3388-2.1395-2.0168-3.8175-4.1562-4.1563-.3887-.0616-.8532-.0616-1.7822-.0616h-6c-2.8003 0-4.2004 0-5.27.545-.9408.4794-1.7057 1.2443-2.185 2.1851-.545 1.0695-.545 2.4697-.545 5.2699v2c0 2.8 0 4.2.545 5.27.4793.941 1.2442 1.706 2.185 2.185 1.0696.545 2.4697.545 5.27.545h6c.929 0 1.3935 0 1.7822-.062 2.1394-.338 3.8174-2.016 4.1562-4.156.0616-.388.0616-.853.0616-1.782v-.5m-4-6.5-1 .6667-.5624.3749c-1.6038 1.0692-2.4057 1.6038-3.2724 1.8115-.766.1836-1.5644.1836-2.3304 0-.8667-.2077-1.6686-.7423-3.2724-1.8115l-.5624-.3749-1-.6667" stroke="#fff" stroke-linecap="round" stroke-width="1.5"/><path d="m762.923 41.8631c1.009.7212 1.514 1.0817 2.068 1.1253.214.0169.43-.0009.639-.0529.539-.134.978-.5727 1.855-1.45.878-.8773 1.316-1.316 1.45-1.8548.052-.209.07-.425.053-.6397-.043-.5536-.404-1.0584-1.125-2.068l-.621-.8692c-.357-.5003-.449-1.1347-.349-1.7413.07-.427.107-.8653.107-1.3123 0-.4469-.037-.8853-.107-1.3123-.1-.6065-.008-1.241.349-1.7412l.621-.8692c.721-1.0096 1.082-1.5144 1.125-2.068.017-.2147-.001-.4307-.053-.6397-.134-.5389-.572-.9775-1.45-1.8548-.877-.8773-1.316-1.316-1.855-1.45-.209-.052-.425-.0698-.639-.0529-.554.0436-1.059.4041-2.068 1.1253l-.869.6208c-.501.3573-1.135.4492-1.742.3491-.427-.0704-.865-.1071-1.312-.1071s-.885.0367-1.312.1071c-.607.1001-1.241.0082-1.742-.3491l-.869-.6209c-1.009-.7211-1.514-1.0817-2.068-1.1253-.214-.0169-.43.001-.639.053-.539.134-.978.5726-1.855 1.4499-.878.8774-1.316 1.316-1.45 1.8549-.052.209-.07.425-.053.6397.043.5536.404 1.0584 1.125 2.068l.621.8691c.357.5003.449 1.1347.349 1.7413-.07.427-.107.8654-.107 1.3123 0 .447.037.8854.107 1.3124.1.6065.008 1.241-.349 1.7413l-.621.8691c-.721 1.0096-1.082 1.5144-1.125 2.068-.017.2147.001.4307.053.6397.134.5389.572.9775 1.45 1.8548.877.8774 1.316 1.316 1.855 1.45.209.052.425.0699.639.053.554-.0436 1.059-.4042 2.068-1.1253l.869-.6209c.501-.3573 1.135-.4493 1.742-.3492.427.0705.865.1071 1.312.1071m0-11.0002c1.657 0 3 1.3431 3 3s-1.343 3-3 3-3-1.3431-3-3c0-.3506.06-.6872.171-1" stroke="#fff" stroke-linecap="round" stroke-linejoin="round" stroke-width="1.5"/><path d="m701.725 31-.053-.5c-.213-2.0061-.32-3.0091-.66-3.8207-.694-1.6543-2.092-2.9114-3.81-3.4266-.843-.2527-1.852-.2527-3.869-.2527h-.333c-2.332 0-3.498 0-4.46.3364-1.515.5299-2.754 1.6448-3.441 3.0954-.436.921-.56 2.0804-.806 4.3991l-.236 2.2251c-.325 3.051-.487 4.5764-.095 5.7883.524 1.6227 1.714 2.9457 3.272 3.6384 1.164.5173 2.698.5173 5.766.5173h2.458c.8 0 1.199 0 1.526-.0359 3.034-.3333 5.334-2.8907 5.345-5.9425.001-.3287-.041-.7263-.126-1.5216l-.053-.5m-12.15-7v2c0 1.6569 1.343 3 3 3 1.657 0 3-1.3431 3-3v-2" stroke="#fff" stroke-linecap="round" stroke-linejoin="round" stroke-width="1.5"/><g clip-path="url(#d)"><path d="m629 31-.5.5-1.029 1.0295c-.533.5323-.799.7984-1.115.947-.279.1314-.585.1964-.894.1898-.349-.0075-.7-.1426-1.403-.4128l-2.049-.7881c-2.743-1.0549-4.114-1.5823-4.459-2.2906-.298-.6125-.264-1.3347.09-1.9165.41-.6727 1.825-1.0688 4.655-1.8611l10.226-2.8633c1.791-.5016 2.687-.7524 3.302-.5196.536.2029.959.6261 1.162 1.162.233.6147-.018 1.5104-.52 3.3019l-2.863 10.2259c-.793 2.8297-1.189 4.2445-1.861 4.6545-.582.3546-1.304.3886-1.917.0903-.708-.345-1.236-1.7163-2.29-4.459l-.189-.4899-.192-.5" stroke="#fff" stroke-linecap="round" stroke-linejoin="round" stroke-width="1.5"/></g><path d="m551 39h3m14-12h3m-6 12h6m-20-12h6m8.5 4h.5c1.105 0 2-.8954 2-2v-2.8c0-1.1201 0-1.6802-.218-2.108-.192-.3763-.498-.6823-.874-.874-.428-.218-.988-.218-2.108-.218h-1.6c-1.12 0-1.68 0-2.108.218-.376.1917-.682.4977-.874.874-.218.4278-.218.9879-.218 2.108v2.8c0 1.1046.895 2 2 2h.5m-6 4h-.5c-1.105 0-2 .8954-2 2v2.8c0 1.1201 0 1.6802.218 2.108.192.3763.498.6823.874.874.428.218.988.218 2.108.218h1.6c1.12 0 1.68 0 2.108-.218.376-.1917.682-.4977.874-.874.218-.4278.218-.9879.218-2.108v-2.8c0-1.1046-.895-2-2-2h-.5" stroke="#fff" stroke-linecap="round" stroke-width="1.5"/><path d="m487 26 .646 10.9758c.124 2.1204.187 3.1806.639 3.9852.399.7082 1.003 1.2784 1.734 1.6345.83.4045 1.892.4045 4.016.4045h1.93c2.124 0 3.186 0 4.016-.4045.731-.3561 1.335-.9263 1.734-1.6345.452-.8046.515-1.8648.639-3.9852l.411-6.9758m-15.765-4h-2m2 0h18m-6 0-.271-.8119c-.262-.7868-.393-1.1803-.636-1.4711-.215-.2569-.491-.4557-.803-.5782-.352-.1388-.767-.1388-1.596-.1388h-1.388c-.829 0-1.244 0-1.596.1388-.312.1225-.588.3213-.803.5782-.243.2908-.374.6843-.636 1.4711l-.271.8119m2 5v7m4-7v4" stroke="#fff" stroke-linecap="round" stroke-linejoin="round" stroke-width="1.5"/><path d="m421.779 39c-.471 1.4079-.66 2.2242-.442 2.7589.237.5792.73 1.0143 1.335 1.176.733.1961 1.859-.367 4.111-1.4932l.645-.3225c.663-.3316.995-.4974 1.348-.5372.149-.0168.299-.0168.448 0 .353.0398.685.2056 1.348.5372l.645.3224c2.252 1.1263 3.378 1.6894 4.111 1.4933.605-.1617 1.098-.5968 1.335-1.176.287-.7024-.13-1.8905-.964-4.2668-.256-.7293-.384-1.094-.378-1.4523.005-.3017.079-.5983.215-.8677.161-.3198.445-.5828 1.011-1.1087l.141-.1308c1.795-1.6666 2.692-2.4999 2.747-3.2892.036-.5225-.135-1.0382-.475-1.4365-.513-.6017-1.73-.737-4.165-1.0075-.696-.0773-1.043-.1159-1.344-.2572-.205-.0963-.392-.2267-.553-.3855-.236-.233-.393-.5461-.706-1.1724l-.047-.0951c-1.17-2.3396-1.755-3.5094-2.615-3.7457-.347-.0952-.713-.0952-1.06 0-.86.2363-1.445 1.4061-2.615 3.7457l-.047.0951c-.313.6263-.47.9394-.706 1.1724-.161.1588-.348.2892-.553.3855-.301.1413-.648.1799-1.344.2572-2.435.2705-3.652.4058-4.165 1.0075-.34.3983-.511.914-.475 1.4365.055.7893.952 1.6226 2.747 3.2892l.141.1308c.377.3498.699.7247.874.9366" stroke="#fff" stroke-linecap="round" stroke-linejoin="round" stroke-width="1.5"/><path d="m371 34v-3c0-2.8003 0-4.2004-.545-5.27-.479-.9408-1.244-1.7057-2.185-2.185-1.07-.545-2.47-.545-5.27-.545-2.8 0-4.2 0-5.27.545-.941.4793-1.706 1.2442-2.185 2.185-.545 1.0696-.545 2.4697-.545 5.27v12l2.276-1.1378c2.099-1.0495 3.148-1.5742 4.249-1.7807.975-.183 1.975-.183 2.95 0 1.101.2065 2.15.7312 4.249 1.7807l2.276 1.1378v-4" stroke="#fff" stroke-linecap="round" stroke-linejoin="round" stroke-width="1.5"/><path d="m303.989 37.0002c1.688-1.9266 3.011-4.3162 3.011-6.9998 0-3.4998-3-5.9563-6-5.9998-1.5-.0217-3 .5001-4 2-1-1.4999-2.526-2-4-2-3 0-6 2.5-6 5.9998 0 6.9998 9 11.9996 10 11.9996.279 0 1.182-.3896 2.338-1.1035.417-.2576.867-.5574 1.333-.8964" stroke="#fff" stroke-linecap="round" stroke-linejoin="round" stroke-width="1.5"/><path d="m240 42-2.505-2.5047c-.392-.392-.588-.588-.786-.6642-.197-.0758-.341-.0886-.548-.0486-.208.0401-.48.2292-1.022.6072-1.457 1.0151-3.229 1.6103-5.139 1.6103-4.971 0-9-4.0294-9-9s4.029-9 9-9 9 4.0294 9 9c0 1.2414-.251 2.4241-.706 3.5" stroke="#fff" stroke-linecap="round" stroke-width="1.5"/><path d="m158 34v-1c0-.5059 0-.7588.02-1.0022.102-1.2514.594-2.4394 1.407-3.3965.158-.186.337-.3649.694-.7226l5.624-5.6238c.163-.1632.385-.2549.615-.2549 1.25 0 2.092 1.2776 1.6 2.4261l-.674 1.5739c-.346.8066-.519 1.2099-.511 1.5369.014.5732.354 1.0881.875 1.3269.298.1362.736.1362 1.614.1362h1.141c1.928 0 2.891 0 3.581.3921.605.3442 1.072.8882 1.32 1.5388.283.7412.136 1.6938-.157 3.599l-.523 3.4c-.222 1.4445-.333 2.1667-.687 2.7094-.312.4783-.754.8576-1.275 1.0933-.59.2674-1.321.2674-2.782.2674h-8.882c-1.657 0-3-1.3431-3-3v-1m-3-8v8c0 .9319 0 1.3978.152 1.7654.203.49.593.8794 1.083 1.0824.367.1522.833.1522 1.765.1522h.5" stroke="#fff" stroke-linecap="round" stroke-linejoin="round" stroke-width="1.5"/><path d="m105.5 35s-.769 0-1.09.112c-.195.0684-.379.1668-.545.2917-.271.2045-.469.5017-.865 1.0963s-.595.8918-.866 1.0963c-.165.1249-.349.2233-.545.2917-.32.112-.677.112-1.392.112h-2.3943c-.7146 0-1.0719 0-1.3923-.112-.1957-.0684-.3796-.1668-.545-.2917-.2709-.2045-.4691-.5017-.8655-1.0963s-.5946-.8918-.8655-1.0963c-.1654-.1249-.3493-.2233-.545-.2917-.3204-.112-.8748-.112-1.5894-.112-1.4529 0-2.63-1.187-2.3316-2.609.0607-.2893.1283-.5781.2006-.8673l.4346-1.7383c.7169-2.8673 1.0753-4.301 2.0099-5.2653.321-.3311.6862-.6162 1.0853-.8473 1.1622-.6728 2.6418-.6728 5.6012-.6728 2.959 0 4.439 0 5.601.6729.399.231.765.5161 1.085.8473.935.9643 1.294 2.398 2.01 5.2655l.435 1.738c.14.5622.211.8433.267 1.1236.31 1.5531.31 3.1523 0 4.7054-.056.2803-.127.5614-.267 1.1236-.175.6996-.263 1.0494-.38 1.3498-.666 1.6976-2.204 2.898-4.012 3.1324-.32.0415-.681.0415-1.402.0415h-6.6742c-.7211 0-1.0817 0-1.4016-.0415-1.8086-.2344-3.346-1.4348-4.012-3.1324-.1179-.3004-.2053-.6502-.3802-1.3497-.0466-.1863-.0854-.3417-.1186-.4764-.0496-.2015-.0865-.3568-.1176-.5m6.3673-9.5h5.9999m-4.9999 4h3.9999" stroke="#fff" stroke-linecap="round" stroke-width="1.5"/><path d="m38 25.0049c-2.2012-1.7344-3.5079-2.6016-5-2.6016-1.7539 0-3.2516 1.1982-6.247 3.5945l-.2043.1634c-1.6414 1.3131-2.4621 1.9697-2.9442 2.859-.0775.143-.1481.2897-.2113.4396-.3932.932-.3932 1.983-.3932 4.0849v4.4555c0 2.7614 2.2386 5 5 5 1.1046 0 2-.8954 2-2v-4.0001c0-1.6568 1.3431-3 3-3s3 1.3432 3 3v4.0001c0 1.1046.8954 2 2 2 2.7614 0 5-2.2386 5-5v-4.4555c0-2.1019 0-3.1529-.3932-4.0849-.0632-.1499-.1338-.2966-.2113-.4396-.2979-.5496-.7252-1.0103-1.3955-1.5919" stroke="#fff" stroke-linecap="round" stroke-linejoin="round" stroke-width="1.5"/></svg>