<svg width="54" height="54" viewBox="0 0 54 54" fill="none" xmlns="http://www.w3.org/2000/svg">
<rect width="54" height="54" rx="10" fill="#FFB52B"/>
<g clip-path="url(#clip0_1024_609)">
<path d="M30.7321 24.6025C30.2261 24.1232 29.9007 23.4842 29.8105 22.793L29.3403 19.1962L26.1553 20.9298C25.5429 21.2635 24.8343 21.376 24.1486 21.2483L20.5833 20.5833L21.2483 24.1487C21.376 24.8343 21.2635 25.543 20.9298 26.1553L19.1961 29.3403L22.793 29.8105C23.4837 29.901 24.1222 30.2264 24.6013 30.7322L27.0956 33.3653L28.6543 30.0905C28.9535 29.4612 29.4602 28.954 30.0893 28.6543L33.3653 27.0957L30.7321 24.6025ZM30.7613 31.0927L28.1795 36.5177C28.1306 36.6203 28.0575 36.7094 27.9665 36.7774C27.8755 36.8454 27.7694 36.8903 27.6571 36.9081C27.5449 36.9259 27.4301 36.9161 27.3225 36.8796C27.2149 36.8431 27.1178 36.7809 27.0396 36.6985L22.9073 32.3363C22.7969 32.2199 22.6499 32.145 22.4908 32.124L16.5326 31.3447C16.4201 31.3298 16.3128 31.2879 16.2201 31.2223C16.1273 31.1568 16.052 31.0697 16.0004 30.9685C15.9488 30.8674 15.9227 30.7552 15.9241 30.6417C15.9256 30.5281 15.9547 30.4166 16.0088 30.3168L18.8811 25.0388C18.9575 24.8977 18.983 24.7346 18.9535 24.5768L17.8533 18.67C17.8324 18.5582 17.8391 18.443 17.8727 18.3343C17.9064 18.2257 17.966 18.1269 18.0464 18.0465C18.1268 17.966 18.2257 17.9064 18.3343 17.8728C18.443 17.8391 18.5582 17.8325 18.67 17.8533L24.5768 18.9535C24.7345 18.9831 24.8976 18.9575 25.0388 18.8812L30.3168 16.0088C30.4167 15.9547 30.5282 15.9256 30.6419 15.9242C30.7555 15.9228 30.8677 15.9491 30.9689 16.0008C31.0701 16.0525 31.1572 16.128 31.2226 16.2209C31.2881 16.3138 31.33 16.4212 31.3446 16.5338L32.124 22.4908C32.1449 22.6499 32.2199 22.7969 32.3363 22.9073L36.6985 27.0397C36.7809 27.1179 36.843 27.215 36.8796 27.3225C36.9161 27.4301 36.9258 27.545 36.908 27.6572C36.8902 27.7694 36.8454 27.8756 36.7774 27.9666C36.7094 28.0576 36.6202 28.1307 36.5176 28.1795L31.0926 30.7613C30.9474 30.8304 30.8304 30.9475 30.7613 31.0927ZM31.6911 33.3408L33.3408 31.6912L38.291 36.6402L36.6401 38.291L31.6911 33.3408Z" fill="white"/>
</g>
<defs>
<clipPath id="clip0_1024_609">
<rect width="28" height="28" fill="white" transform="translate(13 13)"/>
</clipPath>
</defs>
</svg>
