<svg width="37" height="36" viewBox="0 0 37 36" fill="none" xmlns="http://www.w3.org/2000/svg">
<g clip-path="url(#clip0_895_626)">
<path d="M33.743 8.48389C32.5978 8.99043 31.3834 9.3231 30.14 9.47089C31.4506 8.68704 32.4315 7.45341 32.9 5.99989C31.67 6.73189 30.3215 7.24489 28.916 7.52239C27.9719 6.51226 26.7205 5.84233 25.3564 5.61677C23.9923 5.3912 22.5919 5.62263 21.3729 6.27507C20.1538 6.92751 19.1845 7.96442 18.6156 9.22458C18.0467 10.4847 17.9101 11.8976 18.227 13.2434C15.7326 13.1184 13.2925 12.4702 11.0649 11.3409C8.83732 10.2116 6.87215 8.62646 5.29696 6.68839C4.73939 7.64607 4.44639 8.73473 4.44796 9.84289C4.44796 12.0179 5.55496 13.9394 7.23796 15.0644C6.24197 15.033 5.26791 14.7641 4.39696 14.2799V14.3579C4.39726 15.8064 4.89851 17.2103 5.81573 18.3315C6.73295 19.4526 8.00968 20.2221 9.42946 20.5094C8.50488 20.76 7.53542 20.7969 6.59446 20.6174C6.99476 21.8642 7.77497 22.9547 8.82584 23.7361C9.87672 24.5174 11.1456 24.9506 12.455 24.9749C11.1537 25.9969 9.66372 26.7524 8.07028 27.1982C6.47683 27.6439 4.81115 27.7713 3.16846 27.5729C6.036 29.417 9.3741 30.3961 12.7835 30.3929C24.323 30.3929 30.6335 20.8334 30.6335 12.5429C30.6335 12.2729 30.626 11.9999 30.614 11.7329C31.8422 10.8451 32.9023 9.74542 33.7445 8.48539L33.743 8.48389Z" fill="#3C3A98"/>
</g>
<defs>
<clipPath id="clip0_895_626">
<rect width="36" height="36" fill="white" transform="translate(0.5)"/>
</clipPath>
</defs>
</svg>
