<svg width="74" height="74" viewBox="0 0 74 74" fill="none" xmlns="http://www.w3.org/2000/svg">
<rect x="0.5" y="0.5" width="73" height="73" rx="36.5" fill="white" stroke="#E4E4E4"/>
<path d="M50 38.3437V25.3438L24 25.3438V38.3437C24 42.2788 24.1374 45.1227 24.2791 47.0087C24.4441 49.2062 26.1375 50.8997 28.3351 51.0647C30.2211 51.2063 33.0649 51.3437 37 51.3437C40.9351 51.3437 43.7789 51.2063 45.6649 51.0647C47.8625 50.8997 49.5559 49.2063 49.7209 47.0087C49.8625 45.1227 50 42.2788 50 38.3437Z" fill="#ED9671"/>
<path d="M36.9995 22.6667C31.9395 22.6667 28.407 22.8211 26.1991 22.9669C24.0327 23.11 22.2871 24.7297 22.0858 26.9299C22.0697 27.1056 22.0537 27.2897 22.0379 27.4822C21.8948 29.2273 23.2931 30.6667 25.0023 30.6667H48.9967C50.7059 30.6667 52.1042 29.2272 51.9611 27.4822C51.9453 27.2897 51.9293 27.1056 51.9133 26.9299C51.7119 24.7297 49.9663 23.11 47.7999 22.9669C45.5921 22.8211 42.0595 22.6667 36.9995 22.6667Z" fill="#3E3E3E"/>
<path fill-rule="evenodd" clip-rule="evenodd" d="M32.8321 40.2904C31.8753 40.2676 31.0517 39.6796 31.0086 38.7236C31.0031 38.6016 31 38.4715 31 38.3333C31 38.1951 31.0031 38.065 31.0086 37.943C31.0517 36.987 31.8753 36.399 32.8321 36.3762C33.7613 36.3541 35.1312 36.3333 37 36.3333C38.8688 36.3333 40.2387 36.3541 41.1679 36.3762C42.1247 36.399 42.9483 36.987 42.9914 37.943C42.9969 38.065 43 38.1951 43 38.3333C43 38.4716 42.9969 38.6016 42.9914 38.7236C42.9483 39.6796 42.1247 40.2676 41.1679 40.2904C40.2387 40.3125 38.8688 40.3333 37 40.3333C35.1312 40.3333 33.7613 40.3125 32.8321 40.2904Z" fill="#3E3E3E"/>
</svg>
