<svg width="94" height="94" viewBox="0 0 94 94" fill="none" xmlns="http://www.w3.org/2000/svg">
<rect x="0.5" y="0.5" width="93" height="93" rx="46.5" fill="white" stroke="#E4E4E4"/>
<path d="M47 65.75C40.6402 65.75 36.2097 65.3458 33.5443 64.9904C31.1595 64.6725 29.3205 62.8621 28.9785 60.4754C28.6308 58.0494 28.25 54.2197 28.25 49.0834C28.25 43.947 28.6308 40.1174 28.9785 37.6914C29.3205 35.3046 31.1595 33.4942 33.5443 33.1763C36.2097 32.821 40.6402 32.4167 47 32.4167C53.3598 32.4167 57.7902 32.821 60.4557 33.1763C62.8405 33.4942 64.6795 35.3046 65.0216 37.6914C65.3692 40.1174 65.75 43.947 65.75 49.0834C65.75 54.2197 65.3692 58.0494 65.0216 60.4754C64.6795 62.8621 62.8405 64.6725 60.4557 64.9904C57.7902 65.3458 53.3598 65.75 47 65.75Z" fill="#C6A8F6"/>
<path d="M54.9167 39.098C54.4968 39.098 54.1275 39.0867 53.803 39.0676C51.9118 38.9565 50.8472 37.3989 50.7883 35.8028C50.7665 35.2122 50.75 34.4961 50.75 33.6813C50.75 32.8665 50.7665 32.1505 50.7883 31.5598C50.8472 29.9637 51.9118 28.4061 53.803 28.295C54.1275 28.2759 54.4968 28.2646 54.9167 28.2646C55.3365 28.2646 55.7058 28.2759 56.0303 28.295C57.9216 28.4061 58.9862 29.9637 59.0451 31.5598C59.0668 32.1505 59.0833 32.8665 59.0833 33.6813C59.0833 34.4961 59.0668 35.2122 59.0451 35.8028C58.9862 37.3989 57.9216 38.9565 56.0303 39.0676C55.7058 39.0867 55.3365 39.098 54.9167 39.098Z" fill="#3E3E3E"/>
<path d="M39.0833 39.098C38.6635 39.098 38.2942 39.0867 37.9697 39.0676C36.0784 38.9565 35.0138 37.3989 34.9549 35.8028C34.9331 35.2122 34.9167 34.4961 34.9167 33.6813C34.9167 32.8665 34.9331 32.1505 34.9549 31.5598C35.0138 29.9637 36.0784 28.4061 37.9697 28.295C38.2942 28.2759 38.6635 28.2646 39.0833 28.2646C39.5032 28.2646 39.8725 28.2759 40.197 28.295C42.0882 28.4061 43.1528 29.9637 43.2117 31.5598C43.2335 32.1505 43.25 32.8665 43.25 33.6813C43.25 34.4961 43.2335 35.2122 43.2117 35.8028C43.1528 37.3989 42.0882 38.9565 40.197 39.0676C39.8725 39.0867 39.5032 39.098 39.0833 39.098Z" fill="#3E3E3E"/>
<path fill-rule="evenodd" clip-rule="evenodd" d="M55.6483 46.8578C56.4901 45.7634 56.2853 44.1938 55.1909 43.3519C54.0966 42.5101 52.5269 42.7149 51.6851 43.8092L45.7518 51.5226L42.1239 47.7994C41.1603 46.8104 39.5776 46.7899 38.5887 47.7534C37.5998 48.717 37.5793 50.2998 38.5428 51.2887L44.1838 57.0781C44.6898 57.5974 45.3963 57.8715 46.1202 57.8292C46.844 57.7869 47.5138 57.4324 47.9559 56.8578L55.6483 46.8578Z" fill="#3E3E3E"/>
</svg>
