<svg width="120" height="120" viewBox="0 0 120 120" fill="none" xmlns="http://www.w3.org/2000/svg">
<rect x="0.5" y="0.5" width="119" height="119" rx="59.5" fill="white" stroke="#E4E4E4"/>
<path d="M60 28.125C42.3959 28.125 28.125 42.3959 28.125 60C28.125 77.6041 42.3959 91.875 60 91.875C77.6041 91.875 91.875 77.6041 91.875 60C91.875 42.3959 77.6041 28.125 60 28.125Z" fill="#FFD337"/>
<path fill-rule="evenodd" clip-rule="evenodd" d="M44.3852 67.3716C45.4749 66.4104 47.0854 65.9398 48.6926 66.2279C51.7005 66.7673 55.6833 67.2758 59.9993 67.2758C64.3154 67.2758 68.2983 66.7673 71.3061 66.2279C72.9133 65.9398 74.5238 66.4104 75.6135 67.3716C76.723 68.3504 77.2981 69.8562 76.7218 71.5066C74.3088 78.4159 67.734 83.3744 59.9993 83.3744C52.2647 83.3744 45.69 78.4159 43.277 71.5066C42.7007 69.8562 43.2757 68.3504 44.3852 67.3716Z" fill="#3E3E3E"/>
<path d="M76.8991 28.4228C77.4202 27.0812 79.4131 27.0812 79.9342 28.4228L83.5648 37.7717L91.6864 41.621C92.8822 42.1878 92.8822 43.8121 91.6864 44.3789L83.5648 48.2282L79.9342 57.5772C79.4131 58.9188 77.4202 58.9186 76.8991 57.5772L73.2685 48.2282L65.1469 44.3789C63.9511 43.8121 63.9511 42.1878 65.1469 41.621L73.2685 37.7717L76.8991 28.4228Z" fill="#3E3E3E"/>
<path d="M43.1009 28.4228C42.5798 27.0812 40.5869 27.0812 40.0658 28.4228L36.4351 37.7717L28.3136 41.621C27.1177 42.1878 27.1177 43.8121 28.3136 44.3789L36.4351 48.2282L40.0658 57.5772C40.5869 58.9188 42.5798 58.9186 43.1009 57.5772L46.7315 48.2282L54.8531 44.3789C56.0489 43.8121 56.0489 42.1878 54.8531 41.621L46.7315 37.7717L43.1009 28.4228Z" fill="#3E3E3E"/>
</svg>
