<svg width="94" height="94" viewBox="0 0 94 94" fill="none" xmlns="http://www.w3.org/2000/svg">
<rect x="0.5" y="0.5" width="93" height="93" rx="46.5" fill="white" stroke="#E4E4E4"/>
<path fill-rule="evenodd" clip-rule="evenodd" d="M47.0005 28.0575C43.868 28.0575 40.8201 28.3439 37.9267 28.6664C33.0617 29.2086 29.1555 33.1099 28.6338 37.9867C28.3257 40.866 28.0575 43.8918 28.0575 47.0005C28.0575 50.1093 28.3257 53.1351 28.6338 56.0143C29.1555 60.8912 33.0618 64.7923 37.9267 65.3346C40.8201 65.6572 43.868 65.9435 47.0005 65.9435C50.1331 65.9435 53.181 65.6572 56.0743 65.3346C60.9392 64.7923 64.8454 60.8912 65.3672 56.0143C65.6754 53.1351 65.9434 50.1093 65.9434 47.0005C65.9434 43.8918 65.6754 40.866 65.3672 37.9867C64.8454 33.1099 60.9392 29.2086 56.0743 28.6664C53.181 28.3439 50.1331 28.0575 47.0005 28.0575Z" fill="#A3E285"/>
<path d="M53.0033 43.2813C55.2857 43.2813 57.136 41.4311 57.136 39.1487C57.136 36.8664 55.2857 35.0162 53.0033 35.0162C50.721 35.0162 48.8708 36.8664 48.8708 39.1487C48.8708 41.4311 50.721 43.2813 53.0033 43.2813Z" fill="#3E3E3E"/>
<path d="M39.4346 61.1806C36.1228 60.7614 33.4578 57.7351 33.1033 53.9722C32.9255 52.0852 32.7665 50.1639 32.6829 48.2143C32.6525 47.508 33.1551 46.8874 33.8586 46.8181C34.395 46.7653 34.9335 46.7396 35.4726 46.7412C39.4849 46.6382 43.399 48.1574 46.5164 51.0278C49.0403 53.3517 50.909 56.4388 51.9221 59.9071C52.1598 60.7208 51.5758 61.5246 50.7309 61.594C49.4988 61.6957 48.253 61.7594 46.9954 61.7594C44.4203 61.7594 41.8946 61.492 39.4346 61.1806Z" fill="#3E3E3E"/>
<path d="M54.9653 60.3409C55.0432 60.7452 55.4365 61.0183 55.8257 60.8843C58.5291 59.9526 60.5794 57.2403 60.8874 53.9724C60.9089 53.7436 60.9303 53.5143 60.9511 53.2845C60.9814 52.9513 60.7757 52.6407 60.4531 52.551C59.054 52.1615 57.6166 51.9643 56.172 51.9652C54.9807 51.9623 53.7951 52.0926 52.6321 52.3522C52.1381 52.4625 51.9479 53.0514 52.2306 53.4712C53.7365 55.708 54.5658 58.2686 54.9653 60.3409Z" fill="#3E3E3E"/>
</svg>
