<svg width="74" height="74" viewBox="0 0 74 74" fill="none" xmlns="http://www.w3.org/2000/svg">
<rect x="0.5" y="0.5" width="73" height="73" rx="36.5" fill="white" stroke="#E4E4E4"/>
<path fill-rule="evenodd" clip-rule="evenodd" d="M37.0003 21.5714C30.3136 21.5714 24.8928 26.9921 24.8928 33.6789C24.8928 37.7009 26.7219 41.4332 28.8317 44.4164C30.9516 47.4142 33.4371 49.7712 34.9317 51.0663C36.1273 52.1024 37.8734 52.1024 39.069 51.0663C40.5636 49.7712 43.0491 47.4142 45.1691 44.4167C47.2788 41.4332 49.1079 37.7009 49.1079 33.6789C49.1079 26.9921 43.6871 21.5714 37.0003 21.5714Z" fill="#F26F96"/>
<path d="M37 31.7815C33.962 28.0539 30.7543 30.7025 30.7121 33.5577C30.7121 37.8082 35.7978 41.2971 37 41.2971C38.2022 41.2971 43.2879 37.8082 43.2879 33.5577C43.2457 30.7025 40.038 28.0539 37 31.7815Z" fill="#3E3E3E"/>
</svg>
