<svg width="94" height="94" viewBox="0 0 94 94" fill="none" xmlns="http://www.w3.org/2000/svg">
<rect x="0.5" y="0.5" width="93" height="93" rx="46.5" fill="white" stroke="#E4E4E4"/>
<path d="M31.7203 28.6647C29.8062 28.0009 28.0441 29.8026 28.7757 31.7001C30.5326 36.2561 32.6693 40.7746 33.677 42.8468C34.0932 43.7026 34.8262 44.3553 35.7139 44.6841L41.9669 47L35.7139 49.3159C34.8262 49.6447 34.0932 50.2974 33.677 51.1532C32.6693 53.2254 30.5326 57.7439 28.7757 62.3C28.0441 64.1974 29.8062 65.9991 31.7203 65.3353C38.152 63.1048 51.7208 57.836 63.4016 49.5706C65.1871 48.3071 65.1871 45.6929 63.4016 44.4295C51.7208 36.164 38.1519 30.8952 31.7203 28.6647Z" fill="#C6A8F6"/>
</svg>
